SplineFontDB: 3.2
FontName: GuidoHU
FullName: Guido HU
FamilyName: Guido HU
Weight: Book
Copyright: Generated by Fontographer 4.1
Version: Macromedia Fontographer 4.1 2001.12.09.
ItalicAngle: 0
UnderlinePosition: -143
UnderlineWidth: 20
Ascent: 800
Descent: 200
InvalidEm: 0
sfntRevision: 0x00010000
LayerCount: 2
Layer: 0 1 "Back" 1
Layer: 1 1 "Fore" 0
XUID: [1021 891 1289896683 1688448]
StyleMap: 0x0040
FSType: 2
OS2Version: 1
OS2_WeightWidthSlopeOnly: 0
OS2_UseTypoMetrics: 0
CreationTime: 1007911051
ModificationTime: 1774192367
PfmFamily: 81
TTFWeight: 400
TTFWidth: 5
LineGap: 0
VLineGap: 0
Panose: 0 0 4 0 0 0 0 0 0 0
OS2TypoAscent: 1364
OS2TypoAOffset: 0
OS2TypoDescent: -651
OS2TypoDOffset: 0
OS2TypoLinegap: 0
OS2WinAscent: 1364
OS2WinAOffset: 0
OS2WinDescent: 651
OS2WinDOffset: 0
HheadAscent: 1364
HheadAOffset: 0
HheadDescent: -651
HheadDOffset: 0
OS2SubXSize: 700
OS2SubYSize: 650
OS2SubXOff: 0
OS2SubYOff: 143
OS2SupXSize: 700
OS2SupYSize: 650
OS2SupXOff: 0
OS2SupYOff: 453
OS2StrikeYSize: 50
OS2StrikeYPos: 259
OS2Vendor: 'MACR'
OS2CodePages: 00000001.00000000
OS2UnicodeRanges: 00000003.00000000.00000000.00000000
DEI: 91125
TtTable: prep
NPUSHB
 21
 13
 13
 12
 12
 11
 11
 10
 10
 9
 9
 8
 8
 7
 7
 6
 6
 1
 1
 0
 0
 1
SCANTYPE
PUSHW_1
 511
SCANCTRL
RCVT
ROUND[Grey]
WCVTP
RCVT
ROUND[Grey]
WCVTP
RCVT
ROUND[Grey]
WCVTP
RCVT
ROUND[Grey]
WCVTP
RCVT
ROUND[Grey]
WCVTP
RCVT
ROUND[Grey]
WCVTP
RCVT
ROUND[Grey]
WCVTP
RCVT
ROUND[Grey]
WCVTP
RCVT
ROUND[Grey]
WCVTP
RCVT
ROUND[Grey]
WCVTP
PUSHB_4
 3
 2
 70
 0
CALL
PUSHB_4
 5
 4
 70
 0
CALL
PUSHB_2
 2
 2
RCVT
ROUND[Grey]
WCVTP
PUSHB_2
 4
 4
RCVT
ROUND[Grey]
WCVTP
EndTTInstrs
TtTable: fpgm
NPUSHB
 1
 0
FDEF
SROUND
RCVT
DUP
PUSHB_1
 3
CINDEX
RCVT
SWAP
SUB
ROUND[Grey]
RTG
SWAP
ROUND[Grey]
ADD
WCVTP
ENDF
EndTTInstrs
ShortTable: cvt  22
  -8
  808
  293
  18
  15
  214
  72
  17
  301
  351
  415
  210
  336
  265
  23178
  23178
  23178
  23178
  23178
  23178
  6
  8
EndShort
ShortTable: maxp 16
  1
  0
  214
  170
  15
  0
  0
  2

StartChar: .notdef
Encoding: 65536 -1 0
Width: 500
Flags: W
LayerCount: 2
Fore
SplineSet
63 0 m 1,0,-1
 63 800 l 1,1,-1
 438 800 l 1,2,-1
 438 0 l 1,3,-1
 63 0 l 1,0,-1
125 63 m 1,4,-1
 375 63 l 1,5,-1
 375 738 l 1,6,-1
 125 738 l 1,7,-1
 125 63 l 1,4,-1
EndSplineSet
Validated: 1
EndChar

StartChar: exclam
Encoding: 33 33 4
Width: 74
Flags: W
LayerCount: 2
Fore
SplineSet
0 808 m 1,0,-1
 131 808 l 1,1,-1
 131 793 l 1,2,-1
 0 793 l 1,3,-1
 0 808 l 1,0,-1
0 608 m 1,4,-1
 131 608 l 1,5,-1
 131 593 l 1,6,-1
 0 593 l 1,7,-1
 0 608 l 1,4,-1
0 407 m 1,8,-1
 131 407 l 1,9,-1
 131 392 l 1,10,-1
 0 392 l 1,11,-1
 0 407 l 1,8,-1
0 7 m 1,12,-1
 131 7 l 1,13,-1
 131 -8 l 1,14,-1
 0 -8 l 1,15,-1
 0 7 l 1,12,-1
0 154 m 0,16,17
 -3 171 -3 171 -17 179 c 128,-1,18
 -31 187 -31 187 -33.5 197.5 c 128,-1,19
 -36 208 -36 208 -36 217 c 0,20,21
 -36 253 -36 253 -6 253 c 0,22,23
 2 253 2 253 4 249 c 0,24,25
 11 235 11 235 23 208 c 1,26,-1
 131 208 l 1,27,-1
 131 193 l 1,28,-1
 27 193 l 1,29,30
 30 183 30 183 32 172 c 0,31,32
 37 144 37 144 34 122 c 0,33,34
 31 107 31 107 28 91 c 0,35,36
 23 61 23 61 12 39 c 128,-1,37
 1 17 1 17 -11 17 c 0,38,39
 -22 17 -22 17 -36.5 36 c 128,-1,40
 -51 55 -51 55 -51 66 c 0,41,42
 -51 70 -51 70 -49 72 c 0,43,44
 -45 78 -45 78 -30 75 c 0,45,46
 -8 71 -8 71 -8 71 c 2,47,48
 -1 71 -1 71 0 76 c 0,49,50
 8 108 8 108 0 154 c 0,16,17
EndSplineSet
Validated: 33
EndChar

StartChar: quotedbl
Encoding: 34 34 5
Width: 74
Flags: W
LayerCount: 2
Fore
SplineSet
0 808 m 1,0,-1
 131 808 l 1,1,-1
 131 793 l 1,2,-1
 0 793 l 1,3,-1
 0 808 l 1,0,-1
0 608 m 1,4,-1
 131 608 l 1,5,-1
 131 593 l 1,6,-1
 0 593 l 1,7,-1
 0 608 l 1,4,-1
0 407 m 1,8,-1
 131 407 l 1,9,-1
 131 392 l 1,10,-1
 0 392 l 1,11,-1
 0 407 l 1,8,-1
0 208 m 1,12,-1
 131 208 l 1,13,-1
 131 193 l 1,14,-1
 0 193 l 1,15,-1
 0 208 l 1,12,-1
0 -46 m 0,16,17
 -3 -29 -3 -29 -17 -21 c 128,-1,18
 -31 -13 -31 -13 -33.5 -2.5 c 128,-1,19
 -36 8 -36 8 -36 17 c 0,20,21
 -36 53 -36 53 -6 53 c 0,22,23
 2 53 2 53 4 49 c 0,24,25
 11 35 11 35 23 7 c 1,26,-1
 131 7 l 1,27,-1
 131 -8 l 1,28,-1
 28 -8 l 1,29,30
 30 -17 30 -17 32 -28 c 0,31,32
 37 -56 37 -56 34 -78 c 0,33,34
 31 -93 31 -93 28 -109 c 0,35,36
 23 -139 23 -139 12 -161 c 128,-1,37
 1 -183 1 -183 -11 -183 c 0,38,39
 -22 -183 -22 -183 -36.5 -164 c 128,-1,40
 -51 -145 -51 -145 -51 -134 c 0,41,42
 -51 -130 -51 -130 -49 -128 c 0,43,44
 -45 -122 -45 -122 -30 -125 c 0,45,46
 -8 -129 -8 -129 -8 -129 c 2,47,48
 -1 -129 -1 -129 0 -124 c 0,49,50
 8 -92 8 -92 0 -46 c 0,16,17
EndSplineSet
Validated: 33
EndChar

StartChar: numbersign
Encoding: 35 35 6
Width: 372
Flags: W
LayerCount: 2
Fore
SplineSet
3 808 m 1,0,-1
 404 808 l 1,1,-1
 404 793 l 1,2,-1
 3 793 l 1,3,-1
 3 808 l 1,0,-1
3 608 m 1,4,-1
 404 608 l 1,5,-1
 404 593 l 1,6,-1
 3 593 l 1,7,-1
 3 608 l 1,4,-1
3 407 m 1,8,-1
 404 407 l 1,9,-1
 404 392 l 1,10,-1
 3 392 l 1,11,-1
 3 407 l 1,8,-1
3 208 m 1,12,-1
 79 208 l 1,13,-1
 79 343 l 1,14,15
 146 369 146 369 195 369 c 256,16,17
 244 369 244 369 307 343 c 1,18,-1
 307 251 l 1,19,20
 235 275 235 275 200 275 c 0,21,22
 174 275 174 275 126 262 c 1,23,-1
 126 208 l 1,24,-1
 404 208 l 1,25,-1
 404 193 l 1,26,-1
 127 193 l 1,27,-1
 127 137 l 1,28,29
 171 125 171 125 196 125 c 0,30,31
 230 125 230 125 307 151 c 1,32,-1
 307 59 l 1,33,34
 244 33 244 33 195 33 c 256,35,36
 146 33 146 33 79 59 c 1,37,-1
 79 193 l 1,38,-1
 3 193 l 1,39,-1
 3 208 l 1,12,-1
3 7 m 1,40,-1
 404 7 l 1,41,-1
 404 -8 l 1,42,-1
 3 -8 l 1,43,-1
 3 7 l 1,40,-1
EndSplineSet
Validated: 1
EndChar

StartChar: dollar
Encoding: 36 36 7
Width: 252
Flags: W
LayerCount: 2
Fore
SplineSet
58 1324 m 1,0,-1
 58 1003 l 1,1,2
 111 1040 111 1040 144 1040 c 0,3,4
 186 1040 186 1040 200 990 c 0,5,6
 203 978 203 978 203 966 c 0,7,8
 203 891 203 891 107 820 c 0,9,10
 101 816 101 816 91 808 c 1,11,-1
 301 808 l 1,12,-1
 301 793 l 1,13,-1
 75 793 l 1,14,15
 62 780 62 780 44 763 c 1,16,-1
 44 793 l 1,17,-1
 0 793 l 1,18,-1
 0 808 l 1,19,-1
 44 808 l 1,20,-1
 44 1324 l 1,21,-1
 58 1324 l 1,0,-1
58 981 m 1,22,-1
 58 808 l 1,23,-1
 66 808 l 1,24,25
 92 835 92 835 116 872 c 0,26,27
 149 925 149 925 149 959 c 0,28,29
 149 987 149 987 127 1000 c 0,30,31
 117 1007 117 1007 108 1007 c 0,32,33
 87 1007 87 1007 58 981 c 1,22,-1
0 608 m 1,34,-1
 301 608 l 1,35,-1
 301 593 l 1,36,-1
 0 593 l 1,37,-1
 0 608 l 1,34,-1
0 407 m 1,38,-1
 301 407 l 1,39,-1
 301 392 l 1,40,-1
 0 392 l 1,41,-1
 0 407 l 1,38,-1
0 208 m 1,42,-1
 301 208 l 1,43,-1
 301 193 l 1,44,-1
 0 193 l 1,45,-1
 0 208 l 1,42,-1
0 7 m 1,46,-1
 301 7 l 1,47,-1
 301 -8 l 1,48,-1
 0 -8 l 1,49,-1
 0 7 l 1,46,-1
0 608 m 1,50,-1
 301 608 l 1,51,-1
 301 593 l 1,52,-1
 0 593 l 1,53,-1
 0 608 l 1,50,-1
0 407 m 1,54,-1
 301 407 l 1,55,-1
 301 392 l 1,56,-1
 0 392 l 1,57,-1
 0 407 l 1,54,-1
0 208 m 1,58,-1
 301 208 l 1,59,-1
 301 193 l 1,60,-1
 0 193 l 1,61,-1
 0 208 l 1,58,-1
0 7 m 1,62,-1
 301 7 l 1,63,-1
 301 -8 l 1,64,-1
 0 -8 l 1,65,-1
 0 7 l 1,62,-1
EndSplineSet
Validated: 5
EndChar

StartChar: percent
Encoding: 37 37 8
Width: 74
Flags: W
LayerCount: 2
Fore
SplineSet
0 808 m 1,0,-1
 131 808 l 1,1,-1
 131 793 l 1,2,-1
 0 793 l 1,3,-1
 0 808 l 1,0,-1
0 608 m 1,4,-1
 131 608 l 1,5,-1
 131 593 l 1,6,-1
 0 593 l 1,7,-1
 0 608 l 1,4,-1
0 407 m 1,8,-1
 131 407 l 1,9,-1
 131 392 l 1,10,-1
 0 392 l 1,11,-1
 0 407 l 1,8,-1
0 7 m 1,12,-1
 131 7 l 1,13,-1
 131 -8 l 1,14,-1
 0 -8 l 1,15,-1
 0 7 l 1,12,-1
0 254 m 0,16,17
 -3 271 -3 271 -17 279 c 128,-1,18
 -31 287 -31 287 -33.5 297.5 c 128,-1,19
 -36 308 -36 308 -36 317 c 0,20,21
 -36 353 -36 353 -6 353 c 0,22,23
 2 353 2 353 4 349 c 0,24,25
 18 320 18 320 21 313 c 0,26,27
 28 295 28 295 32 272 c 0,28,29
 38 237 38 237 31 208 c 1,30,-1
 131 208 l 1,31,-1
 131 193 l 1,32,-1
 28 193 l 1,33,-1
 28 191 l 1,34,35
 23 161 23 161 12 139 c 128,-1,36
 1 117 1 117 -11 117 c 0,37,38
 -22 117 -22 117 -36.5 136 c 128,-1,39
 -51 155 -51 155 -51 166 c 0,40,41
 -51 170 -51 170 -49 172 c 0,42,43
 -45 178 -45 178 -30 175 c 0,44,45
 -8 171 -8 171 -8 171 c 2,46,47
 0 171 0 171 3 193 c 1,48,-1
 0 193 l 1,49,-1
 0 208 l 1,50,-1
 4 208 l 1,51,52
 5 226 5 226 0 254 c 0,16,17
EndSplineSet
Validated: 33
EndChar

StartChar: ampersand
Encoding: 38 38 9
Width: 372
Flags: W
LayerCount: 2
Fore
SplineSet
3 808 m 1,0,-1
 404 808 l 1,1,-1
 404 793 l 1,2,-1
 3 793 l 1,3,-1
 3 808 l 1,0,-1
3 608 m 1,4,-1
 404 608 l 1,5,-1
 404 593 l 1,6,-1
 3 593 l 1,7,-1
 3 608 l 1,4,-1
3 407 m 1,8,-1
 79 407 l 1,9,-1
 79 543 l 1,10,11
 146 569 146 569 195 569 c 256,12,13
 244 569 244 569 307 543 c 1,14,-1
 307 451 l 1,15,16
 235 475 235 475 200 475 c 0,17,18
 174 475 174 475 126 462 c 1,19,-1
 126 407 l 1,20,-1
 404 407 l 1,21,-1
 404 392 l 1,22,-1
 127 392 l 1,23,-1
 127 337 l 1,24,25
 171 325 171 325 196 325 c 0,26,27
 230 325 230 325 307 351 c 1,28,-1
 307 259 l 1,29,30
 244 233 244 233 195 233 c 256,31,32
 146 233 146 233 79 259 c 1,33,-1
 79 392 l 1,34,-1
 3 392 l 1,35,-1
 3 407 l 1,8,-1
3 208 m 1,36,-1
 404 208 l 1,37,-1
 404 193 l 1,38,-1
 3 193 l 1,39,-1
 3 208 l 1,36,-1
3 7 m 1,40,-1
 404 7 l 1,41,-1
 404 -8 l 1,42,-1
 3 -8 l 1,43,-1
 3 7 l 1,40,-1
EndSplineSet
Validated: 1
EndChar

StartChar: quotesingle
Encoding: 39 39 10
Width: 74
Flags: W
LayerCount: 2
Fore
SplineSet
0 808 m 1,0,-1
 131 808 l 1,1,-1
 131 793 l 1,2,-1
 0 793 l 1,3,-1
 0 808 l 1,0,-1
0 608 m 1,4,-1
 131 608 l 1,5,-1
 131 593 l 1,6,-1
 0 593 l 1,7,-1
 0 608 l 1,4,-1
0 407 m 1,8,-1
 131 407 l 1,9,-1
 131 392 l 1,10,-1
 0 392 l 1,11,-1
 0 407 l 1,8,-1
0 208 m 1,12,-1
 131 208 l 1,13,-1
 131 193 l 1,14,-1
 0 193 l 1,15,-1
 0 208 l 1,12,-1
0 7 m 1,16,-1
 131 7 l 1,17,-1
 131 -8 l 1,18,-1
 0 -8 l 1,19,-1
 0 7 l 1,16,-1
0 808 m 1,20,-1
 131 808 l 1,21,-1
 131 793 l 1,22,-1
 0 793 l 1,23,-1
 0 808 l 1,20,-1
0 608 m 1,24,-1
 131 608 l 1,25,-1
 131 593 l 1,26,-1
 0 593 l 1,27,-1
 0 608 l 1,24,-1
0 407 m 1,28,-1
 131 407 l 1,29,-1
 131 392 l 1,30,-1
 0 392 l 1,31,-1
 0 407 l 1,28,-1
0 208 m 1,32,-1
 131 208 l 1,33,-1
 131 193 l 1,34,-1
 0 193 l 1,35,-1
 0 208 l 1,32,-1
0 7 m 1,36,-1
 131 7 l 1,37,-1
 131 -8 l 1,38,-1
 0 -8 l 1,39,-1
 0 7 l 1,36,-1
0 -146 m 0,40,41
 -3 -129 -3 -129 -17 -121 c 128,-1,42
 -31 -113 -31 -113 -33.5 -102.5 c 128,-1,43
 -36 -92 -36 -92 -36 -83 c 0,44,45
 -36 -47 -36 -47 -6 -47 c 0,46,47
 2 -47 2 -47 4 -51 c 0,48,49
 18 -80 18 -80 21 -87 c 0,50,51
 28 -105 28 -105 32 -128 c 0,52,53
 37 -156 37 -156 34 -178 c 0,54,55
 31 -193 31 -193 28 -209 c 0,56,57
 23 -239 23 -239 12 -261 c 128,-1,58
 1 -283 1 -283 -11 -283 c 0,59,60
 -22 -283 -22 -283 -36.5 -264 c 128,-1,61
 -51 -245 -51 -245 -51 -234 c 0,62,63
 -51 -230 -51 -230 -49 -228 c 0,64,65
 -45 -222 -45 -222 -30 -225 c 0,66,67
 -8 -229 -8 -229 -8 -229 c 2,68,69
 -1 -229 -1 -229 0 -224 c 0,70,71
 8 -192 8 -192 0 -146 c 0,40,41
EndSplineSet
Validated: 37
EndChar

StartChar: parenleft
Encoding: 40 40 11
Width: 74
Flags: W
LayerCount: 2
Fore
SplineSet
0 808 m 1,0,-1
 131 808 l 1,1,-1
 131 793 l 1,2,-1
 0 793 l 1,3,-1
 0 808 l 1,0,-1
0 407 m 1,4,-1
 131 407 l 1,5,-1
 131 392 l 1,6,-1
 0 392 l 1,7,-1
 0 407 l 1,4,-1
0 208 m 1,8,-1
 131 208 l 1,9,-1
 131 193 l 1,10,-1
 0 193 l 1,11,-1
 0 208 l 1,8,-1
0 7 m 1,12,-1
 131 7 l 1,13,-1
 131 -8 l 1,14,-1
 0 -8 l 1,15,-1
 0 7 l 1,12,-1
0 554 m 0,16,17
 -3 571 -3 571 -17 579 c 128,-1,18
 -31 587 -31 587 -33.5 597.5 c 128,-1,19
 -36 608 -36 608 -36 617 c 0,20,21
 -36 653 -36 653 -6 653 c 0,22,23
 2 653 2 653 4 649 c 0,24,25
 11 635 11 635 23 608 c 1,26,-1
 131 608 l 1,27,-1
 131 593 l 1,28,-1
 27 593 l 1,29,30
 30 583 30 583 32 572 c 0,31,32
 37 544 37 544 34 522 c 0,33,34
 31 507 31 507 28 491 c 0,35,36
 23 461 23 461 12 439 c 128,-1,37
 1 417 1 417 -11 417 c 0,38,39
 -22 417 -22 417 -36.5 436 c 128,-1,40
 -51 455 -51 455 -51 466 c 0,41,42
 -51 470 -51 470 -49 472 c 0,43,44
 -45 478 -45 478 -30 475 c 0,45,46
 -8 471 -8 471 -8 471 c 2,47,48
 -1 471 -1 471 0 476 c 0,49,50
 8 508 8 508 0 554 c 0,16,17
EndSplineSet
Validated: 33
EndChar

StartChar: parenright
Encoding: 41 41 12
Width: 74
Flags: W
LayerCount: 2
Fore
SplineSet
0 808 m 1,0,-1
 131 808 l 1,1,-1
 131 793 l 1,2,-1
 0 793 l 1,3,-1
 0 808 l 1,0,-1
0 407 m 1,4,-1
 131 407 l 1,5,-1
 131 392 l 1,6,-1
 0 392 l 1,7,-1
 0 407 l 1,4,-1
0 208 m 1,8,-1
 131 208 l 1,9,-1
 131 193 l 1,10,-1
 0 193 l 1,11,-1
 0 208 l 1,8,-1
0 7 m 1,12,-1
 131 7 l 1,13,-1
 131 -8 l 1,14,-1
 0 -8 l 1,15,-1
 0 7 l 1,12,-1
0 654 m 0,16,17
 -3 671 -3 671 -17 679 c 128,-1,18
 -31 687 -31 687 -33.5 697.5 c 128,-1,19
 -36 708 -36 708 -36 717 c 0,20,21
 -36 753 -36 753 -6 753 c 0,22,23
 2 753 2 753 4 749 c 0,24,25
 18 720 18 720 21 713 c 0,26,27
 28 695 28 695 32 672 c 0,28,29
 38 638 38 638 32 608 c 1,30,-1
 131 608 l 1,31,-1
 131 593 l 1,32,-1
 28 593 l 1,33,-1
 28 591 l 1,34,35
 16 517 16 517 -11 517 c 0,36,37
 -22 517 -22 517 -36.5 536 c 128,-1,38
 -51 555 -51 555 -51 566 c 0,39,40
 -51 570 -51 570 -49 572 c 0,41,42
 -45 578 -45 578 -30 575 c 0,43,44
 -8 571 -8 571 -8 571 c 2,45,46
 0 571 0 571 3 593 c 1,47,-1
 0 593 l 1,48,-1
 0 608 l 1,49,-1
 4 608 l 1,50,51
 5 626 5 626 0 654 c 0,16,17
EndSplineSet
Validated: 33
EndChar

StartChar: asterisk
Encoding: 42 42 13
Width: 222
Flags: W
LayerCount: 2
Fore
SplineSet
-1110 808 m 1,0,-1
 223 808 l 1,1,-1
 223 793 l 1,2,-1
 -1110 793 l 1,3,-1
 -1110 808 l 1,0,-1
-1110 608 m 1,4,-1
 223 608 l 1,5,-1
 223 593 l 1,6,-1
 -1110 593 l 1,7,-1
 -1110 608 l 1,4,-1
-1110 407 m 1,8,-1
 223 407 l 1,9,-1
 223 392 l 1,10,-1
 -1110 392 l 1,11,-1
 -1110 407 l 1,8,-1
-1110 208 m 1,12,-1
 223 208 l 1,13,-1
 223 193 l 1,14,-1
 -1110 193 l 1,15,-1
 -1110 208 l 1,12,-1
-1110 7 m 1,16,-1
 223 7 l 1,17,-1
 223 -8 l 1,18,-1
 -1110 -8 l 1,19,-1
 -1110 7 l 1,16,-1
-1110 808 m 1,20,-1
 223 808 l 1,21,-1
 223 793 l 1,22,-1
 -1110 793 l 1,23,-1
 -1110 808 l 1,20,-1
-1110 608 m 1,24,-1
 223 608 l 1,25,-1
 223 593 l 1,26,-1
 -1110 593 l 1,27,-1
 -1110 608 l 1,24,-1
-1110 407 m 1,28,-1
 223 407 l 1,29,-1
 223 392 l 1,30,-1
 -1110 392 l 1,31,-1
 -1110 407 l 1,28,-1
-1110 208 m 1,32,-1
 223 208 l 1,33,-1
 223 193 l 1,34,-1
 -1110 193 l 1,35,-1
 -1110 208 l 1,32,-1
-1110 7 m 1,36,-1
 223 7 l 1,37,-1
 223 -8 l 1,38,-1
 -1110 -8 l 1,39,-1
 -1110 7 l 1,36,-1
EndSplineSet
Validated: 5
EndChar

StartChar: plus
Encoding: 43 43 14
Width: 74
Flags: W
LayerCount: 2
Fore
SplineSet
0 808 m 1,0,-1
 131 808 l 1,1,-1
 131 793 l 1,2,-1
 0 793 l 1,3,-1
 0 808 l 1,0,-1
0 608 m 1,4,-1
 131 608 l 1,5,-1
 131 593 l 1,6,-1
 0 593 l 1,7,-1
 0 608 l 1,4,-1
0 407 m 1,8,-1
 131 407 l 1,9,-1
 131 392 l 1,10,-1
 0 392 l 1,11,-1
 0 407 l 1,8,-1
0 208 m 1,12,-1
 131 208 l 1,13,-1
 131 193 l 1,14,-1
 0 193 l 1,15,-1
 0 208 l 1,12,-1
0 54 m 0,16,17
 -3 71 -3 71 -17 79 c 128,-1,18
 -31 87 -31 87 -33.5 97.5 c 128,-1,19
 -36 108 -36 108 -36 117 c 0,20,21
 -36 153 -36 153 -6 153 c 0,22,23
 2 153 2 153 4 149 c 0,24,25
 18 120 18 120 21 113 c 0,26,27
 28 95 28 95 32 72 c 0,28,29
 38 37 38 37 31 7 c 1,30,-1
 131 7 l 1,31,-1
 131 -8 l 1,32,-1
 28 -8 l 1,33,-1
 28 -9 l 1,34,35
 23 -39 23 -39 12 -61 c 128,-1,36
 1 -83 1 -83 -11 -83 c 0,37,38
 -22 -83 -22 -83 -36.5 -64 c 128,-1,39
 -51 -45 -51 -45 -51 -34 c 0,40,41
 -51 -30 -51 -30 -49 -28 c 0,42,43
 -45 -22 -45 -22 -30 -25 c 0,44,45
 -8 -29 -8 -29 -8 -29 c 2,46,47
 0 -29 0 -29 3 -8 c 1,48,-1
 0 -8 l 1,49,-1
 0 7 l 1,50,-1
 4 7 l 1,51,52
 5 25 5 25 0 54 c 0,16,17
EndSplineSet
Validated: 33
EndChar

StartChar: comma
Encoding: 44 44 15
Width: 144
Flags: W
LayerCount: 2
Fore
SplineSet
74 7 m 1,0,-1
 74 193 l 1,1,-1
 -30 193 l 1,2,-1
 -30 208 l 1,3,-1
 74 208 l 1,4,-1
 74 392 l 1,5,-1
 -30 392 l 1,6,-1
 -30 407 l 1,7,-1
 74 407 l 1,8,-1
 74 593 l 1,9,-1
 -30 593 l 1,10,-1
 -30 608 l 1,11,-1
 74 608 l 1,12,-1
 74 793 l 1,13,-1
 -30 793 l 1,14,-1
 -30 808 l 1,15,-1
 74 808 l 1,16,-1
 74 808 l 1,17,-1
 89 808 l 1,18,-1
 89 808 l 1,19,-1
 169 808 l 1,20,-1
 169 793 l 1,21,-1
 89 793 l 1,22,-1
 89 608 l 1,23,-1
 169 608 l 1,24,-1
 169 593 l 1,25,-1
 89 593 l 1,26,-1
 89 407 l 1,27,-1
 169 407 l 1,28,-1
 169 392 l 1,29,-1
 89 392 l 1,30,-1
 89 208 l 1,31,-1
 169 208 l 1,32,-1
 169 193 l 1,33,-1
 89 193 l 1,34,-1
 89 7 l 1,35,-1
 169 7 l 1,36,-1
 169 -8 l 1,37,-1
 -30 -8 l 1,38,-1
 -30 7 l 1,39,-1
 74 7 l 1,0,-1
EndSplineSet
Validated: 1
EndChar

StartChar: hyphen
Encoding: 45 45 16
AltUni2: 002010.ffffffff.0
Width: 222
Flags: W
LayerCount: 2
Fore
SplineSet
0 808 m 1,0,-1
 291 808 l 1,1,-1
 291 793 l 1,2,-1
 0 793 l 1,3,-1
 0 808 l 1,0,-1
0 608 m 1,4,-1
 291 608 l 1,5,-1
 291 593 l 1,6,-1
 0 593 l 1,7,-1
 0 608 l 1,4,-1
0 407 m 1,8,-1
 291 407 l 1,9,-1
 291 392 l 1,10,-1
 0 392 l 1,11,-1
 0 407 l 1,8,-1
0 208 m 1,12,-1
 291 208 l 1,13,-1
 291 193 l 1,14,-1
 0 193 l 1,15,-1
 0 208 l 1,12,-1
0 7 m 1,16,-1
 291 7 l 1,17,-1
 291 -8 l 1,18,-1
 0 -8 l 1,19,-1
 0 7 l 1,16,-1
0 808 m 1,20,-1
 291 808 l 1,21,-1
 291 793 l 1,22,-1
 0 793 l 1,23,-1
 0 808 l 1,20,-1
0 608 m 1,24,-1
 291 608 l 1,25,-1
 291 593 l 1,26,-1
 0 593 l 1,27,-1
 0 608 l 1,24,-1
0 407 m 1,28,-1
 291 407 l 1,29,-1
 291 392 l 1,30,-1
 0 392 l 1,31,-1
 0 407 l 1,28,-1
0 208 m 1,32,-1
 291 208 l 1,33,-1
 291 193 l 1,34,-1
 0 193 l 1,35,-1
 0 208 l 1,32,-1
0 7 m 1,36,-1
 291 7 l 1,37,-1
 291 -8 l 1,38,-1
 0 -8 l 1,39,-1
 0 7 l 1,36,-1
EndSplineSet
Validated: 5
EndChar

StartChar: period
Encoding: 46 46 17
Width: 310
Flags: W
LayerCount: 2
Fore
SplineSet
214 808 m 1,0,-1
 214 808 l 1,1,-1
 310 808 l 1,2,-1
 310 -8 l 1,3,-1
 -61 -8 l 1,4,-1
 -61 7 l 1,5,-1
 84 7 l 1,6,-1
 84 193 l 1,7,-1
 -61 193 l 1,8,-1
 -61 208 l 1,9,-1
 84 208 l 1,10,-1
 84 392 l 1,11,-1
 -61 392 l 1,12,-1
 -61 407 l 1,13,-1
 84 407 l 1,14,-1
 84 593 l 1,15,-1
 -61 593 l 1,16,-1
 -61 608 l 1,17,-1
 84 608 l 1,18,-1
 84 793 l 1,19,-1
 -61 793 l 1,20,-1
 -61 808 l 1,21,-1
 84 808 l 1,22,-1
 84 808 l 1,23,-1
 99 808 l 1,24,-1
 99 808 l 1,25,-1
 214 808 l 1,0,-1
214 608 m 1,26,-1
 214 793 l 1,27,-1
 99 793 l 1,28,-1
 99 608 l 1,29,-1
 214 608 l 1,26,-1
214 407 m 1,30,-1
 214 593 l 1,31,-1
 99 593 l 1,32,-1
 99 407 l 1,33,-1
 214 407 l 1,30,-1
213 208 m 1,34,-1
 213 392 l 1,35,-1
 99 392 l 1,36,-1
 99 208 l 1,37,-1
 213 208 l 1,34,-1
213 7 m 1,38,-1
 213 193 l 1,39,-1
 99 193 l 1,40,-1
 99 7 l 1,41,-1
 213 7 l 1,38,-1
EndSplineSet
Validated: 1
EndChar

StartChar: slash
Encoding: 47 47 18
Width: 74
Flags: W
LayerCount: 2
Fore
SplineSet
0 808 m 1,0,-1
 131 808 l 1,1,-1
 131 793 l 1,2,-1
 0 793 l 1,3,-1
 0 808 l 1,0,-1
0 608 m 1,4,-1
 131 608 l 1,5,-1
 131 593 l 1,6,-1
 0 593 l 1,7,-1
 0 608 l 1,4,-1
0 208 m 1,8,-1
 131 208 l 1,9,-1
 131 193 l 1,10,-1
 0 193 l 1,11,-1
 0 208 l 1,8,-1
0 7 m 1,12,-1
 131 7 l 1,13,-1
 131 -8 l 1,14,-1
 0 -8 l 1,15,-1
 0 7 l 1,12,-1
0 354 m 0,16,17
 -3 371 -3 371 -17 379 c 128,-1,18
 -31 387 -31 387 -33.5 397.5 c 128,-1,19
 -36 408 -36 408 -36 417 c 0,20,21
 -36 453 -36 453 -6 453 c 0,22,23
 2 453 2 453 4 449 c 0,24,25
 11 435 11 435 23 407 c 1,26,-1
 131 407 l 1,27,-1
 131 392 l 1,28,-1
 28 392 l 1,29,30
 30 383 30 383 32 372 c 0,31,32
 37 344 37 344 34 322 c 0,33,34
 31 307 31 307 28 291 c 0,35,36
 23 261 23 261 12 239 c 128,-1,37
 1 217 1 217 -11 217 c 0,38,39
 -22 217 -22 217 -36.5 236 c 128,-1,40
 -51 255 -51 255 -51 266 c 0,41,42
 -51 270 -51 270 -49 272 c 0,43,44
 -45 278 -45 278 -30 275 c 0,45,46
 -8 271 -8 271 -8 271 c 2,47,48
 -1 271 -1 271 0 276 c 0,49,50
 8 308 8 308 0 354 c 0,16,17
EndSplineSet
Validated: 33
EndChar

StartChar: zero
Encoding: 48 48 19
Width: 222
Flags: W
LayerCount: 2
Fore
SplineSet
0 808 m 1,0,-1
 291 808 l 1,1,-1
 291 793 l 1,2,-1
 0 793 l 1,3,-1
 0 808 l 1,0,-1
0 608 m 1,4,-1
 291 608 l 1,5,-1
 291 593 l 1,6,-1
 0 593 l 1,7,-1
 0 608 l 1,4,-1
0 407 m 1,8,-1
 291 407 l 1,9,-1
 291 392 l 1,10,-1
 0 392 l 1,11,-1
 0 407 l 1,8,-1
0 208 m 1,12,-1
 291 208 l 1,13,-1
 291 193 l 1,14,-1
 0 193 l 1,15,-1
 0 208 l 1,12,-1
0 7 m 1,16,-1
 291 7 l 1,17,-1
 291 -8 l 1,18,-1
 0 -8 l 1,19,-1
 0 7 l 1,16,-1
-60 -193 m 1,20,-1
 6 -193 l 1,21,22
 24 -147 24 -147 71 -120 c 0,23,24
 109 -99 109 -99 145 -99 c 0,25,26
 182 -99 182 -99 208 -124 c 0,27,28
 230 -145 230 -145 230 -171 c 0,29,30
 230 -182 230 -182 227 -193 c 1,31,-1
 291 -193 l 1,32,-1
 291 -208 l 1,33,-1
 221 -208 l 1,34,35
 200 -253 200 -253 155 -279 c 0,36,37
 117 -301 117 -301 82 -301 c 0,38,39
 42 -301 42 -301 17 -274 c 0,40,41
 -1 -255 -1 -255 -1 -225 c 0,42,43
 0 -217 0 -217 2 -208 c 1,44,-1
 -60 -208 l 1,45,-1
 -60 -193 l 1,20,-1
EndSplineSet
Validated: 1
EndChar

StartChar: one
Encoding: 49 49 20
Width: 222
Flags: W
LayerCount: 2
Fore
SplineSet
0 808 m 1,0,-1
 291 808 l 1,1,-1
 291 793 l 1,2,-1
 0 793 l 1,3,-1
 0 808 l 1,0,-1
0 608 m 1,4,-1
 291 608 l 1,5,-1
 291 593 l 1,6,-1
 0 593 l 1,7,-1
 0 608 l 1,4,-1
0 407 m 1,8,-1
 291 407 l 1,9,-1
 291 392 l 1,10,-1
 0 392 l 1,11,-1
 0 407 l 1,8,-1
0 208 m 1,12,-1
 291 208 l 1,13,-1
 291 193 l 1,14,-1
 0 193 l 1,15,-1
 0 208 l 1,12,-1
0 7 m 1,16,-1
 291 7 l 1,17,-1
 291 -8 l 1,18,-1
 186 -8 l 1,19,20
 231 -30 231 -30 230 -71 c 0,21,22
 230 -100 230 -100 208 -131 c 128,-1,23
 186 -162 186 -162 155 -179 c 0,24,25
 117 -201 117 -201 82 -201 c 0,26,27
 42 -201 42 -201 17 -174 c 0,28,29
 -1 -155 -1 -155 -1 -125 c 0,30,31
 0 -87 0 -87 31 -53 c 0,32,33
 58 -23 58 -23 97 -8 c 1,34,-1
 0 -8 l 1,35,-1
 0 7 l 1,16,-1
EndSplineSet
Validated: 33
EndChar

StartChar: two
Encoding: 50 50 21
Width: 222
Flags: W
LayerCount: 2
Fore
SplineSet
0 808 m 1,0,-1
 291 808 l 1,1,-1
 291 793 l 1,2,-1
 0 793 l 1,3,-1
 0 808 l 1,0,-1
0 608 m 1,4,-1
 291 608 l 1,5,-1
 291 593 l 1,6,-1
 0 593 l 1,7,-1
 0 608 l 1,4,-1
0 407 m 1,8,-1
 291 407 l 1,9,-1
 291 392 l 1,10,-1
 0 392 l 1,11,-1
 0 407 l 1,8,-1
0 208 m 1,12,-1
 291 208 l 1,13,-1
 291 193 l 1,14,-1
 0 193 l 1,15,-1
 0 208 l 1,12,-1
0 7 m 1,16,-1
 6 7 l 1,17,18
 24 53 24 53 71 80 c 0,19,20
 109 101 109 101 145 101 c 0,21,22
 182 101 182 101 208 76 c 0,23,24
 230 55 230 55 230 29 c 0,25,26
 230 18 230 18 227 7 c 1,27,-1
 291 7 l 1,28,-1
 291 -8 l 1,29,-1
 221 -8 l 1,30,31
 200 -53 200 -53 155 -79 c 0,32,33
 117 -101 117 -101 82 -101 c 0,34,35
 42 -101 42 -101 17 -74 c 0,36,37
 -1 -55 -1 -55 -1 -25 c 0,38,39
 0 -17 0 -17 2 -8 c 1,40,-1
 0 -8 l 1,41,-1
 0 7 l 1,16,-1
EndSplineSet
Validated: 1
EndChar

StartChar: three
Encoding: 51 51 22
Width: 222
Flags: W
LayerCount: 2
Fore
SplineSet
0 808 m 1,0,-1
 291 808 l 1,1,-1
 291 793 l 1,2,-1
 0 793 l 1,3,-1
 0 808 l 1,0,-1
0 608 m 1,4,-1
 291 608 l 1,5,-1
 291 593 l 1,6,-1
 0 593 l 1,7,-1
 0 608 l 1,4,-1
0 407 m 1,8,-1
 291 407 l 1,9,-1
 291 392 l 1,10,-1
 0 392 l 1,11,-1
 0 407 l 1,8,-1
0 7 m 1,12,-1
 43 7 l 1,13,14
 28 14 28 14 17 26 c 0,15,16
 -1 45 -1 45 -1 75 c 0,17,18
 0 113 0 113 31 147 c 0,19,20
 59 178 59 178 99 193 c 1,21,-1
 0 193 l 1,22,-1
 0 208 l 1,23,-1
 291 208 l 1,24,-1
 291 193 l 1,25,-1
 185 193 l 1,26,27
 231 171 231 171 230 129 c 0,28,29
 229 91 229 91 196 54 c 0,30,31
 165 21 165 21 125 7 c 1,32,-1
 291 7 l 1,33,-1
 291 -8 l 1,34,-1
 0 -8 l 1,35,-1
 0 7 l 1,12,-1
EndSplineSet
Validated: 33
EndChar

StartChar: four
Encoding: 52 52 23
Width: 222
Flags: W
LayerCount: 2
Fore
SplineSet
0 808 m 1,0,-1
 291 808 l 1,1,-1
 291 793 l 1,2,-1
 0 793 l 1,3,-1
 0 808 l 1,0,-1
0 608 m 1,4,-1
 291 608 l 1,5,-1
 291 593 l 1,6,-1
 0 593 l 1,7,-1
 0 608 l 1,4,-1
0 407 m 1,8,-1
 291 407 l 1,9,-1
 291 392 l 1,10,-1
 0 392 l 1,11,-1
 0 407 l 1,8,-1
0 208 m 1,12,-1
 6 208 l 1,13,14
 25 253 25 253 71 280 c 0,15,16
 109 301 109 301 145 301 c 0,17,18
 182 301 182 301 208 276 c 0,19,20
 230 255 230 255 230 229 c 0,21,22
 230 219 230 219 227 208 c 1,23,-1
 291 208 l 1,24,-1
 291 193 l 1,25,-1
 221 193 l 1,26,27
 201 147 201 147 155 121 c 0,28,29
 117 99 117 99 82 99 c 0,30,31
 42 99 42 99 17 126 c 0,32,33
 -1 145 -1 145 -1 175 c 0,34,35
 0 183 0 183 2 193 c 1,36,-1
 0 193 l 1,37,-1
 0 208 l 1,12,-1
0 7 m 1,38,-1
 291 7 l 1,39,-1
 291 -8 l 1,40,-1
 0 -8 l 1,41,-1
 0 7 l 1,38,-1
EndSplineSet
Validated: 1
EndChar

StartChar: five
Encoding: 53 53 24
Width: 222
Flags: W
LayerCount: 2
Fore
SplineSet
0 808 m 1,0,-1
 291 808 l 1,1,-1
 291 793 l 1,2,-1
 0 793 l 1,3,-1
 0 808 l 1,0,-1
0 608 m 1,4,-1
 291 608 l 1,5,-1
 291 593 l 1,6,-1
 0 593 l 1,7,-1
 0 608 l 1,4,-1
0 208 m 1,8,-1
 42 208 l 1,9,10
 28 214 28 214 17 226 c 0,11,12
 -1 245 -1 245 -1 275 c 0,13,14
 0 313 0 313 31 347 c 0,15,16
 59 378 59 378 98 392 c 1,17,-1
 0 392 l 1,18,-1
 0 407 l 1,19,-1
 291 407 l 1,20,-1
 291 392 l 1,21,-1
 185 392 l 1,22,23
 231 370 231 370 230 329 c 0,24,25
 229 291 229 291 197.5 256.5 c 128,-1,26
 166 222 166 222 127 208 c 1,27,-1
 291 208 l 1,28,-1
 291 193 l 1,29,-1
 0 193 l 1,30,-1
 0 208 l 1,8,-1
0 7 m 1,31,-1
 291 7 l 1,32,-1
 291 -8 l 1,33,-1
 0 -8 l 1,34,-1
 0 7 l 1,31,-1
EndSplineSet
Validated: 33
EndChar

StartChar: six
Encoding: 54 54 25
Width: 222
Flags: W
LayerCount: 2
Fore
SplineSet
0 808 m 1,0,-1
 291 808 l 1,1,-1
 291 793 l 1,2,-1
 0 793 l 1,3,-1
 0 808 l 1,0,-1
0 608 m 1,4,-1
 291 608 l 1,5,-1
 291 593 l 1,6,-1
 0 593 l 1,7,-1
 0 608 l 1,4,-1
0 407 m 1,8,-1
 6 407 l 1,9,10
 24 453 24 453 71 480 c 0,11,12
 109 501 109 501 145 501 c 0,13,14
 182 501 182 501 208 476 c 0,15,16
 230 455 230 455 230 429 c 0,17,18
 230 419 230 419 227 407 c 1,19,-1
 291 407 l 1,20,-1
 291 392 l 1,21,-1
 221 392 l 1,22,23
 201 347 201 347 155 321 c 0,24,25
 117 299 117 299 82 299 c 0,26,27
 42 299 42 299 17 326 c 0,28,29
 -1 345 -1 345 -1 375 c 0,30,31
 0 383 0 383 2 392 c 1,32,-1
 0 392 l 1,33,-1
 0 407 l 1,8,-1
0 208 m 1,34,-1
 291 208 l 1,35,-1
 291 193 l 1,36,-1
 0 193 l 1,37,-1
 0 208 l 1,34,-1
0 7 m 1,38,-1
 291 7 l 1,39,-1
 291 -8 l 1,40,-1
 0 -8 l 1,41,-1
 0 7 l 1,38,-1
EndSplineSet
Validated: 1
EndChar

StartChar: seven
Encoding: 55 55 26
Width: 222
Flags: W
LayerCount: 2
Fore
SplineSet
0 808 m 1,0,-1
 291 808 l 1,1,-1
 291 793 l 1,2,-1
 0 793 l 1,3,-1
 0 808 l 1,0,-1
0 407 m 1,4,-1
 43 407 l 1,5,6
 28 414 28 414 17 426 c 0,7,8
 -1 445 -1 445 -1 475 c 0,9,10
 0 513 0 513 32 548 c 0,11,12
 60 579 60 579 99 593 c 1,13,-1
 0 593 l 1,14,-1
 0 608 l 1,15,-1
 291 608 l 1,16,-1
 291 593 l 1,17,-1
 184 593 l 1,18,19
 231 571 231 571 230 529 c 0,20,21
 229 491 229 491 196 454 c 0,22,23
 166 422 166 422 126 407 c 1,24,-1
 291 407 l 1,25,-1
 291 392 l 1,26,-1
 0 392 l 1,27,-1
 0 407 l 1,4,-1
0 208 m 1,28,-1
 291 208 l 1,29,-1
 291 193 l 1,30,-1
 0 193 l 1,31,-1
 0 208 l 1,28,-1
0 7 m 1,32,-1
 291 7 l 1,33,-1
 291 -8 l 1,34,-1
 0 -8 l 1,35,-1
 0 7 l 1,32,-1
EndSplineSet
Validated: 33
EndChar

StartChar: eight
Encoding: 56 56 27
Width: 222
Flags: W
LayerCount: 2
Fore
SplineSet
0 808 m 1,0,-1
 291 808 l 1,1,-1
 291 793 l 1,2,-1
 0 793 l 1,3,-1
 0 808 l 1,0,-1
0 608 m 1,4,-1
 7 608 l 1,5,6
 25 653 25 653 71 680 c 0,7,8
 109 701 109 701 145 701 c 0,9,10
 182 701 182 701 208 676 c 0,11,12
 230 655 230 655 230 629 c 0,13,14
 230 619 230 619 227 608 c 1,15,-1
 291 608 l 1,16,-1
 291 593 l 1,17,-1
 221 593 l 1,18,19
 201 547 201 547 155 521 c 0,20,21
 117 499 117 499 82 499 c 0,22,23
 42 499 42 499 17 526 c 0,24,25
 -1 545 -1 545 -1 575 c 0,26,27
 0 584 0 584 2 593 c 1,28,-1
 0 593 l 1,29,-1
 0 608 l 1,4,-1
0 407 m 1,30,-1
 291 407 l 1,31,-1
 291 392 l 1,32,-1
 0 392 l 1,33,-1
 0 407 l 1,30,-1
0 208 m 1,34,-1
 291 208 l 1,35,-1
 291 193 l 1,36,-1
 0 193 l 1,37,-1
 0 208 l 1,34,-1
0 7 m 1,38,-1
 291 7 l 1,39,-1
 291 -8 l 1,40,-1
 0 -8 l 1,41,-1
 0 7 l 1,38,-1
EndSplineSet
Validated: 1
EndChar

StartChar: nine
Encoding: 57 57 28
Width: 222
Flags: W
LayerCount: 2
Fore
SplineSet
0 608 m 1,0,-1
 42 608 l 1,1,2
 28 615 28 615 17 626 c 0,3,4
 -1 645 -1 645 -1 675 c 0,5,6
 0 713 0 713 31 747 c 0,7,8
 59 778 59 778 99 793 c 1,9,-1
 0 793 l 1,10,-1
 0 808 l 1,11,-1
 291 808 l 1,12,-1
 291 793 l 1,13,-1
 185 793 l 1,14,15
 231 771 231 771 230 729 c 0,16,17
 229 691 229 691 198 656.5 c 128,-1,18
 167 622 167 622 128 608 c 1,19,-1
 291 608 l 1,20,-1
 291 593 l 1,21,-1
 0 593 l 1,22,-1
 0 608 l 1,0,-1
0 407 m 1,23,-1
 291 407 l 1,24,-1
 291 392 l 1,25,-1
 0 392 l 1,26,-1
 0 407 l 1,23,-1
0 208 m 1,27,-1
 291 208 l 1,28,-1
 291 193 l 1,29,-1
 0 193 l 1,30,-1
 0 208 l 1,27,-1
0 7 m 1,31,-1
 291 7 l 1,32,-1
 291 -8 l 1,33,-1
 0 -8 l 1,34,-1
 0 7 l 1,31,-1
EndSplineSet
Validated: 33
EndChar

StartChar: colon
Encoding: 58 58 29
Width: 114
Flags: W
LayerCount: 2
Fore
SplineSet
-60 608 m 1,0,-1
 171 608 l 1,1,-1
 171 593 l 1,2,-1
 -60 593 l 1,3,-1
 -60 608 l 1,0,-1
-60 407 m 1,4,-1
 171 407 l 1,5,-1
 171 392 l 1,6,-1
 -60 392 l 1,7,-1
 -60 407 l 1,4,-1
-60 208 m 1,8,-1
 171 208 l 1,9,-1
 171 193 l 1,10,-1
 -60 193 l 1,11,-1
 -60 208 l 1,8,-1
-60 7 m 1,12,-1
 171 7 l 1,13,-1
 171 -8 l 1,14,-1
 -60 -8 l 1,15,-1
 -60 7 l 1,12,-1
44 682 m 1,16,-1
 44 793 l 1,17,-1
 -60 793 l 1,18,-1
 -60 808 l 1,19,-1
 44 808 l 1,20,-1
 44 848 l 1,21,-1
 59 848 l 1,22,-1
 59 808 l 1,23,-1
 171 808 l 1,24,-1
 171 793 l 1,25,-1
 59 793 l 1,26,-1
 59 682 l 1,27,-1
 44 682 l 1,16,-1
EndSplineSet
Validated: 1
EndChar

StartChar: semicolon
Encoding: 59 59 30
Width: 222
Flags: W
LayerCount: 2
Fore
SplineSet
-72 808 m 1,0,-1
 270 808 l 1,1,-1
 270 793 l 1,2,-1
 -72 793 l 1,3,-1
 -72 808 l 1,0,-1
-72 7 m 1,4,-1
 270 7 l 1,5,-1
 270 -8 l 1,6,-1
 -72 -8 l 1,7,-1
 -72 7 l 1,4,-1
104 122 m 1,8,-1
 104 193 l 1,9,-1
 -72 193 l 1,10,-1
 -72 208 l 1,11,-1
 104 208 l 1,12,-1
 104 392 l 1,13,-1
 -72 392 l 1,14,-1
 -72 407 l 1,15,-1
 104 407 l 1,16,-1
 104 593 l 1,17,-1
 -72 593 l 1,18,-1
 -72 608 l 1,19,-1
 104 608 l 1,20,-1
 104 688 l 1,21,-1
 119 688 l 1,22,-1
 119 608 l 1,23,-1
 270 608 l 1,24,-1
 270 593 l 1,25,-1
 119 593 l 1,26,-1
 119 407 l 1,27,-1
 270 407 l 1,28,-1
 270 392 l 1,29,-1
 119 392 l 1,30,-1
 119 208 l 1,31,-1
 270 208 l 1,32,-1
 270 193 l 1,33,-1
 119 193 l 1,34,-1
 119 122 l 1,35,-1
 104 122 l 1,8,-1
EndSplineSet
Validated: 1
EndChar

StartChar: less
Encoding: 60 60 31
Width: 772
Flags: W
LayerCount: 2
Fore
SplineSet
542 811 m 2,0,-1
 542 808 l 1,1,-1
 841 808 l 1,2,-1
 841 793 l 1,3,-1
 541 793 l 1,4,5
 537 691 537 691 485 608 c 1,6,-1
 841 608 l 1,7,-1
 841 593 l 1,8,-1
 475 593 l 1,9,10
 446 552 446 552 407 521 c 1,11,-1
 429 407 l 1,12,-1
 841 407 l 1,13,-1
 841 392 l 1,14,-1
 538 392 l 1,15,16
 593 373 593 373 626 323 c 128,-1,17
 659 273 659 273 662 208 c 1,18,-1
 841 208 l 1,19,-1
 841 193 l 1,20,-1
 663 193 l 1,21,22
 662 123 662 123 623 74.5 c 128,-1,23
 584 26 584 26 517 7 c 1,24,-1
 841 7 l 1,25,-1
 841 -8 l 1,26,-1
 509 -8 l 1,27,-1
 539 -174 l 2,28,29
 541 -185 541 -185 541 -196 c 0,30,31
 541 -249 541 -249 494.5 -290 c 128,-1,32
 448 -331 448 -331 394 -331 c 0,33,34
 348 -331 348 -331 306 -292 c 128,-1,35
 264 -253 264 -253 264 -207 c 0,36,37
 264 -171 264 -171 290.5 -145 c 128,-1,38
 317 -119 317 -119 354 -119 c 0,39,40
 386 -119 386 -119 411 -142 c 128,-1,41
 436 -165 436 -165 436 -197 c 0,42,43
 436 -236 436 -236 408.5 -261 c 128,-1,44
 381 -286 381 -286 343 -281 c 1,45,46
 376 -312 376 -312 410 -312 c 0,47,48
 426 -312 426 -312 452 -299 c 0,49,50
 525 -262 525 -262 525 -194 c 0,51,52
 525 -183 525 -183 522 -171 c 2,53,-1
 493 -8 l 1,54,-1
 430 -8 l 2,55,56
 426 -8 426 -8 418.5 -8 c 128,-1,57
 411 -8 411 -8 408 -8 c 128,-1,58
 405 -8 405 -8 402 -8 c 128,-1,59
 399 -8 399 -8 397 -8 c 2,60,-1
 0 -8 l 1,61,-1
 0 7 l 1,62,-1
 321 7 l 1,63,64
 261 29 261 29 215.5 79 c 128,-1,65
 170 129 170 129 152 193 c 1,66,-1
 0 193 l 1,67,-1
 0 208 l 1,68,-1
 148 208 l 1,69,70
 141 238 141 238 141 268 c 0,71,72
 141 320 141 320 182 392 c 1,73,-1
 0 392 l 1,74,-1
 0 407 l 1,75,-1
 191 407 l 1,76,77
 238 487 238 487 320 575 c 0,78,79
 330 585 330 585 338 593 c 1,80,-1
 0 593 l 1,81,-1
 0 608 l 1,82,-1
 353 608 l 1,83,84
 365 620 365 620 369 623 c 1,85,86
 362 642 362 642 351 701 c 128,-1,87
 340 760 340 760 338 793 c 1,88,-1
 0 793 l 1,89,-1
 0 808 l 1,90,-1
 337 808 l 1,91,92
 339 873 339 873 368 947 c 0,93,94
 404 1040 404 1040 453 1040 c 0,95,96
 490 1040 490 1040 519 941 c 0,97,98
 542 863 542 863 542 811 c 2,0,-1
449 208 m 1,99,-1
 426 319 l 1,100,101
 383 314 383 314 352.5 282.5 c 128,-1,102
 322 251 322 251 315 208 c 1,103,-1
 449 208 l 1,99,-1
211 193 m 1,104,105
 220 121 220 121 283 67.5 c 128,-1,106
 346 14 346 14 418 14 c 0,107,108
 450 14 450 14 485 25 c 1,109,-1
 452 193 l 1,110,-1
 313 193 l 1,111,112
 312 188 312 188 312 184 c 0,113,114
 312 119 312 119 399 72 c 0,115,116
 424 58 424 58 437 57 c 1,117,-1
 437 50 l 1,118,119
 388 55 388 55 340.5 98.5 c 128,-1,120
 293 142 293 142 284 189 c 2,121,-1
 283 193 l 1,122,-1
 211 193 l 1,104,105
288 392 m 1,123,124
 209 292 209 292 210 211 c 2,125,-1
 210 208 l 1,126,-1
 281 208 l 1,127,128
 280 216 280 216 280 225 c 0,129,130
 280 282 280 282 312.5 328 c 128,-1,131
 345 374 345 374 398 392 c 1,132,-1
 288 392 l 1,123,124
393 507 m 1,133,134
 356 477 356 477 300 407 c 1,135,-1
 412 407 l 1,136,-1
 393 507 l 1,133,134
374 793 m 1,137,138
 369 772 369 772 369 761 c 0,139,140
 369 681 369 681 385 634 c 1,141,-1
 413 660 l 2,142,143
 419 663 419 663 437 684 c 0,144,145
 484 737 484 737 501 793 c 1,146,-1
 374 793 l 1,137,138
461 945 m 0,147,148
 437 945 437 945 411 898 c 0,149,150
 391 859 391 859 377 808 c 1,151,-1
 506 808 l 1,152,153
 510 828 510 828 510 848 c 0,154,155
 510 945 510 945 461 945 c 0,147,148
609 208 m 1,156,157
 597 257 597 257 557.5 289 c 128,-1,158
 518 321 518 321 467 321 c 0,159,160
 456 321 456 321 445 319 c 1,161,-1
 467 208 l 1,162,-1
 609 208 l 1,156,157
501 35 m 1,163,164
 551 46 551 46 582.5 83.5 c 128,-1,165
 614 121 614 121 614 172 c 0,166,167
 614 182 614 182 612 193 c 1,168,-1
 470 193 l 1,169,-1
 501 35 l 1,163,164
EndSplineSet
Validated: 33
EndChar

StartChar: equal
Encoding: 61 61 32
Width: 74
Flags: W
LayerCount: 2
Fore
SplineSet
0 808 m 1,0,-1
 131 808 l 1,1,-1
 131 793 l 1,2,-1
 0 793 l 1,3,-1
 0 808 l 1,0,-1
0 608 m 1,4,-1
 131 608 l 1,5,-1
 131 593 l 1,6,-1
 0 593 l 1,7,-1
 0 608 l 1,4,-1
0 208 m 1,8,-1
 131 208 l 1,9,-1
 131 193 l 1,10,-1
 0 193 l 1,11,-1
 0 208 l 1,8,-1
0 7 m 1,12,-1
 131 7 l 1,13,-1
 131 -8 l 1,14,-1
 0 -8 l 1,15,-1
 0 7 l 1,12,-1
0 454 m 0,16,17
 -3 471 -3 471 -17 479 c 128,-1,18
 -31 487 -31 487 -33.5 497.5 c 128,-1,19
 -36 508 -36 508 -36 517 c 0,20,21
 -36 553 -36 553 -6 553 c 0,22,23
 2 553 2 553 4 549 c 0,24,25
 18 520 18 520 21 513 c 0,26,27
 28 495 28 495 32 472 c 0,28,29
 38 437 38 437 31 407 c 1,30,-1
 131 407 l 1,31,-1
 131 392 l 1,32,-1
 28 392 l 1,33,-1
 28 391 l 1,34,35
 23 361 23 361 12 339 c 128,-1,36
 1 317 1 317 -11 317 c 0,37,38
 -22 317 -22 317 -36.5 336 c 128,-1,39
 -51 355 -51 355 -51 366 c 0,40,41
 -51 370 -51 370 -49 372 c 0,42,43
 -45 378 -45 378 -30 375 c 0,44,45
 -8 371 -8 371 -8 371 c 2,46,47
 0 371 0 371 3 392 c 1,48,-1
 0 392 l 1,49,-1
 0 407 l 1,50,-1
 4 407 l 1,51,52
 5 425 5 425 0 454 c 0,16,17
EndSplineSet
Validated: 33
EndChar

StartChar: greater
Encoding: 62 62 33
Width: 372
Flags: W
LayerCount: 2
Fore
SplineSet
3 808 m 1,0,-1
 404 808 l 1,1,-1
 404 793 l 1,2,-1
 3 793 l 1,3,-1
 3 808 l 1,0,-1
3 608 m 1,4,-1
 404 608 l 1,5,-1
 404 593 l 1,6,-1
 3 593 l 1,7,-1
 3 608 l 1,4,-1
3 407 m 1,8,-1
 404 407 l 1,9,-1
 404 392 l 1,10,-1
 3 392 l 1,11,-1
 3 407 l 1,8,-1
3 208 m 1,12,-1
 404 208 l 1,13,-1
 404 193 l 1,14,-1
 3 193 l 1,15,-1
 3 208 l 1,12,-1
3 7 m 1,16,-1
 79 7 l 1,17,-1
 79 143 l 1,18,19
 146 169 146 169 195 169 c 256,20,21
 244 169 244 169 307 143 c 1,22,-1
 307 51 l 1,23,24
 235 75 235 75 200 75 c 0,25,26
 174 75 174 75 126 62 c 1,27,-1
 126 7 l 1,28,-1
 404 7 l 1,29,-1
 404 -8 l 1,30,-1
 127 -8 l 1,31,-1
 127 -63 l 1,32,33
 171 -75 171 -75 196 -75 c 0,34,35
 230 -75 230 -75 307 -49 c 1,36,-1
 307 -141 l 1,37,38
 244 -167 244 -167 195 -167 c 256,39,40
 146 -167 146 -167 79 -141 c 1,41,-1
 79 -8 l 1,42,-1
 3 -8 l 1,43,-1
 3 7 l 1,16,-1
EndSplineSet
Validated: 1
EndChar

StartChar: question
Encoding: 63 63 34
Width: 222
Flags: W
LayerCount: 2
Fore
SplineSet
-70 7 m 1,0,-1
 207 7 l 1,1,-1
 207 193 l 1,2,-1
 -70 193 l 1,3,-1
 -70 208 l 1,4,-1
 207 208 l 1,5,-1
 207 392 l 1,6,-1
 -70 392 l 1,7,-1
 -70 407 l 1,8,-1
 207 407 l 1,9,-1
 207 593 l 1,10,-1
 -70 593 l 1,11,-1
 -70 608 l 1,12,-1
 207 608 l 1,13,-1
 207 793 l 1,14,-1
 -70 793 l 1,15,-1
 -70 808 l 1,16,-1
 207 808 l 1,17,-1
 207 808 l 1,18,-1
 222 808 l 1,19,-1
 222 -8 l 1,20,-1
 -70 -8 l 1,21,-1
 -70 7 l 1,0,-1
EndSplineSet
Validated: 1
EndChar

StartChar: at
Encoding: 64 64 35
Width: 372
Flags: W
LayerCount: 2
Fore
SplineSet
3 808 m 1,0,-1
 404 808 l 1,1,-1
 404 793 l 1,2,-1
 3 793 l 1,3,-1
 3 808 l 1,0,-1
3 608 m 1,4,-1
 79 608 l 1,5,-1
 79 743 l 1,6,7
 146 769 146 769 195 769 c 256,8,9
 244 769 244 769 307 743 c 1,10,-1
 307 651 l 1,11,12
 235 675 235 675 200 675 c 0,13,14
 174 675 174 675 126 662 c 1,15,-1
 126 608 l 1,16,-1
 404 608 l 1,17,-1
 404 593 l 1,18,-1
 127 593 l 1,19,-1
 127 537 l 1,20,21
 171 525 171 525 196 525 c 0,22,23
 230 525 230 525 307 551 c 1,24,-1
 307 459 l 1,25,26
 244 433 244 433 195 433 c 256,27,28
 146 433 146 433 79 459 c 1,29,-1
 79 593 l 1,30,-1
 3 593 l 1,31,-1
 3 608 l 1,4,-1
3 407 m 1,32,-1
 404 407 l 1,33,-1
 404 392 l 1,34,-1
 3 392 l 1,35,-1
 3 407 l 1,32,-1
3 208 m 1,36,-1
 404 208 l 1,37,-1
 404 193 l 1,38,-1
 3 193 l 1,39,-1
 3 208 l 1,36,-1
3 7 m 1,40,-1
 404 7 l 1,41,-1
 404 -8 l 1,42,-1
 3 -8 l 1,43,-1
 3 7 l 1,40,-1
EndSplineSet
Validated: 1
EndChar

StartChar: A
Encoding: 65 65 36
Width: 252
Flags: W
LayerCount: 2
Fore
SplineSet
0 808 m 1,0,-1
 301 808 l 1,1,-1
 301 793 l 1,2,-1
 0 793 l 1,3,-1
 0 808 l 1,0,-1
0 608 m 1,4,-1
 301 608 l 1,5,-1
 301 593 l 1,6,-1
 0 593 l 1,7,-1
 0 608 l 1,4,-1
58 564 m 1,8,-1
 58 407 l 1,9,-1
 301 407 l 1,10,-1
 301 392 l 1,11,-1
 58 392 l 1,12,-1
 58 208 l 1,13,-1
 301 208 l 1,14,-1
 301 193 l 1,15,-1
 58 193 l 1,16,-1
 58 83 l 1,17,18
 111 120 111 120 144 120 c 0,19,20
 186 120 186 120 200 70 c 0,21,22
 208 40 208 40 196 7 c 1,23,-1
 301 7 l 1,24,-1
 301 -8 l 1,25,-1
 189 -8 l 1,26,27
 164 -58 164 -58 107 -100 c 0,28,29
 80 -124 80 -124 44 -157 c 1,30,-1
 44 -8 l 1,31,-1
 0 -8 l 1,32,-1
 0 7 l 1,33,-1
 44 7 l 1,34,-1
 44 193 l 1,35,-1
 0 193 l 1,36,-1
 0 208 l 1,37,-1
 44 208 l 1,38,-1
 44 392 l 1,39,-1
 0 392 l 1,40,-1
 0 407 l 1,41,-1
 44 407 l 1,42,-1
 44 564 l 1,43,-1
 58 564 l 1,8,-1
58 -8 m 1,44,-1
 58 -119 l 2,45,46
 61 -121 61 -121 90 -85 c 0,47,48
 122 -44 122 -44 137 -8 c 1,49,-1
 58 -8 l 1,44,-1
58 61 m 1,50,-1
 58 7 l 1,51,-1
 143 7 l 1,52,53
 149 25 149 25 149 39 c 0,54,55
 149 67 149 67 127 80 c 0,56,57
 117 87 117 87 108 87 c 0,58,59
 87 87 87 87 58 61 c 1,50,-1
EndSplineSet
Validated: 33
EndChar

StartChar: B
Encoding: 66 66 37
Width: 252
Flags: W
LayerCount: 2
Fore
SplineSet
58 1284 m 1,0,-1
 58 808 l 1,1,-1
 65 808 l 1,2,3
 110 840 110 840 144 840 c 0,4,5
 177 840 177 840 193 808 c 1,6,-1
 301 808 l 1,7,-1
 301 793 l 1,8,-1
 199 793 l 1,9,-1
 200 790 l 2,10,11
 204 778 204 778 204 765 c 0,12,13
 204 691 204 691 107 620 c 0,14,15
 101 616 101 616 92 608 c 1,16,-1
 301 608 l 1,17,-1
 301 593 l 1,18,-1
 75 593 l 1,19,20
 62 580 62 580 44 563 c 1,21,-1
 44 593 l 1,22,-1
 0 593 l 1,23,-1
 0 608 l 1,24,-1
 44 608 l 1,25,-1
 44 793 l 1,26,-1
 0 793 l 1,27,-1
 0 808 l 1,28,-1
 44 808 l 1,29,-1
 44 1284 l 1,30,-1
 58 1284 l 1,0,-1
58 781 m 1,31,-1
 58 608 l 1,32,-1
 66 608 l 1,33,34
 92 635 92 635 116 673 c 0,35,36
 149 725 149 725 149 759 c 0,37,38
 149 780 149 780 137 793 c 1,39,-1
 73 793 l 1,40,41
 66 788 66 788 58 781 c 1,31,-1
0 407 m 1,42,-1
 301 407 l 1,43,-1
 301 392 l 1,44,-1
 0 392 l 1,45,-1
 0 407 l 1,42,-1
0 208 m 1,46,-1
 301 208 l 1,47,-1
 301 193 l 1,48,-1
 0 193 l 1,49,-1
 0 208 l 1,46,-1
0 7 m 1,50,-1
 301 7 l 1,51,-1
 301 -8 l 1,52,-1
 0 -8 l 1,53,-1
 0 7 l 1,50,-1
0 407 m 1,54,-1
 301 407 l 1,55,-1
 301 392 l 1,56,-1
 0 392 l 1,57,-1
 0 407 l 1,54,-1
0 208 m 1,58,-1
 301 208 l 1,59,-1
 301 193 l 1,60,-1
 0 193 l 1,61,-1
 0 208 l 1,58,-1
0 7 m 1,62,-1
 301 7 l 1,63,-1
 301 -8 l 1,64,-1
 0 -8 l 1,65,-1
 0 7 l 1,62,-1
EndSplineSet
Validated: 5
EndChar

StartChar: C
Encoding: 67 67 38
Width: 252
Flags: W
LayerCount: 2
Fore
SplineSet
58 1084 m 1,0,-1
 58 808 l 1,1,-1
 301 808 l 1,2,-1
 301 793 l 1,3,-1
 58 793 l 1,4,-1
 58 608 l 1,5,-1
 66 608 l 1,6,7
 110 640 110 640 144 640 c 0,8,9
 177 640 177 640 193 608 c 1,10,-1
 301 608 l 1,11,-1
 301 593 l 1,12,-1
 199 593 l 1,13,-1
 200 590 l 2,14,15
 204 578 204 578 204 565 c 0,16,17
 204 491 204 491 107 420 c 0,18,19
 101 416 101 416 91 407 c 1,20,-1
 301 407 l 1,21,-1
 301 392 l 1,22,-1
 75 392 l 1,23,24
 62 380 62 380 44 363 c 1,25,-1
 44 392 l 1,26,-1
 0 392 l 1,27,-1
 0 407 l 1,28,-1
 44 407 l 1,29,-1
 44 593 l 1,30,-1
 0 593 l 1,31,-1
 0 608 l 1,32,-1
 44 608 l 1,33,-1
 44 793 l 1,34,-1
 0 793 l 1,35,-1
 0 808 l 1,36,-1
 44 808 l 1,37,-1
 44 1084 l 1,38,-1
 58 1084 l 1,0,-1
58 581 m 1,39,-1
 58 407 l 1,40,-1
 66 407 l 1,41,42
 92 434 92 434 116 472 c 0,43,44
 149 525 149 525 149 559 c 0,45,46
 149 580 149 580 137 593 c 1,47,-1
 74 593 l 1,48,49
 66 588 66 588 58 581 c 1,39,-1
0 208 m 1,50,-1
 301 208 l 1,51,-1
 301 193 l 1,52,-1
 0 193 l 1,53,-1
 0 208 l 1,50,-1
0 7 m 1,54,-1
 301 7 l 1,55,-1
 301 -8 l 1,56,-1
 0 -8 l 1,57,-1
 0 7 l 1,54,-1
0 208 m 1,58,-1
 301 208 l 1,59,-1
 301 193 l 1,60,-1
 0 193 l 1,61,-1
 0 208 l 1,58,-1
0 7 m 1,62,-1
 301 7 l 1,63,-1
 301 -8 l 1,64,-1
 0 -8 l 1,65,-1
 0 7 l 1,62,-1
EndSplineSet
Validated: 5
EndChar

StartChar: D
Encoding: 68 68 39
Width: 15
Flags: W
LayerCount: 2
Fore
SplineSet
0 208 m 1,0,-1
 81 208 l 1,1,-1
 81 193 l 1,2,-1
 0 193 l 1,3,-1
 0 208 l 1,0,-1
11 7 m 1,4,-1
 81 7 l 1,5,-1
 81 -8 l 1,6,-1
 12 -8 l 1,7,8
 23 -181 23 -181 23 -226 c 0,9,10
 23 -248 23 -248 15 -248 c 0,11,12
 12 -248 12 -248 10 -240 c 0,13,14
 8 -189 8 -189 -3 -46 c 0,15,16
 -14 73 -14 73 -5 134 c 0,17,18
 -3 147 -3 147 2 147 c 0,19,20
 6 147 6 147 7 134 c 0,21,22
 7 95 7 95 10 18 c 2,23,-1
 11 7 l 1,4,-1
0 808 m 1,24,-1
 81 808 l 1,25,-1
 81 793 l 1,26,-1
 0 793 l 1,27,-1
 0 808 l 1,24,-1
0 608 m 1,28,-1
 81 608 l 1,29,-1
 81 593 l 1,30,-1
 0 593 l 1,31,-1
 0 608 l 1,28,-1
0 407 m 1,32,-1
 81 407 l 1,33,-1
 81 392 l 1,34,-1
 0 392 l 1,35,-1
 0 407 l 1,32,-1
0 808 m 1,36,-1
 81 808 l 1,37,-1
 81 793 l 1,38,-1
 0 793 l 1,39,-1
 0 808 l 1,36,-1
0 608 m 1,40,-1
 81 608 l 1,41,-1
 81 593 l 1,42,-1
 0 593 l 1,43,-1
 0 608 l 1,40,-1
0 407 m 1,44,-1
 81 407 l 1,45,-1
 81 392 l 1,46,-1
 0 392 l 1,47,-1
 0 407 l 1,44,-1
EndSplineSet
Validated: 37
EndChar

StartChar: E
Encoding: 69 69 40
Width: 15
Flags: W
LayerCount: 2
Fore
SplineSet
0 208 m 1,0,-1
 81 208 l 1,1,-1
 81 193 l 1,2,-1
 0 193 l 1,3,-1
 0 208 l 1,0,-1
0 7 m 1,4,-1
 3 7 l 1,5,6
 1 28 1 28 -3 47 c 0,7,8
 -14 107 -14 107 -5 137 c 0,9,10
 -4 142 -4 142 1 143 c 0,11,12
 5 145 5 145 7 137 c 0,13,14
 7 118 7 118 10 79 c 0,15,16
 16 37 16 37 20 7 c 1,17,-1
 81 7 l 1,18,-1
 81 -8 l 1,19,-1
 21 -8 l 1,20,21
 23 -24 23 -24 23 -28 c 0,22,23
 23 -39 23 -39 15 -39 c 0,24,25
 8 -39 8 -39 5 -8 c 1,26,-1
 0 -8 l 1,27,-1
 0 7 l 1,4,-1
0 808 m 1,28,-1
 81 808 l 1,29,-1
 81 793 l 1,30,-1
 0 793 l 1,31,-1
 0 808 l 1,28,-1
0 608 m 1,32,-1
 81 608 l 1,33,-1
 81 593 l 1,34,-1
 0 593 l 1,35,-1
 0 608 l 1,32,-1
0 407 m 1,36,-1
 81 407 l 1,37,-1
 81 392 l 1,38,-1
 0 392 l 1,39,-1
 0 407 l 1,36,-1
0 808 m 1,40,-1
 81 808 l 1,41,-1
 81 793 l 1,42,-1
 0 793 l 1,43,-1
 0 808 l 1,40,-1
0 608 m 1,44,-1
 81 608 l 1,45,-1
 81 593 l 1,46,-1
 0 593 l 1,47,-1
 0 608 l 1,44,-1
0 407 m 1,48,-1
 81 407 l 1,49,-1
 81 392 l 1,50,-1
 0 392 l 1,51,-1
 0 407 l 1,48,-1
EndSplineSet
Validated: 37
EndChar

StartChar: F
Encoding: 70 70 41
Width: 15
Flags: W
LayerCount: 2
Fore
SplineSet
0 7 m 1,0,-1
 1 7 l 1,1,2
 -1 32 -1 32 -3 54 c 0,3,4
 -14 173 -14 173 -5 234 c 0,5,6
 -3 247 -3 247 2 247 c 0,7,8
 9 247 9 247 8 208 c 1,9,-1
 81 208 l 1,10,-1
 81 193 l 1,11,-1
 7 193 l 1,12,13
 7 162 7 162 10 118 c 0,14,15
 13 69 13 69 17 7 c 1,16,-1
 81 7 l 1,17,-1
 81 -8 l 1,18,-1
 18 -8 l 1,19,20
 23 -106 23 -106 23 -126 c 0,21,22
 23 -148 23 -148 15 -148 c 0,23,24
 12 -148 12 -148 10 -140 c 0,25,26
 9 -137 9 -137 2 -8 c 1,27,-1
 0 -8 l 1,28,-1
 0 7 l 1,0,-1
0 808 m 1,29,-1
 81 808 l 1,30,-1
 81 793 l 1,31,-1
 0 793 l 1,32,-1
 0 808 l 1,29,-1
0 608 m 1,33,-1
 81 608 l 1,34,-1
 81 593 l 1,35,-1
 0 593 l 1,36,-1
 0 608 l 1,33,-1
0 407 m 1,37,-1
 81 407 l 1,38,-1
 81 392 l 1,39,-1
 0 392 l 1,40,-1
 0 407 l 1,37,-1
0 808 m 1,41,-1
 81 808 l 1,42,-1
 81 793 l 1,43,-1
 0 793 l 1,44,-1
 0 808 l 1,41,-1
0 608 m 1,45,-1
 81 608 l 1,46,-1
 81 593 l 1,47,-1
 0 593 l 1,48,-1
 0 608 l 1,45,-1
0 407 m 1,49,-1
 81 407 l 1,50,-1
 81 392 l 1,51,-1
 0 392 l 1,52,-1
 0 407 l 1,49,-1
EndSplineSet
Validated: 37
EndChar

StartChar: G
Encoding: 71 71 42
Width: 15
Flags: W
LayerCount: 2
Fore
SplineSet
0 407 m 1,0,-1
 81 407 l 1,1,-1
 81 392 l 1,2,-1
 0 392 l 1,3,-1
 0 407 l 1,0,-1
0 7 m 1,4,-1
 6 7 l 1,5,6
 4 53 4 53 -3 154 c 0,7,8
 -14 273 -14 273 -5 334 c 0,9,10
 -3 347 -3 347 2 347 c 0,11,12
 6 347 6 347 7 334 c 0,13,14
 7 295 7 295 10 218 c 1,15,-1
 11 208 l 1,16,-1
 81 208 l 1,17,-1
 81 193 l 1,18,-1
 12 193 l 1,19,20
 18 93 18 93 22 7 c 1,21,-1
 81 7 l 1,22,-1
 81 -8 l 1,23,-1
 23 -8 l 1,24,25
 23 -21 23 -21 23 -26 c 0,26,27
 23 -48 23 -48 15 -48 c 0,28,29
 9 -48 9 -48 6 -8 c 1,30,-1
 0 -8 l 1,31,-1
 0 7 l 1,4,-1
0 808 m 1,32,-1
 81 808 l 1,33,-1
 81 793 l 1,34,-1
 0 793 l 1,35,-1
 0 808 l 1,32,-1
0 608 m 1,36,-1
 81 608 l 1,37,-1
 81 593 l 1,38,-1
 0 593 l 1,39,-1
 0 608 l 1,36,-1
0 808 m 1,40,-1
 81 808 l 1,41,-1
 81 793 l 1,42,-1
 0 793 l 1,43,-1
 0 808 l 1,40,-1
0 608 m 1,44,-1
 81 608 l 1,45,-1
 81 593 l 1,46,-1
 0 593 l 1,47,-1
 0 608 l 1,44,-1
EndSplineSet
Validated: 37
EndChar

StartChar: H
Encoding: 72 72 43
Width: 15
Flags: W
LayerCount: 2
Fore
SplineSet
0 208 m 1,0,-1
 1 208 l 1,1,2
 -1 232 -1 232 -3 254 c 0,3,4
 -14 373 -14 373 -5 434 c 0,5,6
 -3 447 -3 447 2 447 c 0,7,8
 9 447 9 447 8 407 c 1,9,-1
 81 407 l 1,10,-1
 81 392 l 1,11,-1
 7 392 l 1,12,13
 7 362 7 362 10 318 c 0,14,15
 13 269 13 269 17 208 c 1,16,-1
 81 208 l 1,17,-1
 81 193 l 1,18,-1
 18 193 l 1,19,20
 23 94 23 94 23 74 c 0,21,22
 23 52 23 52 15 52 c 0,23,24
 12 52 12 52 10 60 c 0,25,26
 9 63 9 63 2 193 c 1,27,-1
 0 193 l 1,28,-1
 0 208 l 1,0,-1
0 7 m 1,29,-1
 81 7 l 1,30,-1
 81 -8 l 1,31,-1
 0 -8 l 1,32,-1
 0 7 l 1,29,-1
0 808 m 1,33,-1
 81 808 l 1,34,-1
 81 793 l 1,35,-1
 0 793 l 1,36,-1
 0 808 l 1,33,-1
0 608 m 1,37,-1
 81 608 l 1,38,-1
 81 593 l 1,39,-1
 0 593 l 1,40,-1
 0 608 l 1,37,-1
0 808 m 1,41,-1
 81 808 l 1,42,-1
 81 793 l 1,43,-1
 0 793 l 1,44,-1
 0 808 l 1,41,-1
0 608 m 1,45,-1
 81 608 l 1,46,-1
 81 593 l 1,47,-1
 0 593 l 1,48,-1
 0 608 l 1,45,-1
EndSplineSet
Validated: 37
EndChar

StartChar: I
Encoding: 73 73 44
Width: 15
Flags: W
LayerCount: 2
Fore
SplineSet
0 808 m 1,0,-1
 81 808 l 1,1,-1
 81 793 l 1,2,-1
 0 793 l 1,3,-1
 0 808 l 1,0,-1
7 608 m 1,4,-1
 81 608 l 1,5,-1
 81 593 l 1,6,-1
 8 593 l 1,7,8
 9 587 9 587 10 579 c 0,9,10
 23 486 23 486 23 472 c 0,11,12
 23 461 23 461 15 461 c 0,13,14
 12 461 12 461 10 465 c 0,15,16
 8 483 8 483 -3 547 c 0,17,18
 -14 607 -14 607 -5 637 c 0,19,20
 -4 642 -4 642 1 643 c 0,21,22
 5 645 5 645 7 637 c 0,23,24
 7 630 7 630 7 608 c 1,4,-1
0 407 m 1,25,-1
 81 407 l 1,26,-1
 81 392 l 1,27,-1
 0 392 l 1,28,-1
 0 407 l 1,25,-1
0 208 m 1,29,-1
 81 208 l 1,30,-1
 81 193 l 1,31,-1
 0 193 l 1,32,-1
 0 208 l 1,29,-1
0 7 m 1,33,-1
 81 7 l 1,34,-1
 81 -8 l 1,35,-1
 0 -8 l 1,36,-1
 0 7 l 1,33,-1
0 7 m 1,37,-1
 81 7 l 1,38,-1
 81 -8 l 1,39,-1
 0 -8 l 1,40,-1
 0 7 l 1,37,-1
EndSplineSet
Validated: 37
EndChar

StartChar: J
Encoding: 74 74 45
Width: 15
Flags: W
LayerCount: 2
Fore
SplineSet
0 608 m 1,0,-1
 81 608 l 1,1,-1
 81 593 l 1,2,-1
 0 593 l 1,3,-1
 0 608 l 1,0,-1
0 208 m 1,4,-1
 6 208 l 1,5,6
 4 253 4 253 -3 354 c 0,7,8
 -14 473 -14 473 -5 534 c 0,9,10
 -3 547 -3 547 2 547 c 0,11,12
 6 547 6 547 7 534 c 0,13,14
 7 495 7 495 10 418 c 2,15,-1
 11 407 l 1,16,-1
 81 407 l 1,17,-1
 81 392 l 1,18,-1
 12 392 l 1,19,20
 18 294 18 294 22 208 c 1,21,-1
 81 208 l 1,22,-1
 81 193 l 1,23,-1
 23 193 l 1,24,25
 23 179 23 179 23 174 c 0,26,27
 23 152 23 152 15 152 c 0,28,29
 9 152 9 152 6 193 c 1,30,-1
 0 193 l 1,31,-1
 0 208 l 1,4,-1
0 808 m 1,32,-1
 81 808 l 1,33,-1
 81 793 l 1,34,-1
 0 793 l 1,35,-1
 0 808 l 1,32,-1
0 7 m 1,36,-1
 81 7 l 1,37,-1
 81 -8 l 1,38,-1
 0 -8 l 1,39,-1
 0 7 l 1,36,-1
0 808 m 1,40,-1
 81 808 l 1,41,-1
 81 793 l 1,42,-1
 0 793 l 1,43,-1
 0 808 l 1,40,-1
0 7 m 1,44,-1
 81 7 l 1,45,-1
 81 -8 l 1,46,-1
 0 -8 l 1,47,-1
 0 7 l 1,44,-1
EndSplineSet
Validated: 37
EndChar

StartChar: K
Encoding: 75 75 46
Width: 15
Flags: W
LayerCount: 2
Fore
SplineSet
0 808 m 1,0,-1
 81 808 l 1,1,-1
 81 793 l 1,2,-1
 0 793 l 1,3,-1
 0 808 l 1,0,-1
0 407 m 1,4,-1
 1 407 l 1,5,6
 -1 432 -1 432 -3 454 c 0,7,8
 -14 573 -14 573 -5 634 c 0,9,10
 -3 647 -3 647 2 647 c 0,11,12
 9 647 9 647 8 608 c 1,13,-1
 81 608 l 1,14,-1
 81 593 l 1,15,-1
 7 593 l 1,16,17
 7 562 7 562 10 518 c 0,18,19
 13 469 13 469 17 407 c 1,20,-1
 81 407 l 1,21,-1
 81 392 l 1,22,-1
 18 392 l 1,23,24
 23 294 23 294 23 274 c 0,25,26
 23 252 23 252 15 252 c 0,27,28
 12 252 12 252 10 260 c 0,29,30
 9 263 9 263 2 392 c 1,31,-1
 0 392 l 1,32,-1
 0 407 l 1,4,-1
0 208 m 1,33,-1
 81 208 l 1,34,-1
 81 193 l 1,35,-1
 0 193 l 1,36,-1
 0 208 l 1,33,-1
0 7 m 1,37,-1
 81 7 l 1,38,-1
 81 -8 l 1,39,-1
 0 -8 l 1,40,-1
 0 7 l 1,37,-1
EndSplineSet
Validated: 33
EndChar

StartChar: L
Encoding: 76 76 47
Width: 15
Flags: W
LayerCount: 2
Fore
SplineSet
0 808 m 1,0,-1
 81 808 l 1,1,-1
 81 793 l 1,2,-1
 0 793 l 1,3,-1
 0 808 l 1,0,-1
0 407 m 1,4,-1
 6 407 l 1,5,6
 4 453 4 453 -3 554 c 0,7,8
 -14 673 -14 673 -5 734 c 0,9,10
 -3 747 -3 747 2 747 c 0,11,12
 6 747 6 747 7 734 c 0,13,14
 7 695 7 695 10 618 c 1,15,-1
 11 608 l 1,16,-1
 81 608 l 1,17,-1
 81 593 l 1,18,-1
 12 593 l 1,19,20
 18 494 18 494 22 407 c 1,21,-1
 81 407 l 1,22,-1
 81 392 l 1,23,-1
 23 392 l 1,24,25
 23 379 23 379 23 374 c 0,26,27
 23 352 23 352 15 352 c 0,28,29
 9 352 9 352 6 392 c 1,30,-1
 0 392 l 1,31,-1
 0 407 l 1,4,-1
0 208 m 1,32,-1
 81 208 l 1,33,-1
 81 193 l 1,34,-1
 0 193 l 1,35,-1
 0 208 l 1,32,-1
0 7 m 1,36,-1
 81 7 l 1,37,-1
 81 -8 l 1,38,-1
 0 -8 l 1,39,-1
 0 7 l 1,36,-1
0 208 m 1,40,-1
 81 208 l 1,41,-1
 81 193 l 1,42,-1
 0 193 l 1,43,-1
 0 208 l 1,40,-1
0 7 m 1,44,-1
 81 7 l 1,45,-1
 81 -8 l 1,46,-1
 0 -8 l 1,47,-1
 0 7 l 1,44,-1
EndSplineSet
Validated: 37
EndChar

StartChar: M
Encoding: 77 77 48
Width: 772
Flags: W
LayerCount: 2
Fore
SplineSet
542 811 m 2,0,-1
 542 808 l 1,1,-1
 841 808 l 1,2,-1
 841 793 l 1,3,-1
 541 793 l 1,4,5
 537 691 537 691 485 608 c 1,6,-1
 841 608 l 1,7,-1
 841 593 l 1,8,-1
 475 593 l 1,9,10
 446 552 446 552 407 521 c 1,11,-1
 429 407 l 1,12,-1
 841 407 l 1,13,-1
 841 392 l 1,14,-1
 538 392 l 1,15,16
 593 373 593 373 626 323 c 128,-1,17
 659 273 659 273 662 208 c 1,18,-1
 841 208 l 1,19,-1
 841 193 l 1,20,-1
 663 193 l 1,21,22
 662 123 662 123 623 74.5 c 128,-1,23
 584 26 584 26 517 7 c 1,24,-1
 841 7 l 1,25,-1
 841 -8 l 1,26,-1
 509 -8 l 1,27,-1
 539 -174 l 2,28,29
 541 -185 541 -185 541 -196 c 0,30,31
 541 -249 541 -249 494.5 -290 c 128,-1,32
 448 -331 448 -331 394 -331 c 0,33,34
 348 -331 348 -331 306 -292 c 128,-1,35
 264 -253 264 -253 264 -207 c 0,36,37
 264 -171 264 -171 290.5 -145 c 128,-1,38
 317 -119 317 -119 354 -119 c 0,39,40
 386 -119 386 -119 411 -142 c 128,-1,41
 436 -165 436 -165 436 -197 c 0,42,43
 436 -236 436 -236 408.5 -261 c 128,-1,44
 381 -286 381 -286 343 -281 c 1,45,46
 376 -312 376 -312 410 -312 c 0,47,48
 426 -312 426 -312 452 -299 c 0,49,50
 525 -262 525 -262 525 -194 c 0,51,52
 525 -183 525 -183 522 -171 c 2,53,-1
 493 -8 l 1,54,-1
 430 -8 l 2,55,56
 426 -8 426 -8 418.5 -8 c 128,-1,57
 411 -8 411 -8 408 -8 c 128,-1,58
 405 -8 405 -8 402 -8 c 128,-1,59
 399 -8 399 -8 397 -8 c 2,60,-1
 0 -8 l 1,61,-1
 0 7 l 1,62,-1
 321 7 l 1,63,64
 261 29 261 29 215.5 79 c 128,-1,65
 170 129 170 129 152 193 c 1,66,-1
 0 193 l 1,67,-1
 0 208 l 1,68,-1
 148 208 l 1,69,70
 141 238 141 238 141 268 c 0,71,72
 141 320 141 320 182 392 c 1,73,-1
 0 392 l 1,74,-1
 0 407 l 1,75,-1
 191 407 l 1,76,77
 238 487 238 487 320 575 c 0,78,79
 330 585 330 585 338 593 c 1,80,-1
 0 593 l 1,81,-1
 0 608 l 1,82,-1
 353 608 l 1,83,84
 365 620 365 620 369 623 c 1,85,86
 362 642 362 642 351 701 c 128,-1,87
 340 760 340 760 338 793 c 1,88,-1
 0 793 l 1,89,-1
 0 808 l 1,90,-1
 337 808 l 1,91,92
 339 873 339 873 368 947 c 0,93,94
 404 1040 404 1040 453 1040 c 0,95,96
 490 1040 490 1040 519 941 c 0,97,98
 542 863 542 863 542 811 c 2,0,-1
449 208 m 1,99,-1
 426 319 l 1,100,101
 383 314 383 314 352.5 282.5 c 128,-1,102
 322 251 322 251 315 208 c 1,103,-1
 449 208 l 1,99,-1
211 193 m 1,104,105
 220 121 220 121 283 67.5 c 128,-1,106
 346 14 346 14 418 14 c 0,107,108
 450 14 450 14 485 25 c 1,109,-1
 452 193 l 1,110,-1
 313 193 l 1,111,112
 312 188 312 188 312 184 c 0,113,114
 312 119 312 119 399 72 c 0,115,116
 424 58 424 58 437 57 c 1,117,-1
 437 50 l 1,118,119
 388 55 388 55 340.5 98.5 c 128,-1,120
 293 142 293 142 284 189 c 2,121,-1
 283 193 l 1,122,-1
 211 193 l 1,104,105
288 392 m 1,123,124
 209 292 209 292 210 211 c 2,125,-1
 210 208 l 1,126,-1
 281 208 l 1,127,128
 280 216 280 216 280 225 c 0,129,130
 280 282 280 282 312.5 328 c 128,-1,131
 345 374 345 374 398 392 c 1,132,-1
 288 392 l 1,123,124
393 507 m 1,133,134
 356 477 356 477 300 407 c 1,135,-1
 412 407 l 1,136,-1
 393 507 l 1,133,134
374 793 m 1,137,138
 369 772 369 772 369 761 c 0,139,140
 369 681 369 681 385 634 c 1,141,-1
 413 660 l 2,142,143
 419 663 419 663 437 684 c 0,144,145
 484 737 484 737 501 793 c 1,146,-1
 374 793 l 1,137,138
461 945 m 0,147,148
 437 945 437 945 411 898 c 0,149,150
 391 859 391 859 377 808 c 1,151,-1
 506 808 l 1,152,153
 510 828 510 828 510 848 c 0,154,155
 510 945 510 945 461 945 c 0,147,148
609 208 m 1,156,157
 597 257 597 257 557.5 289 c 128,-1,158
 518 321 518 321 467 321 c 0,159,160
 456 321 456 321 445 319 c 1,161,-1
 467 208 l 1,162,-1
 609 208 l 1,156,157
501 35 m 1,163,164
 551 46 551 46 582.5 83.5 c 128,-1,165
 614 121 614 121 614 172 c 0,166,167
 614 182 614 182 612 193 c 1,168,-1
 470 193 l 1,169,-1
 501 35 l 1,163,164
EndSplineSet
Validated: 33
EndChar

StartChar: N
Encoding: 78 78 49
Width: 252
Flags: W
LayerCount: 2
Fore
SplineSet
0 608 m 1,0,-1
 301 608 l 1,1,-1
 301 593 l 1,2,-1
 0 593 l 1,3,-1
 0 608 l 1,0,-1
58 1364 m 1,4,-1
 58 883 l 1,5,6
 111 920 111 920 144 920 c 0,7,8
 186 920 186 920 200 870 c 0,9,10
 208 841 208 841 196 808 c 1,11,-1
 301 808 l 1,12,-1
 301 793 l 1,13,-1
 190 793 l 1,14,15
 164 742 164 742 107 700 c 0,16,17
 80 676 80 676 44 643 c 1,18,-1
 44 793 l 1,19,-1
 0 793 l 1,20,-1
 0 808 l 1,21,-1
 44 808 l 1,22,-1
 44 1364 l 1,23,-1
 58 1364 l 1,4,-1
58 793 m 1,24,-1
 58 681 l 2,25,26
 61 679 61 679 90 715 c 0,27,28
 122 757 122 757 138 793 c 1,29,-1
 58 793 l 1,24,-1
58 861 m 1,30,-1
 58 808 l 1,31,-1
 143 808 l 1,32,33
 149 825 149 825 149 839 c 0,34,35
 149 867 149 867 127 880 c 0,36,37
 117 887 117 887 108 887 c 0,38,39
 87 887 87 887 58 861 c 1,30,-1
0 407 m 1,40,-1
 301 407 l 1,41,-1
 301 392 l 1,42,-1
 0 392 l 1,43,-1
 0 407 l 1,40,-1
0 208 m 1,44,-1
 301 208 l 1,45,-1
 301 193 l 1,46,-1
 0 193 l 1,47,-1
 0 208 l 1,44,-1
0 7 m 1,48,-1
 301 7 l 1,49,-1
 301 -8 l 1,50,-1
 0 -8 l 1,51,-1
 0 7 l 1,48,-1
0 407 m 1,52,-1
 301 407 l 1,53,-1
 301 392 l 1,54,-1
 0 392 l 1,55,-1
 0 407 l 1,52,-1
0 208 m 1,56,-1
 301 208 l 1,57,-1
 301 193 l 1,58,-1
 0 193 l 1,59,-1
 0 208 l 1,56,-1
0 7 m 1,60,-1
 301 7 l 1,61,-1
 301 -8 l 1,62,-1
 0 -8 l 1,63,-1
 0 7 l 1,60,-1
EndSplineSet
Validated: 37
EndChar

StartChar: O
Encoding: 79 79 50
Width: 15
Flags: W
LayerCount: 2
Fore
SplineSet
0 808 m 1,0,-1
 81 808 l 1,1,-1
 81 793 l 1,2,-1
 0 793 l 1,3,-1
 0 808 l 1,0,-1
0 608 m 1,4,-1
 3 608 l 1,5,6
 0 629 0 629 -3 647 c 0,7,8
 -14 707 -14 707 -5 737 c 0,9,10
 -4 742 -4 742 1 743 c 0,11,12
 5 745 5 745 7 737 c 0,13,14
 7 718 7 718 11.5 678 c 128,-1,15
 16 638 16 638 19 608 c 1,16,-1
 81 608 l 1,17,-1
 81 593 l 1,18,-1
 21 593 l 1,19,20
 23 577 23 577 23 572 c 0,21,22
 23 561 23 561 15 561 c 0,23,24
 8 561 8 561 5 593 c 1,25,-1
 0 593 l 1,26,-1
 0 608 l 1,4,-1
0 407 m 1,27,-1
 81 407 l 1,28,-1
 81 392 l 1,29,-1
 0 392 l 1,30,-1
 0 407 l 1,27,-1
0 208 m 1,31,-1
 81 208 l 1,32,-1
 81 193 l 1,33,-1
 0 193 l 1,34,-1
 0 208 l 1,31,-1
0 7 m 1,35,-1
 81 7 l 1,36,-1
 81 -8 l 1,37,-1
 0 -8 l 1,38,-1
 0 7 l 1,35,-1
EndSplineSet
Validated: 33
EndChar

StartChar: P
Encoding: 80 80 51
Width: 15
Flags: W
LayerCount: 2
Fore
SplineSet
7 808 m 1,0,-1
 81 808 l 1,1,-1
 81 793 l 1,2,-1
 8 793 l 1,3,4
 9 786 9 786 10 779 c 0,5,6
 23 686 23 686 23 672 c 0,7,8
 23 661 23 661 15 661 c 0,9,10
 12 661 12 661 10 665 c 0,11,12
 8 683 8 683 -3 747 c 0,13,14
 -14 807 -14 807 -5 837 c 0,15,16
 -4 842 -4 842 1 843 c 0,17,18
 5 845 5 845 7 837 c 0,19,20
 7 830 7 830 7 808 c 1,0,-1
0 608 m 1,21,-1
 81 608 l 1,22,-1
 81 593 l 1,23,-1
 0 593 l 1,24,-1
 0 608 l 1,21,-1
0 407 m 1,25,-1
 81 407 l 1,26,-1
 81 392 l 1,27,-1
 0 392 l 1,28,-1
 0 407 l 1,25,-1
0 208 m 1,29,-1
 81 208 l 1,30,-1
 81 193 l 1,31,-1
 0 193 l 1,32,-1
 0 208 l 1,29,-1
0 7 m 1,33,-1
 81 7 l 1,34,-1
 81 -8 l 1,35,-1
 0 -8 l 1,36,-1
 0 7 l 1,33,-1
EndSplineSet
Validated: 33
EndChar

StartChar: Q
Encoding: 81 81 52
Width: 15
Flags: W
LayerCount: 2
Fore
SplineSet
10 -235 m 0,0,1
 8 -217 8 -217 -3 -153 c 0,2,3
 -14 -93 -14 -93 -5 -63 c 0,4,5
 -4 -58 -4 -58 1 -57 c 0,6,7
 5 -55 5 -55 7 -63 c 0,8,9
 7 -82 7 -82 10 -121 c 0,10,11
 23 -214 23 -214 23 -228 c 0,12,13
 23 -239 23 -239 15 -239 c 0,14,15
 12 -239 12 -239 10 -235 c 0,0,1
0 808 m 1,16,-1
 81 808 l 1,17,-1
 81 793 l 1,18,-1
 0 793 l 1,19,-1
 0 808 l 1,16,-1
0 608 m 1,20,-1
 81 608 l 1,21,-1
 81 593 l 1,22,-1
 0 593 l 1,23,-1
 0 608 l 1,20,-1
0 407 m 1,24,-1
 81 407 l 1,25,-1
 81 392 l 1,26,-1
 0 392 l 1,27,-1
 0 407 l 1,24,-1
0 208 m 1,28,-1
 81 208 l 1,29,-1
 81 193 l 1,30,-1
 0 193 l 1,31,-1
 0 208 l 1,28,-1
0 7 m 1,32,-1
 81 7 l 1,33,-1
 81 -8 l 1,34,-1
 0 -8 l 1,35,-1
 0 7 l 1,32,-1
0 808 m 1,36,-1
 81 808 l 1,37,-1
 81 793 l 1,38,-1
 0 793 l 1,39,-1
 0 808 l 1,36,-1
0 608 m 1,40,-1
 81 608 l 1,41,-1
 81 593 l 1,42,-1
 0 593 l 1,43,-1
 0 608 l 1,40,-1
0 407 m 1,44,-1
 81 407 l 1,45,-1
 81 392 l 1,46,-1
 0 392 l 1,47,-1
 0 407 l 1,44,-1
0 208 m 1,48,-1
 81 208 l 1,49,-1
 81 193 l 1,50,-1
 0 193 l 1,51,-1
 0 208 l 1,48,-1
0 7 m 1,52,-1
 81 7 l 1,53,-1
 81 -8 l 1,54,-1
 0 -8 l 1,55,-1
 0 7 l 1,52,-1
EndSplineSet
Validated: 37
EndChar

StartChar: R
Encoding: 82 82 53
Width: 15
Flags: W
LayerCount: 2
Fore
SplineSet
7 208 m 1,0,-1
 81 208 l 1,1,-1
 81 193 l 1,2,-1
 8 193 l 1,3,4
 9 186 9 186 10 179 c 0,5,6
 23 86 23 86 23 72 c 0,7,8
 23 61 23 61 15 61 c 0,9,10
 12 61 12 61 10 65 c 0,11,12
 8 83 8 83 -3 147 c 0,13,14
 -14 207 -14 207 -5 237 c 0,15,16
 -4 242 -4 242 1 243 c 0,17,18
 5 245 5 245 7 237 c 0,19,20
 7 230 7 230 7 208 c 1,0,-1
0 7 m 1,21,-1
 81 7 l 1,22,-1
 81 -8 l 1,23,-1
 0 -8 l 1,24,-1
 0 7 l 1,21,-1
0 808 m 1,25,-1
 81 808 l 1,26,-1
 81 793 l 1,27,-1
 0 793 l 1,28,-1
 0 808 l 1,25,-1
0 608 m 1,29,-1
 81 608 l 1,30,-1
 81 593 l 1,31,-1
 0 593 l 1,32,-1
 0 608 l 1,29,-1
0 407 m 1,33,-1
 81 407 l 1,34,-1
 81 392 l 1,35,-1
 0 392 l 1,36,-1
 0 407 l 1,33,-1
0 808 m 1,37,-1
 81 808 l 1,38,-1
 81 793 l 1,39,-1
 0 793 l 1,40,-1
 0 808 l 1,37,-1
0 608 m 1,41,-1
 81 608 l 1,42,-1
 81 593 l 1,43,-1
 0 593 l 1,44,-1
 0 608 l 1,41,-1
0 407 m 1,45,-1
 81 407 l 1,46,-1
 81 392 l 1,47,-1
 0 392 l 1,48,-1
 0 407 l 1,45,-1
EndSplineSet
Validated: 37
EndChar

StartChar: S
Encoding: 83 83 54
Width: 252
Flags: W
LayerCount: 2
Fore
SplineSet
0 808 m 1,0,-1
 301 808 l 1,1,-1
 301 793 l 1,2,-1
 0 793 l 1,3,-1
 0 808 l 1,0,-1
58 674 m 1,4,-1
 58 608 l 1,5,-1
 301 608 l 1,6,-1
 301 593 l 1,7,-1
 58 593 l 1,8,-1
 58 407 l 1,9,-1
 301 407 l 1,10,-1
 301 392 l 1,11,-1
 58 392 l 1,12,-1
 58 208 l 1,13,-1
 80 208 l 1,14,15
 117 230 117 230 144 230 c 0,16,17
 172 230 172 230 187 208 c 1,18,-1
 301 208 l 1,19,-1
 301 193 l 1,20,-1
 196 193 l 1,21,22
 203 174 203 174 203 156 c 0,23,24
 203 88 203 88 102 7 c 1,25,-1
 301 7 l 1,26,-1
 301 -8 l 1,27,-1
 85 -8 l 1,28,29
 68 -25 68 -25 44 -47 c 1,30,-1
 44 -8 l 1,31,-1
 0 -8 l 1,32,-1
 0 7 l 1,33,-1
 44 7 l 1,34,-1
 44 193 l 1,35,-1
 0 193 l 1,36,-1
 0 208 l 1,37,-1
 44 208 l 1,38,-1
 44 392 l 1,39,-1
 0 392 l 1,40,-1
 0 407 l 1,41,-1
 44 407 l 1,42,-1
 44 593 l 1,43,-1
 0 593 l 1,44,-1
 0 608 l 1,45,-1
 44 608 l 1,46,-1
 44 674 l 1,47,-1
 58 674 l 1,4,-1
58 -8 m 1,48,-1
 58 -9 l 1,49,50
 59 -9 59 -9 60 -8 c 1,51,-1
 58 -8 l 1,48,-1
58 171 m 1,52,-1
 58 7 l 1,53,-1
 75 7 l 1,54,55
 149 92 149 92 149 149 c 0,56,57
 149 178 149 178 124 193 c 1,58,-1
 90 193 l 1,59,60
 76 186 76 186 58 171 c 1,52,-1
EndSplineSet
Validated: 1
EndChar

StartChar: T
Encoding: 84 84 55
Width: 15
Flags: W
LayerCount: 2
Fore
SplineSet
0 407 m 1,0,-1
 81 407 l 1,1,-1
 81 392 l 1,2,-1
 0 392 l 1,3,-1
 0 407 l 1,0,-1
0 208 m 1,4,-1
 3 208 l 1,5,6
 0 229 0 229 -3 247 c 0,7,8
 -14 307 -14 307 -5 337 c 0,9,10
 -4 342 -4 342 1 343 c 0,11,12
 5 345 5 345 7 337 c 0,13,14
 7 318 7 318 11.5 278 c 128,-1,15
 16 238 16 238 19 208 c 1,16,-1
 81 208 l 1,17,-1
 81 193 l 1,18,-1
 21 193 l 1,19,20
 23 176 23 176 23 172 c 0,21,22
 23 161 23 161 15 161 c 0,23,24
 8 161 8 161 5 193 c 1,25,-1
 0 193 l 1,26,-1
 0 208 l 1,4,-1
0 7 m 1,27,-1
 81 7 l 1,28,-1
 81 -8 l 1,29,-1
 0 -8 l 1,30,-1
 0 7 l 1,27,-1
0 808 m 1,31,-1
 81 808 l 1,32,-1
 81 793 l 1,33,-1
 0 793 l 1,34,-1
 0 808 l 1,31,-1
0 608 m 1,35,-1
 81 608 l 1,36,-1
 81 593 l 1,37,-1
 0 593 l 1,38,-1
 0 608 l 1,35,-1
0 808 m 1,39,-1
 81 808 l 1,40,-1
 81 793 l 1,41,-1
 0 793 l 1,42,-1
 0 808 l 1,39,-1
0 608 m 1,43,-1
 81 608 l 1,44,-1
 81 593 l 1,45,-1
 0 593 l 1,46,-1
 0 608 l 1,43,-1
EndSplineSet
Validated: 37
EndChar

StartChar: U
Encoding: 85 85 56
Width: 15
Flags: W
LayerCount: 2
Fore
SplineSet
0 808 m 1,0,-1
 81 808 l 1,1,-1
 81 793 l 1,2,-1
 0 793 l 1,3,-1
 0 808 l 1,0,-1
0 608 m 1,4,-1
 81 608 l 1,5,-1
 81 593 l 1,6,-1
 0 593 l 1,7,-1
 0 608 l 1,4,-1
0 407 m 1,8,-1
 3 407 l 1,9,10
 1 428 1 428 -3 447 c 0,11,12
 -14 507 -14 507 -5 537 c 0,13,14
 -4 542 -4 542 1 543 c 0,15,16
 5 545 5 545 7 537 c 0,17,18
 7 518 7 518 10 479 c 0,19,20
 16 437 16 437 20 407 c 1,21,-1
 81 407 l 1,22,-1
 81 392 l 1,23,-1
 21 392 l 1,24,25
 23 376 23 376 23 372 c 0,26,27
 23 361 23 361 15 361 c 0,28,29
 8 361 8 361 5 392 c 1,30,-1
 0 392 l 1,31,-1
 0 407 l 1,8,-1
0 208 m 1,32,-1
 81 208 l 1,33,-1
 81 193 l 1,34,-1
 0 193 l 1,35,-1
 0 208 l 1,32,-1
0 7 m 1,36,-1
 81 7 l 1,37,-1
 81 -8 l 1,38,-1
 0 -8 l 1,39,-1
 0 7 l 1,36,-1
EndSplineSet
Validated: 33
EndChar

StartChar: V
Encoding: 86 86 57
Width: 252
Flags: W
LayerCount: 2
Fore
SplineSet
0 407 m 1,0,-1
 301 407 l 1,1,-1
 301 392 l 1,2,-1
 0 392 l 1,3,-1
 0 407 l 1,0,-1
58 1164 m 1,4,-1
 58 808 l 1,5,-1
 301 808 l 1,6,-1
 301 793 l 1,7,-1
 58 793 l 1,8,-1
 58 683 l 1,9,10
 111 720 111 720 144 720 c 0,11,12
 186 720 186 720 200 670 c 0,13,14
 208 641 208 641 196 608 c 1,15,-1
 301 608 l 1,16,-1
 301 593 l 1,17,-1
 190 593 l 1,18,19
 164 542 164 542 107 500 c 0,20,21
 80 476 80 476 44 443 c 1,22,-1
 44 593 l 1,23,-1
 0 593 l 1,24,-1
 0 608 l 1,25,-1
 44 608 l 1,26,-1
 44 793 l 1,27,-1
 0 793 l 1,28,-1
 0 808 l 1,29,-1
 44 808 l 1,30,-1
 44 1164 l 1,31,-1
 58 1164 l 1,4,-1
58 593 m 1,32,-1
 58 481 l 2,33,34
 61 479 61 479 90 516 c 0,35,36
 122 557 122 557 138 593 c 1,37,-1
 58 593 l 1,32,-1
58 661 m 1,38,-1
 58 608 l 1,39,-1
 144 608 l 1,40,41
 149 625 149 625 149 639 c 0,42,43
 149 667 149 667 127 680 c 0,44,45
 117 687 117 687 108 687 c 0,46,47
 87 687 87 687 58 661 c 1,38,-1
0 208 m 1,48,-1
 301 208 l 1,49,-1
 301 193 l 1,50,-1
 0 193 l 1,51,-1
 0 208 l 1,48,-1
0 7 m 1,52,-1
 301 7 l 1,53,-1
 301 -8 l 1,54,-1
 0 -8 l 1,55,-1
 0 7 l 1,52,-1
0 208 m 1,56,-1
 301 208 l 1,57,-1
 301 193 l 1,58,-1
 0 193 l 1,59,-1
 0 208 l 1,56,-1
0 7 m 1,60,-1
 301 7 l 1,61,-1
 301 -8 l 1,62,-1
 0 -8 l 1,63,-1
 0 7 l 1,60,-1
EndSplineSet
Validated: 37
EndChar

StartChar: W
Encoding: 87 87 58
Width: 15
Flags: W
LayerCount: 2
Fore
SplineSet
0 808 m 1,0,-1
 81 808 l 1,1,-1
 81 793 l 1,2,-1
 0 793 l 1,3,-1
 0 808 l 1,0,-1
0 608 m 1,4,-1
 81 608 l 1,5,-1
 81 593 l 1,6,-1
 0 593 l 1,7,-1
 0 608 l 1,4,-1
0 407 m 1,8,-1
 81 407 l 1,9,-1
 81 392 l 1,10,-1
 0 392 l 1,11,-1
 0 407 l 1,8,-1
0 208 m 1,12,-1
 81 208 l 1,13,-1
 81 193 l 1,14,-1
 0 193 l 1,15,-1
 0 208 l 1,12,-1
7 7 m 1,16,-1
 81 7 l 1,17,-1
 81 -8 l 1,18,-1
 8 -8 l 1,19,20
 9 -17 9 -17 17 -69 c 0,21,22
 23 -108 23 -108 23 -128 c 0,23,24
 23 -139 23 -139 15 -139 c 0,25,26
 12 -139 12 -139 10 -135 c 0,27,28
 8 -117 8 -117 -3 -53 c 0,29,30
 -14 7 -14 7 -5 37 c 0,31,32
 -4 42 -4 42 1 43 c 0,33,34
 5 45 5 45 7 37 c 0,35,36
 7 29 7 29 7 7 c 1,16,-1
EndSplineSet
Validated: 33
EndChar

StartChar: X
Encoding: 88 88 59
Width: 252
Flags: W
LayerCount: 2
Fore
SplineSet
0 208 m 1,0,-1
 301 208 l 1,1,-1
 301 193 l 1,2,-1
 0 193 l 1,3,-1
 0 208 l 1,0,-1
0 7 m 1,4,-1
 301 7 l 1,5,-1
 301 -8 l 1,6,-1
 0 -8 l 1,7,-1
 0 7 l 1,4,-1
58 964 m 1,8,-1
 58 808 l 1,9,-1
 301 808 l 1,10,-1
 301 793 l 1,11,-1
 58 793 l 1,12,-1
 58 608 l 1,13,-1
 301 608 l 1,14,-1
 301 593 l 1,15,-1
 58 593 l 1,16,-1
 58 483 l 1,17,18
 111 520 111 520 144 520 c 0,19,20
 186 520 186 520 200 470 c 0,21,22
 208 440 208 440 196 407 c 1,23,-1
 301 407 l 1,24,-1
 301 392 l 1,25,-1
 189 392 l 1,26,27
 164 342 164 342 107 300 c 0,28,29
 80 276 80 276 44 243 c 1,30,-1
 44 392 l 1,31,-1
 0 392 l 1,32,-1
 0 407 l 1,33,-1
 44 407 l 1,34,-1
 44 593 l 1,35,-1
 0 593 l 1,36,-1
 0 608 l 1,37,-1
 44 608 l 1,38,-1
 44 793 l 1,39,-1
 0 793 l 1,40,-1
 0 808 l 1,41,-1
 44 808 l 1,42,-1
 44 964 l 1,43,-1
 58 964 l 1,8,-1
58 392 m 1,44,-1
 58 281 l 2,45,46
 61 279 61 279 90 315 c 0,47,48
 122 357 122 357 138 392 c 1,49,-1
 58 392 l 1,44,-1
58 461 m 1,50,-1
 58 407 l 1,51,-1
 143 407 l 1,52,53
 149 425 149 425 149 439 c 0,54,55
 149 467 149 467 127 480 c 0,56,57
 117 487 117 487 108 487 c 0,58,59
 87 487 87 487 58 461 c 1,50,-1
EndSplineSet
Validated: 33
EndChar

StartChar: Y
Encoding: 89 89 60
Width: 252
Flags: W
LayerCount: 2
Fore
SplineSet
58 874 m 1,0,-1
 58 808 l 1,1,-1
 301 808 l 1,2,-1
 301 793 l 1,3,-1
 58 793 l 1,4,-1
 58 608 l 1,5,-1
 301 608 l 1,6,-1
 301 593 l 1,7,-1
 58 593 l 1,8,-1
 58 407 l 1,9,-1
 80 407 l 1,10,11
 116 430 116 430 144 430 c 256,12,13
 172 430 172 430 188 407 c 1,14,-1
 301 407 l 1,15,-1
 301 392 l 1,16,-1
 196 392 l 1,17,18
 203 374 203 374 203 356 c 0,19,20
 203 284 203 284 107 210 c 1,21,-1
 103 208 l 1,22,-1
 301 208 l 1,23,-1
 301 193 l 1,24,-1
 86 193 l 1,25,26
 68 176 68 176 44 153 c 1,27,-1
 44 193 l 1,28,-1
 0 193 l 1,29,-1
 0 208 l 1,30,-1
 44 208 l 1,31,-1
 44 392 l 1,32,-1
 0 392 l 1,33,-1
 0 407 l 1,34,-1
 44 407 l 1,35,-1
 44 593 l 1,36,-1
 0 593 l 1,37,-1
 0 608 l 1,38,-1
 44 608 l 1,39,-1
 44 793 l 1,40,-1
 0 793 l 1,41,-1
 0 808 l 1,42,-1
 44 808 l 1,43,-1
 44 874 l 1,44,-1
 58 874 l 1,0,-1
58 193 m 1,45,-1
 58 191 l 1,46,47
 59 191 59 191 61 193 c 1,48,-1
 58 193 l 1,45,-1
58 371 m 1,49,-1
 58 208 l 1,50,-1
 75 208 l 1,51,52
 149 293 149 293 149 349 c 0,53,54
 149 377 149 377 124 392 c 1,55,-1
 90 392 l 1,56,57
 75 386 75 386 58 371 c 1,49,-1
0 7 m 1,58,-1
 301 7 l 1,59,-1
 301 -8 l 1,60,-1
 0 -8 l 1,61,-1
 0 7 l 1,58,-1
0 7 m 1,62,-1
 301 7 l 1,63,-1
 301 -8 l 1,64,-1
 0 -8 l 1,65,-1
 0 7 l 1,62,-1
EndSplineSet
Validated: 5
EndChar

StartChar: Z
Encoding: 90 90 61
Width: 15
Flags: W
LayerCount: 2
Fore
SplineSet
7 407 m 1,0,-1
 81 407 l 1,1,-1
 81 392 l 1,2,-1
 8 392 l 1,3,4
 9 386 9 386 10 379 c 0,5,6
 23 286 23 286 23 272 c 0,7,8
 23 260 23 260 14 260 c 0,9,10
 10 260 10 260 4 295 c 0,11,12
 1 321 1 321 -3 347 c 0,13,14
 -14 407 -14 407 -5 437 c 0,15,16
 -4 442 -4 442 1 443 c 0,17,18
 5 445 5 445 7 437 c 0,19,20
 7 430 7 430 7 407 c 1,0,-1
0 208 m 1,21,-1
 81 208 l 1,22,-1
 81 193 l 1,23,-1
 0 193 l 1,24,-1
 0 208 l 1,21,-1
0 808 m 1,25,-1
 81 808 l 1,26,-1
 81 793 l 1,27,-1
 0 793 l 1,28,-1
 0 808 l 1,25,-1
0 608 m 1,29,-1
 81 608 l 1,30,-1
 81 593 l 1,31,-1
 0 593 l 1,32,-1
 0 608 l 1,29,-1
0 7 m 1,33,-1
 81 7 l 1,34,-1
 81 -8 l 1,35,-1
 0 -8 l 1,36,-1
 0 7 l 1,33,-1
0 808 m 1,37,-1
 81 808 l 1,38,-1
 81 793 l 1,39,-1
 0 793 l 1,40,-1
 0 808 l 1,37,-1
0 608 m 1,41,-1
 81 608 l 1,42,-1
 81 593 l 1,43,-1
 0 593 l 1,44,-1
 0 608 l 1,41,-1
0 7 m 1,45,-1
 81 7 l 1,46,-1
 81 -8 l 1,47,-1
 0 -8 l 1,48,-1
 0 7 l 1,45,-1
EndSplineSet
Validated: 37
EndChar

StartChar: bracketleft
Encoding: 91 91 62
Width: 491
Flags: W
LayerCount: 2
Fore
SplineSet
0 808 m 1,0,-1
 571 808 l 1,1,-1
 571 793 l 1,2,-1
 0 793 l 1,3,-1
 0 808 l 1,0,-1
0 608 m 1,4,-1
 571 608 l 1,5,-1
 571 593 l 1,6,-1
 0 593 l 1,7,-1
 0 608 l 1,4,-1
0 7 m 1,8,-1
 571 7 l 1,9,-1
 571 -8 l 1,10,-1
 0 -8 l 1,11,-1
 0 7 l 1,8,-1
247 208 m 2,12,-1
 265 208 l 2,13,14
 295 211 295 211 313.5 237 c 128,-1,15
 332 263 332 263 332 294 c 0,16,17
 332 330 332 330 306.5 360 c 128,-1,18
 281 390 281 390 246 390 c 0,19,20
 212 390 212 390 189.5 364.5 c 128,-1,21
 167 339 167 339 167 305 c 0,22,23
 167 270 167 270 190 240.5 c 128,-1,24
 213 211 213 211 247 208 c 2,12,-1
168 208 m 1,25,26
 90 234 90 234 82 291 c 1,27,-1
 82 208 l 1,28,-1
 168 208 l 1,25,26
416 208 m 1,29,-1
 416 291 l 1,30,31
 408 233 408 233 337 208 c 1,32,-1
 416 208 l 1,29,-1
334 392 m 1,33,34
 408 369 408 369 416 314 c 1,35,-1
 416 392 l 1,36,-1
 334 392 l 1,33,34
81 392 m 1,37,-1
 82 317 l 1,38,39
 89 370 89 370 162 392 c 1,40,-1
 81 392 l 1,37,-1
82 188 m 1,41,-1
 59 188 l 1,42,-1
 59 193 l 1,43,-1
 0 193 l 1,44,-1
 0 208 l 1,45,-1
 59 208 l 1,46,-1
 59 392 l 1,47,-1
 0 392 l 1,48,-1
 0 407 l 1,49,-1
 59 407 l 1,50,-1
 59 411 l 1,51,-1
 81 411 l 1,52,-1
 81 407 l 1,53,-1
 416 407 l 1,54,-1
 416 411 l 1,55,-1
 439 411 l 1,56,-1
 439 407 l 1,57,-1
 571 407 l 1,58,-1
 571 392 l 1,59,-1
 439 392 l 1,60,-1
 439 208 l 1,61,-1
 571 208 l 1,62,-1
 571 193 l 1,63,-1
 439 193 l 1,64,-1
 439 188 l 1,65,-1
 416 188 l 1,66,-1
 416 193 l 1,67,-1
 82 193 l 1,68,-1
 82 188 l 1,41,-1
EndSplineSet
Validated: 1
EndChar

StartChar: backslash
Encoding: 92 92 63
Width: 0
Flags: WO
LayerCount: 2
Fore
SplineSet
-200 997 m 1,0,-1
 -19 997 l 1,1,-1
 -19 982 l 1,2,-1
 -200 982 l 1,3,-1
 -200 997 l 1,0,-1
-200 997 m 1,4,-1
 -19 997 l 1,5,-1
 -19 982 l 1,6,-1
 -200 982 l 1,7,-1
 -200 997 l 1,4,-1
EndSplineSet
EndChar

StartChar: bracketright
Encoding: 93 93 64
Width: 222
Flags: W
LayerCount: 2
Fore
SplineSet
0 808 m 1,0,-1
 291 808 l 1,1,-1
 291 793 l 1,2,-1
 0 793 l 1,3,-1
 0 808 l 1,0,-1
0 608 m 1,4,-1
 291 608 l 1,5,-1
 291 593 l 1,6,-1
 0 593 l 1,7,-1
 0 608 l 1,4,-1
0 407 m 1,8,-1
 291 407 l 1,9,-1
 291 392 l 1,10,-1
 0 392 l 1,11,-1
 0 407 l 1,8,-1
0 208 m 1,12,-1
 291 208 l 1,13,-1
 291 193 l 1,14,-1
 0 193 l 1,15,-1
 0 208 l 1,12,-1
0 7 m 1,16,-1
 291 7 l 1,17,-1
 291 -8 l 1,18,-1
 0 -8 l 1,19,-1
 0 7 l 1,16,-1
-60 -193 m 1,20,-1
 7 -193 l 1,21,22
 25 -147 25 -147 71 -120 c 0,23,24
 110 -98 110 -98 145 -98 c 0,25,26
 183 -98 183 -98 207 -121.5 c 128,-1,27
 231 -145 231 -145 231 -171 c 0,28,29
 230 -181 230 -181 227 -193 c 1,30,-1
 291 -193 l 1,31,-1
 291 -208 l 1,32,-1
 221 -208 l 1,33,34
 201 -253 201 -253 156 -279 c 0,35,36
 118 -300 118 -300 82 -300 c 0,37,38
 40 -300 40 -300 15 -270 c 1,39,-1
 15 -640 l 1,40,-1
 0 -640 l 1,41,-1
 0 -225 l 1,42,-1
 0 -225 l 1,43,44
 0 -217 0 -217 2 -208 c 1,45,-1
 -60 -208 l 1,46,-1
 -60 -193 l 1,20,-1
EndSplineSet
Validated: 5
EndChar

StartChar: asciicircum
Encoding: 94 94 65
Width: 222
Flags: W
LayerCount: 2
Fore
SplineSet
0 808 m 1,0,-1
 291 808 l 1,1,-1
 291 793 l 1,2,-1
 0 793 l 1,3,-1
 0 808 l 1,0,-1
0 608 m 1,4,-1
 291 608 l 1,5,-1
 291 593 l 1,6,-1
 0 593 l 1,7,-1
 0 608 l 1,4,-1
0 407 m 1,8,-1
 291 407 l 1,9,-1
 291 392 l 1,10,-1
 0 392 l 1,11,-1
 0 407 l 1,8,-1
0 208 m 1,12,-1
 291 208 l 1,13,-1
 291 193 l 1,14,-1
 0 193 l 1,15,-1
 0 208 l 1,12,-1
0 7 m 1,16,-1
 291 7 l 1,17,-1
 291 -8 l 1,18,-1
 0 -8 l 1,19,-1
 0 7 l 1,16,-1
-60 -193 m 1,20,-1
 291 -193 l 1,21,-1
 291 -208 l 1,22,-1
 187 -208 l 1,23,24
 231 -230 231 -230 231 -271 c 0,25,26
 230 -300 230 -300 208 -330.5 c 128,-1,27
 186 -361 186 -361 156 -379 c 0,28,29
 118 -400 118 -400 82 -400 c 0,30,31
 40 -400 40 -400 15 -370 c 1,32,-1
 15 -651 l 1,33,-1
 0 -651 l 1,34,-1
 0 -325 l 1,35,-1
 0 -325 l 1,36,37
 1 -287 1 -287 31 -253 c 0,38,39
 58 -223 58 -223 97 -208 c 1,40,-1
 -60 -208 l 1,41,-1
 -60 -193 l 1,20,-1
EndSplineSet
Validated: 5
EndChar

StartChar: underscore
Encoding: 95 95 66
Width: 773
Flags: W
LayerCount: 2
Fore
SplineSet
0 808 m 1,0,-1
 801 808 l 1,1,-1
 801 793 l 1,2,-1
 0 793 l 1,3,-1
 0 808 l 1,0,-1
0 608 m 1,4,-1
 801 608 l 1,5,-1
 801 593 l 1,6,-1
 0 593 l 1,7,-1
 0 608 l 1,4,-1
0 407 m 1,8,-1
 801 407 l 1,9,-1
 801 392 l 1,10,-1
 0 392 l 1,11,-1
 0 407 l 1,8,-1
0 208 m 1,12,-1
 801 208 l 1,13,-1
 801 193 l 1,14,-1
 0 193 l 1,15,-1
 0 208 l 1,12,-1
0 7 m 1,16,-1
 801 7 l 1,17,-1
 801 -8 l 1,18,-1
 0 -8 l 1,19,-1
 0 7 l 1,16,-1
0 808 m 1,20,-1
 801 808 l 1,21,-1
 801 793 l 1,22,-1
 0 793 l 1,23,-1
 0 808 l 1,20,-1
0 608 m 1,24,-1
 801 608 l 1,25,-1
 801 593 l 1,26,-1
 0 593 l 1,27,-1
 0 608 l 1,24,-1
0 407 m 1,28,-1
 801 407 l 1,29,-1
 801 392 l 1,30,-1
 0 392 l 1,31,-1
 0 407 l 1,28,-1
0 208 m 1,32,-1
 801 208 l 1,33,-1
 801 193 l 1,34,-1
 0 193 l 1,35,-1
 0 208 l 1,32,-1
0 7 m 1,36,-1
 801 7 l 1,37,-1
 801 -8 l 1,38,-1
 0 -8 l 1,39,-1
 0 7 l 1,36,-1
EndSplineSet
Validated: 5
EndChar

StartChar: grave
Encoding: 96 96 67
Width: 158
Flags: W
LayerCount: 2
Fore
SplineSet
0 808 m 1,0,-1
 221 808 l 1,1,-1
 221 793 l 1,2,-1
 0 793 l 1,3,-1
 0 808 l 1,0,-1
0 608 m 1,4,-1
 221 608 l 1,5,-1
 221 593 l 1,6,-1
 0 593 l 1,7,-1
 0 608 l 1,4,-1
0 407 m 1,8,-1
 221 407 l 1,9,-1
 221 392 l 1,10,-1
 0 392 l 1,11,-1
 0 407 l 1,8,-1
0 208 m 1,12,-1
 221 208 l 1,13,-1
 221 193 l 1,14,-1
 0 193 l 1,15,-1
 0 208 l 1,12,-1
0 7 m 1,16,-1
 221 7 l 1,17,-1
 221 -8 l 1,18,-1
 0 -8 l 1,19,-1
 0 7 l 1,16,-1
0 808 m 1,20,-1
 221 808 l 1,21,-1
 221 793 l 1,22,-1
 0 793 l 1,23,-1
 0 808 l 1,20,-1
0 608 m 1,24,-1
 221 608 l 1,25,-1
 221 593 l 1,26,-1
 0 593 l 1,27,-1
 0 608 l 1,24,-1
0 407 m 1,28,-1
 221 407 l 1,29,-1
 221 392 l 1,30,-1
 0 392 l 1,31,-1
 0 407 l 1,28,-1
0 208 m 1,32,-1
 221 208 l 1,33,-1
 221 193 l 1,34,-1
 0 193 l 1,35,-1
 0 208 l 1,32,-1
0 7 m 1,36,-1
 221 7 l 1,37,-1
 221 -8 l 1,38,-1
 0 -8 l 1,39,-1
 0 7 l 1,36,-1
48 -300 m 256,40,41
 48 -268 48 -268 80 -268 c 256,42,43
 112 -268 112 -268 112 -300 c 256,44,45
 112 -332 112 -332 80 -332 c 256,46,47
 48 -332 48 -332 48 -300 c 256,40,41
EndSplineSet
Validated: 5
EndChar

StartChar: a
Encoding: 97 97 68
Width: 252
Flags: W
LayerCount: 2
Fore
SplineSet
0 808 m 1,0,-1
 301 808 l 1,1,-1
 301 793 l 1,2,-1
 0 793 l 1,3,-1
 0 808 l 1,0,-1
0 608 m 1,4,-1
 301 608 l 1,5,-1
 301 593 l 1,6,-1
 0 593 l 1,7,-1
 0 608 l 1,4,-1
58 474 m 1,8,-1
 58 407 l 1,9,-1
 301 407 l 1,10,-1
 301 392 l 1,11,-1
 58 392 l 1,12,-1
 58 208 l 1,13,-1
 301 208 l 1,14,-1
 301 193 l 1,15,-1
 58 193 l 1,16,-1
 58 7 l 1,17,-1
 79 7 l 1,18,19
 116 30 116 30 144 30 c 256,20,21
 172 30 172 30 188 7 c 1,22,-1
 301 7 l 1,23,-1
 301 -8 l 1,24,-1
 196 -8 l 1,25,26
 203 -26 203 -26 203 -44 c 0,27,28
 203 -119 203 -119 107 -190 c 0,29,30
 80 -214 80 -214 44 -247 c 1,31,-1
 44 -8 l 1,32,-1
 0 -8 l 1,33,-1
 0 7 l 1,34,-1
 44 7 l 1,35,-1
 44 193 l 1,36,-1
 0 193 l 1,37,-1
 0 208 l 1,38,-1
 44 208 l 1,39,-1
 44 392 l 1,40,-1
 0 392 l 1,41,-1
 0 407 l 1,42,-1
 44 407 l 1,43,-1
 44 474 l 1,44,-1
 58 474 l 1,8,-1
58 -29 m 1,45,-1
 58 -209 l 1,46,47
 63 -213 63 -213 105 -155 c 0,48,49
 149 -92 149 -92 149 -51 c 0,50,51
 149 -24 149 -24 127 -10 c 1,52,-1
 125 -8 l 1,53,-1
 89 -8 l 1,54,55
 75 -14 75 -14 58 -29 c 1,45,-1
EndSplineSet
Validated: 33
EndChar

StartChar: b
Encoding: 98 98 69
Width: 158
Flags: W
LayerCount: 2
Fore
SplineSet
0 808 m 1,0,-1
 221 808 l 1,1,-1
 221 793 l 1,2,-1
 0 793 l 1,3,-1
 0 808 l 1,0,-1
0 608 m 1,4,-1
 221 608 l 1,5,-1
 221 593 l 1,6,-1
 0 593 l 1,7,-1
 0 608 l 1,4,-1
0 407 m 1,8,-1
 221 407 l 1,9,-1
 221 392 l 1,10,-1
 0 392 l 1,11,-1
 0 407 l 1,8,-1
0 208 m 1,12,-1
 221 208 l 1,13,-1
 221 193 l 1,14,-1
 0 193 l 1,15,-1
 0 208 l 1,12,-1
0 7 m 1,16,-1
 221 7 l 1,17,-1
 221 -8 l 1,18,-1
 0 -8 l 1,19,-1
 0 7 l 1,16,-1
0 808 m 1,20,-1
 221 808 l 1,21,-1
 221 793 l 1,22,-1
 0 793 l 1,23,-1
 0 808 l 1,20,-1
0 608 m 1,24,-1
 221 608 l 1,25,-1
 221 593 l 1,26,-1
 0 593 l 1,27,-1
 0 608 l 1,24,-1
0 407 m 1,28,-1
 221 407 l 1,29,-1
 221 392 l 1,30,-1
 0 392 l 1,31,-1
 0 407 l 1,28,-1
0 208 m 1,32,-1
 221 208 l 1,33,-1
 221 193 l 1,34,-1
 0 193 l 1,35,-1
 0 208 l 1,32,-1
0 7 m 1,36,-1
 221 7 l 1,37,-1
 221 -8 l 1,38,-1
 0 -8 l 1,39,-1
 0 7 l 1,36,-1
48 900 m 256,40,41
 48 932 48 932 80 932 c 256,42,43
 112 932 112 932 112 900 c 256,44,45
 112 868 112 868 80 868 c 256,46,47
 48 868 48 868 48 900 c 256,40,41
EndSplineSet
Validated: 5
EndChar

StartChar: c
Encoding: 99 99 70
Width: 158
Flags: W
LayerCount: 2
Fore
SplineSet
0 808 m 1,0,-1
 221 808 l 1,1,-1
 221 793 l 1,2,-1
 0 793 l 1,3,-1
 0 808 l 1,0,-1
0 608 m 1,4,-1
 221 608 l 1,5,-1
 221 593 l 1,6,-1
 0 593 l 1,7,-1
 0 608 l 1,4,-1
0 407 m 1,8,-1
 221 407 l 1,9,-1
 221 392 l 1,10,-1
 0 392 l 1,11,-1
 0 407 l 1,8,-1
0 208 m 1,12,-1
 221 208 l 1,13,-1
 221 193 l 1,14,-1
 0 193 l 1,15,-1
 0 208 l 1,12,-1
0 7 m 1,16,-1
 221 7 l 1,17,-1
 221 -8 l 1,18,-1
 0 -8 l 1,19,-1
 0 7 l 1,16,-1
0 808 m 1,20,-1
 221 808 l 1,21,-1
 221 793 l 1,22,-1
 0 793 l 1,23,-1
 0 808 l 1,20,-1
0 608 m 1,24,-1
 221 608 l 1,25,-1
 221 593 l 1,26,-1
 0 593 l 1,27,-1
 0 608 l 1,24,-1
0 407 m 1,28,-1
 221 407 l 1,29,-1
 221 392 l 1,30,-1
 0 392 l 1,31,-1
 0 407 l 1,28,-1
0 208 m 1,32,-1
 221 208 l 1,33,-1
 221 193 l 1,34,-1
 0 193 l 1,35,-1
 0 208 l 1,32,-1
0 7 m 1,36,-1
 221 7 l 1,37,-1
 221 -8 l 1,38,-1
 0 -8 l 1,39,-1
 0 7 l 1,36,-1
48 500 m 256,40,41
 48 532 48 532 80 532 c 256,42,43
 112 532 112 532 112 500 c 256,44,45
 112 468 112 468 80 468 c 256,46,47
 48 468 48 468 48 500 c 256,40,41
EndSplineSet
Validated: 5
EndChar

StartChar: d
Encoding: 100 100 71
Width: 15
Flags: W
LayerCount: 2
Fore
SplineSet
0 208 m 1,0,-1
 81 208 l 1,1,-1
 81 193 l 1,2,-1
 0 193 l 1,3,-1
 0 208 l 1,0,-1
14 7 m 1,4,-1
 81 7 l 1,5,-1
 81 -8 l 1,6,-1
 15 -8 l 1,7,8
 25 -115 25 -115 25 -128 c 0,9,10
 25 -140 25 -140 17 -140 c 0,11,12
 12 -140 12 -140 10 -133 c 0,13,14
 8 -100 8 -100 -3 1 c 0,15,16
 -14 90 -14 90 -5 136 c 0,17,18
 -3 145 -3 145 2 145 c 0,19,20
 6 145 6 145 7 136 c 0,21,22
 7 106 7 106 10 49 c 2,23,-1
 14 7 l 1,4,-1
0 808 m 1,24,-1
 81 808 l 1,25,-1
 81 793 l 1,26,-1
 0 793 l 1,27,-1
 0 808 l 1,24,-1
0 608 m 1,28,-1
 81 608 l 1,29,-1
 81 593 l 1,30,-1
 0 593 l 1,31,-1
 0 608 l 1,28,-1
0 407 m 1,32,-1
 81 407 l 1,33,-1
 81 392 l 1,34,-1
 0 392 l 1,35,-1
 0 407 l 1,32,-1
0 808 m 1,36,-1
 81 808 l 1,37,-1
 81 793 l 1,38,-1
 0 793 l 1,39,-1
 0 808 l 1,36,-1
0 608 m 1,40,-1
 81 608 l 1,41,-1
 81 593 l 1,42,-1
 0 593 l 1,43,-1
 0 608 l 1,40,-1
0 407 m 1,44,-1
 81 407 l 1,45,-1
 81 392 l 1,46,-1
 0 392 l 1,47,-1
 0 407 l 1,44,-1
EndSplineSet
Validated: 37
EndChar

StartChar: e
Encoding: 101 101 72
Width: 222
Flags: W
LayerCount: 2
Fore
SplineSet
125 7 m 1,0,-1
 291 7 l 1,1,-1
 291 -8 l 1,2,-1
 15 -8 l 1,3,-1
 15 -600 l 1,4,-1
 0 -600 l 1,5,-1
 0 75 l 1,6,-1
 0 75 l 1,7,8
 1 113 1 113 31 147 c 0,9,10
 59 178 59 178 98 193 c 1,11,-1
 0 193 l 1,12,-1
 0 208 l 1,13,-1
 291 208 l 1,14,-1
 291 193 l 1,15,-1
 186 193 l 1,16,17
 231 170 231 170 231 129 c 0,18,19
 230 91 230 91 196 54 c 0,20,21
 165 21 165 21 125 7 c 1,0,-1
15 7 m 1,22,-1
 45 7 l 1,23,24
 27 15 27 15 15 30 c 1,25,-1
 15 7 l 1,22,-1
0 808 m 1,26,-1
 291 808 l 1,27,-1
 291 793 l 1,28,-1
 0 793 l 1,29,-1
 0 808 l 1,26,-1
0 608 m 1,30,-1
 291 608 l 1,31,-1
 291 593 l 1,32,-1
 0 593 l 1,33,-1
 0 608 l 1,30,-1
0 407 m 1,34,-1
 291 407 l 1,35,-1
 291 392 l 1,36,-1
 0 392 l 1,37,-1
 0 407 l 1,34,-1
0 808 m 1,38,-1
 291 808 l 1,39,-1
 291 793 l 1,40,-1
 0 793 l 1,41,-1
 0 808 l 1,38,-1
0 608 m 1,42,-1
 291 608 l 1,43,-1
 291 593 l 1,44,-1
 0 593 l 1,45,-1
 0 608 l 1,42,-1
0 407 m 1,46,-1
 291 407 l 1,47,-1
 291 392 l 1,48,-1
 0 392 l 1,49,-1
 0 407 l 1,46,-1
EndSplineSet
Validated: 5
EndChar

StartChar: f
Encoding: 102 102 73
Width: 15
Flags: W
LayerCount: 2
Fore
SplineSet
0 7 m 1,0,-1
 6 7 l 1,1,2
 4 35 4 35 -3 101 c 0,3,4
 -14 190 -14 190 -5 236 c 0,5,6
 -3 245 -3 245 2 245 c 0,7,8
 6 245 6 245 7 236 c 128,-1,9
 8 227 8 227 8 208 c 1,10,-1
 81 208 l 1,11,-1
 81 193 l 1,12,-1
 7 193 l 1,13,14
 13 131 13 131 23 7 c 1,15,-1
 81 7 l 1,16,-1
 81 -8 l 1,17,-1
 24 -8 l 1,18,19
 25 -23 25 -23 25 -28 c 0,20,21
 25 -40 25 -40 17 -40 c 0,22,23
 10 -40 10 -40 7 -8 c 1,24,-1
 0 -8 l 1,25,-1
 0 7 l 1,0,-1
0 808 m 1,26,-1
 81 808 l 1,27,-1
 81 793 l 1,28,-1
 0 793 l 1,29,-1
 0 808 l 1,26,-1
0 608 m 1,30,-1
 81 608 l 1,31,-1
 81 593 l 1,32,-1
 0 593 l 1,33,-1
 0 608 l 1,30,-1
0 407 m 1,34,-1
 81 407 l 1,35,-1
 81 392 l 1,36,-1
 0 392 l 1,37,-1
 0 407 l 1,34,-1
0 808 m 1,38,-1
 81 808 l 1,39,-1
 81 793 l 1,40,-1
 0 793 l 1,41,-1
 0 808 l 1,38,-1
0 608 m 1,42,-1
 81 608 l 1,43,-1
 81 593 l 1,44,-1
 0 593 l 1,45,-1
 0 608 l 1,42,-1
0 407 m 1,46,-1
 81 407 l 1,47,-1
 81 392 l 1,48,-1
 0 392 l 1,49,-1
 0 407 l 1,46,-1
EndSplineSet
Validated: 37
EndChar

StartChar: g
Encoding: 103 103 74
Width: 15
Flags: W
LayerCount: 2
Fore
SplineSet
0 407 m 1,0,-1
 81 407 l 1,1,-1
 81 392 l 1,2,-1
 0 392 l 1,3,-1
 0 407 l 1,0,-1
14 208 m 1,4,-1
 81 208 l 1,5,-1
 81 193 l 1,6,-1
 15 193 l 1,7,8
 25 85 25 85 25 72 c 0,9,10
 25 60 25 60 17 60 c 0,11,12
 12 60 12 60 10 68 c 0,13,14
 8 100 8 100 -3 201 c 0,15,16
 -14 290 -14 290 -5 336 c 0,17,18
 -3 345 -3 345 2 345 c 0,19,20
 6 345 6 345 7 336 c 0,21,22
 7 306 7 306 10 249 c 2,23,-1
 14 208 l 1,4,-1
0 7 m 1,24,-1
 81 7 l 1,25,-1
 81 -8 l 1,26,-1
 0 -8 l 1,27,-1
 0 7 l 1,24,-1
0 808 m 1,28,-1
 81 808 l 1,29,-1
 81 793 l 1,30,-1
 0 793 l 1,31,-1
 0 808 l 1,28,-1
0 608 m 1,32,-1
 81 608 l 1,33,-1
 81 593 l 1,34,-1
 0 593 l 1,35,-1
 0 608 l 1,32,-1
0 808 m 1,36,-1
 81 808 l 1,37,-1
 81 793 l 1,38,-1
 0 793 l 1,39,-1
 0 808 l 1,36,-1
0 608 m 1,40,-1
 81 608 l 1,41,-1
 81 593 l 1,42,-1
 0 593 l 1,43,-1
 0 608 l 1,40,-1
EndSplineSet
Validated: 37
EndChar

StartChar: h
Encoding: 104 104 75
Width: 15
Flags: W
LayerCount: 2
Fore
SplineSet
0 208 m 1,0,-1
 6 208 l 1,1,2
 4 235 4 235 -3 301 c 0,3,4
 -14 390 -14 390 -5 436 c 0,5,6
 -3 445 -3 445 2 445 c 0,7,8
 6 445 6 445 7 436 c 128,-1,9
 8 427 8 427 8 407 c 1,10,-1
 81 407 l 1,11,-1
 81 392 l 1,12,-1
 7 392 l 1,13,14
 13 331 13 331 23 208 c 1,15,-1
 81 208 l 1,16,-1
 81 193 l 1,17,-1
 24 193 l 1,18,19
 25 177 25 177 25 172 c 0,20,21
 25 160 25 160 17 160 c 0,22,23
 10 160 10 160 7 193 c 1,24,-1
 0 193 l 1,25,-1
 0 208 l 1,0,-1
0 7 m 1,26,-1
 81 7 l 1,27,-1
 81 -8 l 1,28,-1
 0 -8 l 1,29,-1
 0 7 l 1,26,-1
0 808 m 1,30,-1
 81 808 l 1,31,-1
 81 793 l 1,32,-1
 0 793 l 1,33,-1
 0 808 l 1,30,-1
0 608 m 1,34,-1
 81 608 l 1,35,-1
 81 593 l 1,36,-1
 0 593 l 1,37,-1
 0 608 l 1,34,-1
0 808 m 1,38,-1
 81 808 l 1,39,-1
 81 793 l 1,40,-1
 0 793 l 1,41,-1
 0 808 l 1,38,-1
0 608 m 1,42,-1
 81 608 l 1,43,-1
 81 593 l 1,44,-1
 0 593 l 1,45,-1
 0 608 l 1,42,-1
EndSplineSet
Validated: 37
EndChar

StartChar: i
Encoding: 105 105 76
Width: 222
Flags: W
LayerCount: 2
Fore
SplineSet
0 808 m 1,0,-1
 291 808 l 1,1,-1
 291 793 l 1,2,-1
 0 793 l 1,3,-1
 0 808 l 1,0,-1
15 7 m 1,4,-1
 291 7 l 1,5,-1
 291 -8 l 1,6,-1
 15 -8 l 1,7,-1
 15 -226 l 1,8,-1
 0 -226 l 1,9,-1
 0 575 l 1,10,-1
 0 575 l 1,11,12
 0 584 0 584 2 593 c 1,13,-1
 0 593 l 1,14,-1
 0 608 l 1,15,-1
 7 608 l 1,16,17
 25 654 25 654 71 680 c 0,18,19
 110 702 110 702 145 702 c 0,20,21
 183 702 183 702 207 678.5 c 128,-1,22
 231 655 231 655 231 629 c 0,23,24
 230 619 230 619 227 608 c 1,25,-1
 291 608 l 1,26,-1
 291 593 l 1,27,-1
 222 593 l 1,28,29
 201 547 201 547 156 521 c 0,30,31
 118 500 118 500 82 500 c 0,32,33
 40 500 40 500 15 530 c 1,34,-1
 15 407 l 1,35,-1
 291 407 l 1,36,-1
 291 392 l 1,37,-1
 15 392 l 1,38,-1
 15 208 l 1,39,-1
 291 208 l 1,40,-1
 291 193 l 1,41,-1
 15 193 l 1,42,-1
 15 7 l 1,4,-1
EndSplineSet
Validated: 5
EndChar

StartChar: j
Encoding: 106 106 77
Width: 15
Flags: W
LayerCount: 2
Fore
SplineSet
0 608 m 1,0,-1
 81 608 l 1,1,-1
 81 593 l 1,2,-1
 0 593 l 1,3,-1
 0 608 l 1,0,-1
14 407 m 1,4,-1
 81 407 l 1,5,-1
 81 392 l 1,6,-1
 15 392 l 1,7,8
 25 285 25 285 25 272 c 0,9,10
 25 260 25 260 17 260 c 0,11,12
 12 260 12 260 10 268 c 0,13,14
 8 300 8 300 -3 401 c 0,15,16
 -14 490 -14 490 -5 536 c 0,17,18
 -3 545 -3 545 2 545 c 0,19,20
 6 545 6 545 7 536 c 0,21,22
 7 506 7 506 10 449 c 2,23,-1
 14 407 l 1,4,-1
0 208 m 1,24,-1
 81 208 l 1,25,-1
 81 193 l 1,26,-1
 0 193 l 1,27,-1
 0 208 l 1,24,-1
0 808 m 1,28,-1
 81 808 l 1,29,-1
 81 793 l 1,30,-1
 0 793 l 1,31,-1
 0 808 l 1,28,-1
0 7 m 1,32,-1
 81 7 l 1,33,-1
 81 -8 l 1,34,-1
 0 -8 l 1,35,-1
 0 7 l 1,32,-1
0 808 m 1,36,-1
 81 808 l 1,37,-1
 81 793 l 1,38,-1
 0 793 l 1,39,-1
 0 808 l 1,36,-1
0 7 m 1,40,-1
 81 7 l 1,41,-1
 81 -8 l 1,42,-1
 0 -8 l 1,43,-1
 0 7 l 1,40,-1
EndSplineSet
Validated: 37
EndChar

StartChar: k
Encoding: 107 107 78
Width: 15
Flags: W
LayerCount: 2
Fore
SplineSet
0 407 m 1,0,-1
 6 407 l 1,1,2
 4 435 4 435 -3 501 c 0,3,4
 -14 590 -14 590 -5 636 c 0,5,6
 -3 645 -3 645 2 645 c 0,7,8
 6 645 6 645 7 636 c 128,-1,9
 8 627 8 627 8 608 c 1,10,-1
 81 608 l 1,11,-1
 81 593 l 1,12,-1
 7 593 l 1,13,14
 13 531 13 531 23 407 c 1,15,-1
 81 407 l 1,16,-1
 81 392 l 1,17,-1
 24 392 l 1,18,19
 25 377 25 377 25 372 c 0,20,21
 25 360 25 360 17 360 c 0,22,23
 10 360 10 360 7 392 c 1,24,-1
 0 392 l 1,25,-1
 0 407 l 1,0,-1
0 808 m 1,26,-1
 81 808 l 1,27,-1
 81 793 l 1,28,-1
 0 793 l 1,29,-1
 0 808 l 1,26,-1
0 208 m 1,30,-1
 81 208 l 1,31,-1
 81 193 l 1,32,-1
 0 193 l 1,33,-1
 0 208 l 1,30,-1
0 7 m 1,34,-1
 81 7 l 1,35,-1
 81 -8 l 1,36,-1
 0 -8 l 1,37,-1
 0 7 l 1,34,-1
0 808 m 1,38,-1
 81 808 l 1,39,-1
 81 793 l 1,40,-1
 0 793 l 1,41,-1
 0 808 l 1,38,-1
0 208 m 1,42,-1
 81 208 l 1,43,-1
 81 193 l 1,44,-1
 0 193 l 1,45,-1
 0 208 l 1,42,-1
0 7 m 1,46,-1
 81 7 l 1,47,-1
 81 -8 l 1,48,-1
 0 -8 l 1,49,-1
 0 7 l 1,46,-1
EndSplineSet
Validated: 37
EndChar

StartChar: l
Encoding: 108 108 79
Width: 15
Flags: W
LayerCount: 2
Fore
SplineSet
0 808 m 1,0,-1
 81 808 l 1,1,-1
 81 793 l 1,2,-1
 0 793 l 1,3,-1
 0 808 l 1,0,-1
14 608 m 1,4,-1
 81 608 l 1,5,-1
 81 593 l 1,6,-1
 15 593 l 1,7,8
 25 485 25 485 25 472 c 0,9,10
 25 460 25 460 17 460 c 0,11,12
 12 460 12 460 10 468 c 0,13,14
 8 500 8 500 -3 601 c 0,15,16
 -14 690 -14 690 -5 736 c 0,17,18
 -3 745 -3 745 2 745 c 0,19,20
 6 745 6 745 7 736 c 0,21,22
 7 706 7 706 10 649 c 2,23,-1
 14 608 l 1,4,-1
0 407 m 1,24,-1
 81 407 l 1,25,-1
 81 392 l 1,26,-1
 0 392 l 1,27,-1
 0 407 l 1,24,-1
0 208 m 1,28,-1
 81 208 l 1,29,-1
 81 193 l 1,30,-1
 0 193 l 1,31,-1
 0 208 l 1,28,-1
0 7 m 1,32,-1
 81 7 l 1,33,-1
 81 -8 l 1,34,-1
 0 -8 l 1,35,-1
 0 7 l 1,32,-1
0 7 m 1,36,-1
 81 7 l 1,37,-1
 81 -8 l 1,38,-1
 0 -8 l 1,39,-1
 0 7 l 1,36,-1
EndSplineSet
Validated: 37
EndChar

StartChar: m
Encoding: 109 109 80
Width: 252
Flags: W
LayerCount: 2
Fore
SplineSet
0 808 m 1,0,-1
 301 808 l 1,1,-1
 301 793 l 1,2,-1
 0 793 l 1,3,-1
 0 808 l 1,0,-1
0 608 m 1,4,-1
 301 608 l 1,5,-1
 301 593 l 1,6,-1
 0 593 l 1,7,-1
 0 608 l 1,4,-1
0 407 m 1,8,-1
 301 407 l 1,9,-1
 301 392 l 1,10,-1
 0 392 l 1,11,-1
 0 407 l 1,8,-1
0 208 m 1,12,-1
 301 208 l 1,13,-1
 301 193 l 1,14,-1
 0 193 l 1,15,-1
 0 208 l 1,12,-1
0 7 m 1,16,-1
 301 7 l 1,17,-1
 301 -8 l 1,18,-1
 0 -8 l 1,19,-1
 0 7 l 1,16,-1
0 808 m 1,20,-1
 301 808 l 1,21,-1
 301 793 l 1,22,-1
 0 793 l 1,23,-1
 0 808 l 1,20,-1
0 608 m 1,24,-1
 301 608 l 1,25,-1
 301 593 l 1,26,-1
 0 593 l 1,27,-1
 0 608 l 1,24,-1
0 407 m 1,28,-1
 301 407 l 1,29,-1
 301 392 l 1,30,-1
 0 392 l 1,31,-1
 0 407 l 1,28,-1
0 208 m 1,32,-1
 301 208 l 1,33,-1
 301 193 l 1,34,-1
 0 193 l 1,35,-1
 0 208 l 1,32,-1
0 7 m 1,36,-1
 301 7 l 1,37,-1
 301 -8 l 1,38,-1
 0 -8 l 1,39,-1
 0 7 l 1,36,-1
58 1344 m 1,40,-1
 58 1073 l 1,41,42
 111 1110 111 1110 144 1110 c 0,43,44
 186 1110 186 1110 200 1060 c 0,45,46
 203 1048 203 1048 203 1036 c 0,47,48
 203 961 203 961 107 890 c 0,49,50
 80 866 80 866 44 833 c 1,51,-1
 44 1344 l 1,52,-1
 58 1344 l 1,40,-1
58 1051 m 1,53,-1
 58 871 l 1,54,55
 63 867 63 867 105 925 c 0,56,57
 149 989 149 989 149 1029 c 0,58,59
 149 1057 149 1057 127 1070 c 0,60,61
 117 1077 117 1077 108 1077 c 0,62,63
 87 1077 87 1077 58 1051 c 1,53,-1
EndSplineSet
Validated: 37
EndChar

StartChar: n
Encoding: 110 110 81
Width: 158
Flags: W
LayerCount: 2
Fore
SplineSet
0 808 m 1,0,-1
 221 808 l 1,1,-1
 221 793 l 1,2,-1
 0 793 l 1,3,-1
 0 808 l 1,0,-1
0 608 m 1,4,-1
 221 608 l 1,5,-1
 221 593 l 1,6,-1
 0 593 l 1,7,-1
 0 608 l 1,4,-1
0 407 m 1,8,-1
 221 407 l 1,9,-1
 221 392 l 1,10,-1
 0 392 l 1,11,-1
 0 407 l 1,8,-1
0 208 m 1,12,-1
 221 208 l 1,13,-1
 221 193 l 1,14,-1
 0 193 l 1,15,-1
 0 208 l 1,12,-1
0 7 m 1,16,-1
 221 7 l 1,17,-1
 221 -8 l 1,18,-1
 0 -8 l 1,19,-1
 0 7 l 1,16,-1
0 808 m 1,20,-1
 221 808 l 1,21,-1
 221 793 l 1,22,-1
 0 793 l 1,23,-1
 0 808 l 1,20,-1
0 608 m 1,24,-1
 221 608 l 1,25,-1
 221 593 l 1,26,-1
 0 593 l 1,27,-1
 0 608 l 1,24,-1
0 407 m 1,28,-1
 221 407 l 1,29,-1
 221 392 l 1,30,-1
 0 392 l 1,31,-1
 0 407 l 1,28,-1
0 208 m 1,32,-1
 221 208 l 1,33,-1
 221 193 l 1,34,-1
 0 193 l 1,35,-1
 0 208 l 1,32,-1
0 7 m 1,36,-1
 221 7 l 1,37,-1
 221 -8 l 1,38,-1
 0 -8 l 1,39,-1
 0 7 l 1,36,-1
48 1100 m 256,40,41
 48 1132 48 1132 80 1132 c 256,42,43
 112 1132 112 1132 112 1100 c 256,44,45
 112 1068 112 1068 80 1068 c 256,46,47
 48 1068 48 1068 48 1100 c 256,40,41
EndSplineSet
Validated: 5
EndChar

StartChar: o
Encoding: 111 111 82
Width: 222
Flags: W
LayerCount: 2
Fore
SplineSet
15 608 m 1,0,-1
 43 608 l 1,1,2
 26 616 26 616 15 630 c 1,3,-1
 15 608 l 1,0,-1
15 7 m 1,4,-1
 291 7 l 1,5,-1
 291 -8 l 1,6,-1
 15 -8 l 1,7,-1
 15 -126 l 1,8,-1
 0 -126 l 1,9,-1
 0 675 l 1,10,-1
 0 675 l 1,11,12
 1 713 1 713 32 747 c 0,13,14
 59 778 59 778 98 793 c 1,15,-1
 0 793 l 1,16,-1
 0 808 l 1,17,-1
 291 808 l 1,18,-1
 291 793 l 1,19,-1
 186 793 l 1,20,21
 231 771 231 771 231 729 c 0,22,23
 230 691 230 691 198.5 656.5 c 128,-1,24
 167 622 167 622 127 608 c 1,25,-1
 291 608 l 1,26,-1
 291 593 l 1,27,-1
 15 593 l 1,28,-1
 15 407 l 1,29,-1
 291 407 l 1,30,-1
 291 392 l 1,31,-1
 15 392 l 1,32,-1
 15 208 l 1,33,-1
 291 208 l 1,34,-1
 291 193 l 1,35,-1
 15 193 l 1,36,-1
 15 7 l 1,4,-1
EndSplineSet
Validated: 5
EndChar

StartChar: p
Encoding: 112 112 83
Width: 222
Flags: W
LayerCount: 2
Fore
SplineSet
15 7 m 1,0,-1
 291 7 l 1,1,-1
 291 -8 l 1,2,-1
 15 -8 l 1,3,-1
 15 -26 l 1,4,-1
 0 -26 l 1,5,-1
 0 775 l 1,6,-1
 0 775 l 1,7,8
 0 784 0 784 2 793 c 1,9,-1
 0 793 l 1,10,-1
 0 808 l 1,11,-1
 7 808 l 1,12,13
 25 854 25 854 71 880 c 0,14,15
 110 902 110 902 145 902 c 0,16,17
 183 902 183 902 207 878.5 c 128,-1,18
 231 855 231 855 231 829 c 0,19,20
 230 819 230 819 227 808 c 1,21,-1
 291 808 l 1,22,-1
 291 793 l 1,23,-1
 222 793 l 1,24,25
 201 747 201 747 156 721 c 0,26,27
 118 700 118 700 82 700 c 0,28,29
 40 700 40 700 15 730 c 1,30,-1
 15 608 l 1,31,-1
 291 608 l 1,32,-1
 291 593 l 1,33,-1
 15 593 l 1,34,-1
 15 407 l 1,35,-1
 291 407 l 1,36,-1
 291 392 l 1,37,-1
 15 392 l 1,38,-1
 15 208 l 1,39,-1
 291 208 l 1,40,-1
 291 193 l 1,41,-1
 15 193 l 1,42,-1
 15 7 l 1,0,-1
EndSplineSet
Validated: 5
EndChar

StartChar: q
Encoding: 113 113 84
Width: 222
Flags: W
LayerCount: 2
Fore
SplineSet
0 7 m 1,0,-1
 291 7 l 1,1,-1
 291 -8 l 1,2,-1
 187 -8 l 1,3,4
 231 -30 231 -30 231 -71 c 0,5,6
 230 -100 230 -100 208 -130.5 c 128,-1,7
 186 -161 186 -161 156 -179 c 0,8,9
 118 -200 118 -200 82 -200 c 0,10,11
 40 -200 40 -200 15 -170 c 1,12,-1
 15 -600 l 1,13,-1
 0 -600 l 1,14,-1
 0 -125 l 1,15,-1
 0 -125 l 1,16,17
 1 -87 1 -87 31 -53 c 0,18,19
 58 -23 58 -23 97 -8 c 1,20,-1
 0 -8 l 1,21,-1
 0 7 l 1,0,-1
0 808 m 1,22,-1
 291 808 l 1,23,-1
 291 793 l 1,24,-1
 0 793 l 1,25,-1
 0 808 l 1,22,-1
0 608 m 1,26,-1
 291 608 l 1,27,-1
 291 593 l 1,28,-1
 0 593 l 1,29,-1
 0 608 l 1,26,-1
0 407 m 1,30,-1
 291 407 l 1,31,-1
 291 392 l 1,32,-1
 0 392 l 1,33,-1
 0 407 l 1,30,-1
0 208 m 1,34,-1
 291 208 l 1,35,-1
 291 193 l 1,36,-1
 0 193 l 1,37,-1
 0 208 l 1,34,-1
0 808 m 1,38,-1
 291 808 l 1,39,-1
 291 793 l 1,40,-1
 0 793 l 1,41,-1
 0 808 l 1,38,-1
0 608 m 1,42,-1
 291 608 l 1,43,-1
 291 593 l 1,44,-1
 0 593 l 1,45,-1
 0 608 l 1,42,-1
0 407 m 1,46,-1
 291 407 l 1,47,-1
 291 392 l 1,48,-1
 0 392 l 1,49,-1
 0 407 l 1,46,-1
0 208 m 1,50,-1
 291 208 l 1,51,-1
 291 193 l 1,52,-1
 0 193 l 1,53,-1
 0 208 l 1,50,-1
EndSplineSet
Validated: 5
EndChar

StartChar: r
Encoding: 114 114 85
Width: 222
Flags: W
LayerCount: 2
Fore
SplineSet
15 7 m 1,0,-1
 291 7 l 1,1,-1
 291 -8 l 1,2,-1
 15 -8 l 1,3,-1
 15 -600 l 1,4,-1
 0 -600 l 1,5,-1
 0 175 l 1,6,-1
 0 175 l 1,7,8
 0 184 0 184 2 193 c 1,9,-1
 0 193 l 1,10,-1
 0 208 l 1,11,-1
 7 208 l 1,12,13
 25 254 25 254 71 280 c 0,14,15
 110 302 110 302 145 302 c 0,16,17
 183 302 183 302 207 278.5 c 128,-1,18
 231 255 231 255 231 229 c 0,19,20
 230 219 230 219 227 208 c 1,21,-1
 291 208 l 1,22,-1
 291 193 l 1,23,-1
 222 193 l 1,24,25
 201 147 201 147 156 121 c 0,26,27
 118 100 118 100 82 100 c 0,28,29
 40 100 40 100 15 130 c 1,30,-1
 15 7 l 1,0,-1
0 808 m 1,31,-1
 291 808 l 1,32,-1
 291 793 l 1,33,-1
 0 793 l 1,34,-1
 0 808 l 1,31,-1
0 608 m 1,35,-1
 291 608 l 1,36,-1
 291 593 l 1,37,-1
 0 593 l 1,38,-1
 0 608 l 1,35,-1
0 407 m 1,39,-1
 291 407 l 1,40,-1
 291 392 l 1,41,-1
 0 392 l 1,42,-1
 0 407 l 1,39,-1
0 808 m 1,43,-1
 291 808 l 1,44,-1
 291 793 l 1,45,-1
 0 793 l 1,46,-1
 0 808 l 1,43,-1
0 608 m 1,47,-1
 291 608 l 1,48,-1
 291 593 l 1,49,-1
 0 593 l 1,50,-1
 0 608 l 1,47,-1
0 407 m 1,51,-1
 291 407 l 1,52,-1
 291 392 l 1,53,-1
 0 392 l 1,54,-1
 0 407 l 1,51,-1
EndSplineSet
Validated: 5
EndChar

StartChar: s
Encoding: 115 115 86
Width: 15
Flags: W
LayerCount: 2
Fore
SplineSet
8 7 m 1,0,-1
 81 7 l 1,1,-1
 81 -8 l 1,2,-1
 7 -8 l 1,3,4
 8 -43 8 -43 16.5 -116.5 c 128,-1,5
 25 -190 25 -190 25 -228 c 0,6,7
 25 -240 25 -240 17 -240 c 0,8,9
 12 -240 12 -240 10 -233 c 0,10,11
 8 -200 8 -200 -3 -100 c 0,12,13
 -14 -10 -14 -10 -5 36 c 0,14,15
 -3 45 -3 45 2 45 c 0,16,17
 6 45 6 45 7 36 c 128,-1,18
 8 27 8 27 8 7 c 1,0,-1
0 808 m 1,19,-1
 81 808 l 1,20,-1
 81 793 l 1,21,-1
 0 793 l 1,22,-1
 0 808 l 1,19,-1
0 608 m 1,23,-1
 81 608 l 1,24,-1
 81 593 l 1,25,-1
 0 593 l 1,26,-1
 0 608 l 1,23,-1
0 407 m 1,27,-1
 81 407 l 1,28,-1
 81 392 l 1,29,-1
 0 392 l 1,30,-1
 0 407 l 1,27,-1
0 208 m 1,31,-1
 81 208 l 1,32,-1
 81 193 l 1,33,-1
 0 193 l 1,34,-1
 0 208 l 1,31,-1
0 808 m 1,35,-1
 81 808 l 1,36,-1
 81 793 l 1,37,-1
 0 793 l 1,38,-1
 0 808 l 1,35,-1
0 608 m 1,39,-1
 81 608 l 1,40,-1
 81 593 l 1,41,-1
 0 593 l 1,42,-1
 0 608 l 1,39,-1
0 407 m 1,43,-1
 81 407 l 1,44,-1
 81 392 l 1,45,-1
 0 392 l 1,46,-1
 0 407 l 1,43,-1
0 208 m 1,47,-1
 81 208 l 1,48,-1
 81 193 l 1,49,-1
 0 193 l 1,50,-1
 0 208 l 1,47,-1
EndSplineSet
Validated: 37
EndChar

StartChar: t
Encoding: 116 116 87
Width: 222
Flags: W
LayerCount: 2
Fore
SplineSet
0 608 m 1,0,-1
 291 608 l 1,1,-1
 291 593 l 1,2,-1
 0 593 l 1,3,-1
 0 608 l 1,0,-1
15 208 m 1,4,-1
 44 208 l 1,5,6
 26 216 26 216 15 230 c 1,7,-1
 15 208 l 1,4,-1
15 7 m 1,8,-1
 291 7 l 1,9,-1
 291 -8 l 1,10,-1
 15 -8 l 1,11,-1
 15 -526 l 1,12,-1
 0 -526 l 1,13,-1
 0 275 l 1,14,-1
 0 275 l 1,15,16
 1 313 1 313 31 347 c 0,17,18
 59 378 59 378 98 392 c 1,19,-1
 0 392 l 1,20,-1
 0 407 l 1,21,-1
 291 407 l 1,22,-1
 291 392 l 1,23,-1
 186 392 l 1,24,25
 231 370 231 370 231 329 c 0,26,27
 230 291 230 291 196 255 c 0,28,29
 166 222 166 222 126 208 c 1,30,-1
 291 208 l 1,31,-1
 291 193 l 1,32,-1
 15 193 l 1,33,-1
 15 7 l 1,8,-1
0 808 m 1,34,-1
 291 808 l 1,35,-1
 291 793 l 1,36,-1
 0 793 l 1,37,-1
 0 808 l 1,34,-1
0 808 m 1,38,-1
 291 808 l 1,39,-1
 291 793 l 1,40,-1
 0 793 l 1,41,-1
 0 808 l 1,38,-1
EndSplineSet
Validated: 5
EndChar

StartChar: u
Encoding: 117 117 88
Width: 222
Flags: W
LayerCount: 2
Fore
SplineSet
0 808 m 1,0,-1
 291 808 l 1,1,-1
 291 793 l 1,2,-1
 0 793 l 1,3,-1
 0 808 l 1,0,-1
15 407 m 1,4,-1
 44 407 l 1,5,6
 27 415 27 415 15 430 c 1,7,-1
 15 407 l 1,4,-1
15 7 m 1,8,-1
 291 7 l 1,9,-1
 291 -8 l 1,10,-1
 15 -8 l 1,11,-1
 15 -326 l 1,12,-1
 0 -326 l 1,13,-1
 0 475 l 1,14,-1
 0 475 l 1,15,16
 1 513 1 513 32 548 c 0,17,18
 60 579 60 579 99 593 c 1,19,-1
 0 593 l 1,20,-1
 0 608 l 1,21,-1
 291 608 l 1,22,-1
 291 593 l 1,23,-1
 185 593 l 1,24,25
 231 571 231 571 231 529 c 0,26,27
 230 491 230 491 196 454 c 0,28,29
 166 421 166 421 126 407 c 1,30,-1
 291 407 l 1,31,-1
 291 392 l 1,32,-1
 15 392 l 1,33,-1
 15 208 l 1,34,-1
 291 208 l 1,35,-1
 291 193 l 1,36,-1
 15 193 l 1,37,-1
 15 7 l 1,8,-1
EndSplineSet
Validated: 5
EndChar

StartChar: v
Encoding: 118 118 89
Width: 158
Flags: W
LayerCount: 2
Fore
SplineSet
0 808 m 1,0,-1
 221 808 l 1,1,-1
 221 793 l 1,2,-1
 0 793 l 1,3,-1
 0 808 l 1,0,-1
0 608 m 1,4,-1
 221 608 l 1,5,-1
 221 593 l 1,6,-1
 0 593 l 1,7,-1
 0 608 l 1,4,-1
0 407 m 1,8,-1
 221 407 l 1,9,-1
 221 392 l 1,10,-1
 0 392 l 1,11,-1
 0 407 l 1,8,-1
0 208 m 1,12,-1
 221 208 l 1,13,-1
 221 193 l 1,14,-1
 0 193 l 1,15,-1
 0 208 l 1,12,-1
0 7 m 1,16,-1
 221 7 l 1,17,-1
 221 -8 l 1,18,-1
 0 -8 l 1,19,-1
 0 7 l 1,16,-1
0 808 m 1,20,-1
 221 808 l 1,21,-1
 221 793 l 1,22,-1
 0 793 l 1,23,-1
 0 808 l 1,20,-1
0 608 m 1,24,-1
 221 608 l 1,25,-1
 221 593 l 1,26,-1
 0 593 l 1,27,-1
 0 608 l 1,24,-1
0 407 m 1,28,-1
 221 407 l 1,29,-1
 221 392 l 1,30,-1
 0 392 l 1,31,-1
 0 407 l 1,28,-1
0 208 m 1,32,-1
 221 208 l 1,33,-1
 221 193 l 1,34,-1
 0 193 l 1,35,-1
 0 208 l 1,32,-1
0 7 m 1,36,-1
 221 7 l 1,37,-1
 221 -8 l 1,38,-1
 0 -8 l 1,39,-1
 0 7 l 1,36,-1
48 700 m 256,40,41
 48 732 48 732 80 732 c 256,42,43
 112 732 112 732 112 700 c 256,44,45
 112 668 112 668 80 668 c 256,46,47
 48 668 48 668 48 700 c 256,40,41
EndSplineSet
Validated: 5
EndChar

StartChar: w
Encoding: 119 119 90
Width: 222
Flags: W
LayerCount: 2
Fore
SplineSet
0 208 m 1,0,-1
 291 208 l 1,1,-1
 291 193 l 1,2,-1
 0 193 l 1,3,-1
 0 208 l 1,0,-1
0 7 m 1,4,-1
 7 7 l 1,5,6
 25 53 25 53 71 80 c 0,7,8
 110 102 110 102 145 102 c 0,9,10
 183 102 183 102 207 78.5 c 128,-1,11
 231 55 231 55 231 29 c 0,12,13
 230 19 230 19 227 7 c 1,14,-1
 291 7 l 1,15,-1
 291 -8 l 1,16,-1
 221 -8 l 1,17,18
 201 -53 201 -53 156 -79 c 0,19,20
 118 -100 118 -100 82 -100 c 0,21,22
 40 -100 40 -100 15 -70 c 1,23,-1
 15 -600 l 1,24,-1
 0 -600 l 1,25,-1
 0 -25 l 1,26,-1
 0 -25 l 1,27,28
 0 -17 0 -17 2 -8 c 1,29,-1
 0 -8 l 1,30,-1
 0 7 l 1,4,-1
0 808 m 1,31,-1
 291 808 l 1,32,-1
 291 793 l 1,33,-1
 0 793 l 1,34,-1
 0 808 l 1,31,-1
0 608 m 1,35,-1
 291 608 l 1,36,-1
 291 593 l 1,37,-1
 0 593 l 1,38,-1
 0 608 l 1,35,-1
0 407 m 1,39,-1
 291 407 l 1,40,-1
 291 392 l 1,41,-1
 0 392 l 1,42,-1
 0 407 l 1,39,-1
0 808 m 1,43,-1
 291 808 l 1,44,-1
 291 793 l 1,45,-1
 0 793 l 1,46,-1
 0 808 l 1,43,-1
0 608 m 1,47,-1
 291 608 l 1,48,-1
 291 593 l 1,49,-1
 0 593 l 1,50,-1
 0 608 l 1,47,-1
0 407 m 1,51,-1
 291 407 l 1,52,-1
 291 392 l 1,53,-1
 0 392 l 1,54,-1
 0 407 l 1,51,-1
EndSplineSet
Validated: 5
EndChar

StartChar: x
Encoding: 120 120 91
Width: 158
Flags: W
LayerCount: 2
Fore
SplineSet
0 808 m 1,0,-1
 221 808 l 1,1,-1
 221 793 l 1,2,-1
 0 793 l 1,3,-1
 0 808 l 1,0,-1
0 608 m 1,4,-1
 221 608 l 1,5,-1
 221 593 l 1,6,-1
 0 593 l 1,7,-1
 0 608 l 1,4,-1
0 407 m 1,8,-1
 221 407 l 1,9,-1
 221 392 l 1,10,-1
 0 392 l 1,11,-1
 0 407 l 1,8,-1
0 208 m 1,12,-1
 221 208 l 1,13,-1
 221 193 l 1,14,-1
 0 193 l 1,15,-1
 0 208 l 1,12,-1
0 7 m 1,16,-1
 221 7 l 1,17,-1
 221 -8 l 1,18,-1
 0 -8 l 1,19,-1
 0 7 l 1,16,-1
0 808 m 1,20,-1
 221 808 l 1,21,-1
 221 793 l 1,22,-1
 0 793 l 1,23,-1
 0 808 l 1,20,-1
0 608 m 1,24,-1
 221 608 l 1,25,-1
 221 593 l 1,26,-1
 0 593 l 1,27,-1
 0 608 l 1,24,-1
0 407 m 1,28,-1
 221 407 l 1,29,-1
 221 392 l 1,30,-1
 0 392 l 1,31,-1
 0 407 l 1,28,-1
0 208 m 1,32,-1
 221 208 l 1,33,-1
 221 193 l 1,34,-1
 0 193 l 1,35,-1
 0 208 l 1,32,-1
0 7 m 1,36,-1
 221 7 l 1,37,-1
 221 -8 l 1,38,-1
 0 -8 l 1,39,-1
 0 7 l 1,36,-1
48 300 m 256,40,41
 48 332 48 332 80 332 c 256,42,43
 112 332 112 332 112 300 c 256,44,45
 112 268 112 268 80 268 c 256,46,47
 48 268 48 268 48 300 c 256,40,41
EndSplineSet
Validated: 5
EndChar

StartChar: y
Encoding: 121 121 92
Width: 158
Flags: W
LayerCount: 2
Fore
SplineSet
0 808 m 1,0,-1
 221 808 l 1,1,-1
 221 793 l 1,2,-1
 0 793 l 1,3,-1
 0 808 l 1,0,-1
0 608 m 1,4,-1
 221 608 l 1,5,-1
 221 593 l 1,6,-1
 0 593 l 1,7,-1
 0 608 l 1,4,-1
0 407 m 1,8,-1
 221 407 l 1,9,-1
 221 392 l 1,10,-1
 0 392 l 1,11,-1
 0 407 l 1,8,-1
0 208 m 1,12,-1
 221 208 l 1,13,-1
 221 193 l 1,14,-1
 0 193 l 1,15,-1
 0 208 l 1,12,-1
0 7 m 1,16,-1
 221 7 l 1,17,-1
 221 -8 l 1,18,-1
 0 -8 l 1,19,-1
 0 7 l 1,16,-1
0 808 m 1,20,-1
 221 808 l 1,21,-1
 221 793 l 1,22,-1
 0 793 l 1,23,-1
 0 808 l 1,20,-1
0 608 m 1,24,-1
 221 608 l 1,25,-1
 221 593 l 1,26,-1
 0 593 l 1,27,-1
 0 608 l 1,24,-1
0 407 m 1,28,-1
 221 407 l 1,29,-1
 221 392 l 1,30,-1
 0 392 l 1,31,-1
 0 407 l 1,28,-1
0 208 m 1,32,-1
 221 208 l 1,33,-1
 221 193 l 1,34,-1
 0 193 l 1,35,-1
 0 208 l 1,32,-1
0 7 m 1,36,-1
 221 7 l 1,37,-1
 221 -8 l 1,38,-1
 0 -8 l 1,39,-1
 0 7 l 1,36,-1
48 100 m 256,40,41
 48 132 48 132 80 132 c 256,42,43
 112 132 112 132 112 100 c 256,44,45
 112 68 112 68 80 68 c 256,46,47
 48 68 48 68 48 100 c 256,40,41
EndSplineSet
Validated: 5
EndChar

StartChar: z
Encoding: 122 122 93
Width: 222
Flags: W
LayerCount: 2
Fore
SplineSet
0 608 m 1,0,-1
 291 608 l 1,1,-1
 291 593 l 1,2,-1
 0 593 l 1,3,-1
 0 608 l 1,0,-1
15 7 m 1,4,-1
 291 7 l 1,5,-1
 291 -8 l 1,6,-1
 15 -8 l 1,7,-1
 15 -426 l 1,8,-1
 0 -426 l 1,9,-1
 0 375 l 1,10,-1
 0 375 l 1,11,12
 0 384 0 384 2 392 c 1,13,-1
 0 392 l 1,14,-1
 0 407 l 1,15,-1
 7 407 l 1,16,17
 25 453 25 453 71 480 c 0,18,19
 110 502 110 502 145 502 c 0,20,21
 183 502 183 502 207 478.5 c 128,-1,22
 231 455 231 455 231 429 c 0,23,24
 230 419 230 419 227 407 c 1,25,-1
 291 407 l 1,26,-1
 291 392 l 1,27,-1
 222 392 l 1,28,29
 201 347 201 347 156 321 c 0,30,31
 118 300 118 300 82 300 c 0,32,33
 40 300 40 300 15 330 c 1,34,-1
 15 208 l 1,35,-1
 291 208 l 1,36,-1
 291 193 l 1,37,-1
 15 193 l 1,38,-1
 15 7 l 1,4,-1
0 808 m 1,39,-1
 291 808 l 1,40,-1
 291 793 l 1,41,-1
 0 793 l 1,42,-1
 0 808 l 1,39,-1
0 808 m 1,43,-1
 291 808 l 1,44,-1
 291 793 l 1,45,-1
 0 793 l 1,46,-1
 0 808 l 1,43,-1
EndSplineSet
Validated: 5
EndChar

StartChar: braceleft
Encoding: 123 123 94
Width: 723
Flags: W
LayerCount: 2
Fore
SplineSet
656 483 m 0,0,1
 656 463 656 463 642 450 c 128,-1,2
 628 437 628 437 608 437 c 256,3,4
 588 437 588 437 573.5 451 c 128,-1,5
 559 465 559 465 559 485 c 256,6,7
 559 505 559 505 573 518.5 c 128,-1,8
 587 532 587 532 607 532 c 256,9,10
 627 532 627 532 641.5 518 c 128,-1,11
 656 504 656 504 656 483 c 0,0,1
655 314 m 256,12,13
 655 294 655 294 641 280.5 c 128,-1,14
 627 267 627 267 607 267 c 256,15,16
 587 267 587 267 573 281 c 128,-1,17
 559 295 559 295 559 315 c 256,18,19
 559 335 559 335 573 349 c 128,-1,20
 587 363 587 363 607 363 c 256,21,22
 627 363 627 363 641 348.5 c 128,-1,23
 655 334 655 334 655 314 c 256,12,13
0 808 m 1,24,-1
 801 808 l 1,25,-1
 801 793 l 1,26,-1
 0 793 l 1,27,-1
 0 808 l 1,24,-1
302 407 m 1,28,-1
 417 407 l 1,29,-1
 417 408 l 2,30,31
 417 473 417 473 386 516 c 0,32,33
 351 565 351 565 289 565 c 0,34,35
 256 565 256 565 227 549 c 0,36,37
 193 530 193 530 193 500 c 256,38,39
 193 470 193 470 219.5 464 c 128,-1,40
 246 458 246 458 272 454 c 1,41,42
 301 444 301 444 302 407 c 1,28,-1
0 7 m 1,43,-1
 110 7 l 1,44,45
 168 29 168 29 229 72 c 0,46,47
 313 132 313 132 355 193 c 1,48,-1
 0 193 l 1,49,-1
 0 208 l 1,50,-1
 365 208 l 1,51,52
 414 285 414 285 417 392 c 1,53,-1
 301 392 l 1,54,55
 292 334 292 334 215 334 c 0,56,57
 145 334 145 334 130 392 c 1,58,-1
 0 392 l 1,59,-1
 0 407 l 1,60,-1
 128 407 l 1,61,62
 127 413 127 413 127 419 c 0,63,64
 127 462 127 462 152.5 508 c 128,-1,65
 178 554 178 554 214 573 c 0,66,67
 245 590 245 590 289 593 c 1,68,-1
 0 593 l 1,69,-1
 0 608 l 1,70,-1
 801 608 l 1,71,-1
 801 593 l 1,72,-1
 334 593 l 1,73,74
 411 587 411 587 466 536 c 128,-1,75
 521 485 521 485 530 407 c 1,76,-1
 801 407 l 1,77,-1
 801 392 l 1,78,-1
 531 392 l 1,79,80
 531 389 531 389 531 385 c 0,81,82
 531 303 531 303 442 208 c 1,83,-1
 801 208 l 1,84,-1
 801 193 l 1,85,-1
 427 193 l 1,86,87
 338 104 338 104 201 29 c 0,88,89
 177 17 177 17 157 7 c 1,90,-1
 801 7 l 1,91,-1
 801 -8 l 1,92,-1
 120 -8 l 2,93,94
 114 -10 114 -10 110 -10 c 2,95,-1
 106 -9 l 1,96,-1
 106 -8 l 1,97,-1
 0 -8 l 1,98,-1
 0 7 l 1,43,-1
EndSplineSet
Validated: 1
EndChar

StartChar: braceright
Encoding: 125 125 95
Width: 723
Flags: W
LayerCount: 2
Fore
SplineSet
656 683 m 0,0,1
 656 663 656 663 642 650 c 128,-1,2
 628 637 628 637 608 637 c 256,3,4
 588 637 588 637 573.5 651 c 128,-1,5
 559 665 559 665 559 685 c 256,6,7
 559 705 559 705 573 718.5 c 128,-1,8
 587 732 587 732 607 732 c 256,9,10
 627 732 627 732 641.5 718 c 128,-1,11
 656 704 656 704 656 683 c 0,0,1
655 514 m 256,12,13
 655 494 655 494 641 480.5 c 128,-1,14
 627 467 627 467 607 467 c 256,15,16
 587 467 587 467 573 481 c 128,-1,17
 559 495 559 495 559 515 c 256,18,19
 559 535 559 535 573 549 c 128,-1,20
 587 563 587 563 607 563 c 256,21,22
 627 563 627 563 641 548.5 c 128,-1,23
 655 534 655 534 655 514 c 256,12,13
302 608 m 1,24,-1
 417 608 l 1,25,-1
 417 608 l 1,26,27
 417 673 417 673 386 716 c 0,28,29
 351 765 351 765 289 765 c 0,30,31
 256 765 256 765 227 749 c 0,32,33
 193 730 193 730 193 700 c 256,34,35
 193 670 193 670 219.5 664 c 128,-1,36
 246 658 246 658 272 654 c 1,37,38
 300 644 300 644 302 608 c 1,24,-1
0 208 m 1,39,-1
 112 208 l 1,40,41
 169 229 169 229 229 272 c 0,42,43
 313 331 313 331 355 392 c 1,44,-1
 0 392 l 1,45,-1
 0 407 l 1,46,-1
 365 407 l 1,47,48
 414 485 414 485 417 593 c 1,49,-1
 301 593 l 1,50,51
 293 534 293 534 215 534 c 0,52,53
 145 534 145 534 130 593 c 1,54,-1
 0 593 l 1,55,-1
 0 608 l 1,56,-1
 128 608 l 1,57,58
 127 613 127 613 127 619 c 0,59,60
 127 662 127 662 152.5 708 c 128,-1,61
 178 754 178 754 214 773 c 0,62,63
 244 789 244 789 286 793 c 1,64,-1
 0 793 l 1,65,-1
 0 808 l 1,66,-1
 801 808 l 1,67,-1
 801 793 l 1,68,-1
 337 793 l 1,69,70
 413 787 413 787 467 735.5 c 128,-1,71
 521 684 521 684 530 608 c 1,72,-1
 801 608 l 1,73,-1
 801 593 l 1,74,-1
 531 593 l 1,75,76
 531 589 531 589 531 585 c 0,77,78
 531 503 531 503 441 407 c 1,79,-1
 801 407 l 1,80,-1
 801 392 l 1,81,-1
 427 392 l 1,82,83
 338 304 338 304 201 229 c 0,84,85
 178 217 178 217 158 208 c 1,86,-1
 801 208 l 1,87,-1
 801 193 l 1,88,-1
 122 193 l 2,89,90
 114 190 114 190 110 190 c 2,91,-1
 106 191 l 1,92,-1
 106 193 l 1,93,-1
 0 193 l 1,94,-1
 0 208 l 1,39,-1
0 7 m 1,95,-1
 801 7 l 1,96,-1
 801 -8 l 1,97,-1
 0 -8 l 1,98,-1
 0 7 l 1,95,-1
EndSplineSet
Validated: 5
EndChar

StartChar: asciitilde
Encoding: 126 126 96
Width: 143
Flags: W
LayerCount: 2
Fore
SplineSet
0 808 m 1,0,-1
 201 808 l 1,1,-1
 201 793 l 1,2,-1
 0 793 l 1,3,-1
 0 808 l 1,0,-1
0 608 m 1,4,-1
 201 608 l 1,5,-1
 201 593 l 1,6,-1
 0 593 l 1,7,-1
 0 608 l 1,4,-1
0 407 m 1,8,-1
 201 407 l 1,9,-1
 201 392 l 1,10,-1
 0 392 l 1,11,-1
 0 407 l 1,8,-1
0 208 m 1,12,-1
 201 208 l 1,13,-1
 201 193 l 1,14,-1
 0 193 l 1,15,-1
 0 208 l 1,12,-1
0 7 m 1,16,-1
 201 7 l 1,17,-1
 201 -8 l 1,18,-1
 0 -8 l 1,19,-1
 0 7 l 1,16,-1
-50 -193 m 1,20,-1
 211 -193 l 1,21,-1
 211 -208 l 1,22,-1
 -50 -208 l 1,23,-1
 -50 -193 l 1,20,-1
-50 -392 m 1,24,-1
 7 -392 l 1,25,26
 19 -367 19 -367 45 -350.5 c 128,-1,27
 71 -334 71 -334 98 -334 c 0,28,29
 123 -334 123 -334 141 -351 c 0,30,31
 156 -365 156 -365 156 -383 c 0,32,33
 156 -387 156 -387 155 -392 c 1,34,-1
 211 -392 l 1,35,-1
 211 -407 l 1,36,-1
 150 -407 l 1,37,38
 138 -433 138 -433 111 -451.5 c 128,-1,39
 84 -470 84 -470 56 -470 c 0,40,41
 29 -470 29 -470 12 -452 c 0,42,43
 0 -439 0 -439 0 -419 c 0,44,45
 0 -413 0 -413 2 -407 c 1,46,-1
 -50 -407 l 1,47,-1
 -50 -392 l 1,24,-1
EndSplineSet
Validated: 1
EndChar

StartChar: quotesinglbase
Encoding: 8218 8218 97
Width: 143
Flags: W
LayerCount: 2
Fore
SplineSet
0 808 m 1,0,-1
 201 808 l 1,1,-1
 201 793 l 1,2,-1
 0 793 l 1,3,-1
 0 808 l 1,0,-1
0 608 m 1,4,-1
 201 608 l 1,5,-1
 201 593 l 1,6,-1
 0 593 l 1,7,-1
 0 608 l 1,4,-1
0 407 m 1,8,-1
 201 407 l 1,9,-1
 201 392 l 1,10,-1
 0 392 l 1,11,-1
 0 407 l 1,8,-1
0 208 m 1,12,-1
 201 208 l 1,13,-1
 201 193 l 1,14,-1
 0 193 l 1,15,-1
 0 208 l 1,12,-1
0 7 m 1,16,-1
 201 7 l 1,17,-1
 201 -8 l 1,18,-1
 0 -8 l 1,19,-1
 0 7 l 1,16,-1
-50 -193 m 1,20,-1
 7 -193 l 1,21,22
 18 -168 18 -168 44.5 -151 c 128,-1,23
 71 -134 71 -134 98 -134 c 0,24,25
 123 -134 123 -134 141 -151 c 0,26,27
 156 -165 156 -165 156 -183 c 0,28,29
 156 -188 156 -188 155 -193 c 1,30,-1
 211 -193 l 1,31,-1
 211 -208 l 1,32,-1
 150 -208 l 1,33,34
 137 -234 137 -234 110.5 -252 c 128,-1,35
 84 -270 84 -270 56 -270 c 0,36,37
 29 -270 29 -270 12 -252 c 0,38,39
 0 -239 0 -239 0 -219 c 0,40,41
 0 -214 0 -214 1 -208 c 1,42,-1
 -50 -208 l 1,43,-1
 -50 -193 l 1,20,-1
EndSplineSet
Validated: 1
EndChar

StartChar: florin
Encoding: 402 402 98
Width: 143
Flags: W
LayerCount: 2
Fore
SplineSet
0 808 m 1,0,-1
 201 808 l 1,1,-1
 201 793 l 1,2,-1
 0 793 l 1,3,-1
 0 808 l 1,0,-1
0 608 m 1,4,-1
 201 608 l 1,5,-1
 201 593 l 1,6,-1
 0 593 l 1,7,-1
 0 608 l 1,4,-1
0 407 m 1,8,-1
 201 407 l 1,9,-1
 201 392 l 1,10,-1
 0 392 l 1,11,-1
 0 407 l 1,8,-1
0 208 m 1,12,-1
 201 208 l 1,13,-1
 201 193 l 1,14,-1
 0 193 l 1,15,-1
 0 208 l 1,12,-1
0 7 m 1,16,-1
 201 7 l 1,17,-1
 201 -8 l 1,18,-1
 0 -8 l 1,19,-1
 0 7 l 1,16,-1
12 -152 m 0,20,21
 0 -139 0 -139 0 -119 c 0,22,23
 1 -76 1 -76 48 -49 c 0,24,25
 74 -34 74 -34 98 -34 c 0,26,27
 123 -34 123 -34 141 -51 c 0,28,29
 156 -65 156 -65 156 -83 c 0,30,31
 155 -127 155 -127 105 -156 c 0,32,33
 80 -170 80 -170 56 -170 c 0,34,35
 29 -170 29 -170 12 -152 c 0,20,21
0 808 m 1,36,-1
 201 808 l 1,37,-1
 201 793 l 1,38,-1
 0 793 l 1,39,-1
 0 808 l 1,36,-1
0 608 m 1,40,-1
 201 608 l 1,41,-1
 201 593 l 1,42,-1
 0 593 l 1,43,-1
 0 608 l 1,40,-1
0 407 m 1,44,-1
 201 407 l 1,45,-1
 201 392 l 1,46,-1
 0 392 l 1,47,-1
 0 407 l 1,44,-1
0 208 m 1,48,-1
 201 208 l 1,49,-1
 201 193 l 1,50,-1
 0 193 l 1,51,-1
 0 208 l 1,48,-1
0 7 m 1,52,-1
 201 7 l 1,53,-1
 201 -8 l 1,54,-1
 0 -8 l 1,55,-1
 0 7 l 1,52,-1
EndSplineSet
Validated: 5
EndChar

StartChar: quotedblbase
Encoding: 8222 8222 99
Width: 143
Flags: W
LayerCount: 2
Fore
SplineSet
0 808 m 1,0,-1
 201 808 l 1,1,-1
 201 793 l 1,2,-1
 0 793 l 1,3,-1
 0 808 l 1,0,-1
0 608 m 1,4,-1
 201 608 l 1,5,-1
 201 593 l 1,6,-1
 0 593 l 1,7,-1
 0 608 l 1,4,-1
0 407 m 1,8,-1
 201 407 l 1,9,-1
 201 392 l 1,10,-1
 0 392 l 1,11,-1
 0 407 l 1,8,-1
0 208 m 1,12,-1
 201 208 l 1,13,-1
 201 193 l 1,14,-1
 0 193 l 1,15,-1
 0 208 l 1,12,-1
0 7 m 1,16,-1
 7 7 l 1,17,18
 18 32 18 32 44.5 49 c 128,-1,19
 71 66 71 66 98 66 c 0,20,21
 123 66 123 66 141 49 c 0,22,23
 156 35 156 35 156 17 c 0,24,25
 156 12 156 12 155 7 c 1,26,-1
 201 7 l 1,27,-1
 201 -8 l 1,28,-1
 150 -8 l 1,29,30
 137 -34 137 -34 110.5 -52 c 128,-1,31
 84 -70 84 -70 56 -70 c 0,32,33
 29 -70 29 -70 12 -52 c 0,34,35
 0 -39 0 -39 0 -19 c 0,36,37
 0 -14 0 -14 1 -8 c 1,38,-1
 0 -8 l 1,39,-1
 0 7 l 1,16,-1
EndSplineSet
Validated: 1
EndChar

StartChar: ellipsis
Encoding: 8230 8230 100
Width: 143
Flags: W
LayerCount: 2
Fore
SplineSet
0 808 m 1,0,-1
 201 808 l 1,1,-1
 201 793 l 1,2,-1
 0 793 l 1,3,-1
 0 808 l 1,0,-1
0 608 m 1,4,-1
 201 608 l 1,5,-1
 201 593 l 1,6,-1
 0 593 l 1,7,-1
 0 608 l 1,4,-1
0 407 m 1,8,-1
 201 407 l 1,9,-1
 201 392 l 1,10,-1
 0 392 l 1,11,-1
 0 407 l 1,8,-1
0 208 m 1,12,-1
 201 208 l 1,13,-1
 201 193 l 1,14,-1
 0 193 l 1,15,-1
 0 208 l 1,12,-1
0 7 m 1,16,-1
 201 7 l 1,17,-1
 201 -8 l 1,18,-1
 0 -8 l 1,19,-1
 0 7 l 1,16,-1
12 48 m 0,20,21
 0 61 0 61 0 81 c 0,22,23
 1 124 1 124 48 151 c 0,24,25
 74 166 74 166 98 166 c 0,26,27
 123 166 123 166 141 149 c 0,28,29
 156 135 156 135 156 117 c 0,30,31
 155 73 155 73 105 44 c 0,32,33
 80 30 80 30 56 30 c 0,34,35
 29 30 29 30 12 48 c 0,20,21
0 808 m 1,36,-1
 201 808 l 1,37,-1
 201 793 l 1,38,-1
 0 793 l 1,39,-1
 0 808 l 1,36,-1
0 608 m 1,40,-1
 201 608 l 1,41,-1
 201 593 l 1,42,-1
 0 593 l 1,43,-1
 0 608 l 1,40,-1
0 407 m 1,44,-1
 201 407 l 1,45,-1
 201 392 l 1,46,-1
 0 392 l 1,47,-1
 0 407 l 1,44,-1
0 208 m 1,48,-1
 201 208 l 1,49,-1
 201 193 l 1,50,-1
 0 193 l 1,51,-1
 0 208 l 1,48,-1
0 7 m 1,52,-1
 201 7 l 1,53,-1
 201 -8 l 1,54,-1
 0 -8 l 1,55,-1
 0 7 l 1,52,-1
EndSplineSet
Validated: 5
EndChar

StartChar: dagger
Encoding: 8224 8224 101
Width: 143
Flags: W
LayerCount: 2
Fore
SplineSet
0 808 m 1,0,-1
 201 808 l 1,1,-1
 201 793 l 1,2,-1
 0 793 l 1,3,-1
 0 808 l 1,0,-1
0 608 m 1,4,-1
 201 608 l 1,5,-1
 201 593 l 1,6,-1
 0 593 l 1,7,-1
 0 608 l 1,4,-1
0 407 m 1,8,-1
 201 407 l 1,9,-1
 201 392 l 1,10,-1
 0 392 l 1,11,-1
 0 407 l 1,8,-1
0 208 m 1,12,-1
 7 208 l 1,13,14
 19 232 19 232 45 249 c 128,-1,15
 71 266 71 266 98 266 c 0,16,17
 123 266 123 266 141 249 c 0,18,19
 156 235 156 235 156 217 c 0,20,21
 156 213 156 213 155 208 c 1,22,-1
 201 208 l 1,23,-1
 201 193 l 1,24,-1
 150 193 l 1,25,26
 138 166 138 166 111 148 c 128,-1,27
 84 130 84 130 56 130 c 0,28,29
 29 130 29 130 12 148 c 0,30,31
 0 161 0 161 0 181 c 0,32,33
 0 186 0 186 2 193 c 1,34,-1
 0 193 l 1,35,-1
 0 208 l 1,12,-1
0 7 m 1,36,-1
 201 7 l 1,37,-1
 201 -8 l 1,38,-1
 0 -8 l 1,39,-1
 0 7 l 1,36,-1
EndSplineSet
Validated: 1
EndChar

StartChar: daggerdbl
Encoding: 8225 8225 102
Width: 143
Flags: W
LayerCount: 2
Fore
SplineSet
0 808 m 1,0,-1
 201 808 l 1,1,-1
 201 793 l 1,2,-1
 0 793 l 1,3,-1
 0 808 l 1,0,-1
0 608 m 1,4,-1
 201 608 l 1,5,-1
 201 593 l 1,6,-1
 0 593 l 1,7,-1
 0 608 l 1,4,-1
0 407 m 1,8,-1
 201 407 l 1,9,-1
 201 392 l 1,10,-1
 0 392 l 1,11,-1
 0 407 l 1,8,-1
0 208 m 1,12,-1
 201 208 l 1,13,-1
 201 193 l 1,14,-1
 0 193 l 1,15,-1
 0 208 l 1,12,-1
0 7 m 1,16,-1
 201 7 l 1,17,-1
 201 -8 l 1,18,-1
 0 -8 l 1,19,-1
 0 7 l 1,16,-1
12 248 m 0,20,21
 0 261 0 261 0 281 c 0,22,23
 1 324 1 324 48 351 c 0,24,25
 74 366 74 366 98 366 c 0,26,27
 123 366 123 366 141 349 c 0,28,29
 156 335 156 335 156 317 c 0,30,31
 155 273 155 273 105 244 c 0,32,33
 80 230 80 230 56 230 c 0,34,35
 29 230 29 230 12 248 c 0,20,21
0 808 m 1,36,-1
 201 808 l 1,37,-1
 201 793 l 1,38,-1
 0 793 l 1,39,-1
 0 808 l 1,36,-1
0 608 m 1,40,-1
 201 608 l 1,41,-1
 201 593 l 1,42,-1
 0 593 l 1,43,-1
 0 608 l 1,40,-1
0 407 m 1,44,-1
 201 407 l 1,45,-1
 201 392 l 1,46,-1
 0 392 l 1,47,-1
 0 407 l 1,44,-1
0 208 m 1,48,-1
 201 208 l 1,49,-1
 201 193 l 1,50,-1
 0 193 l 1,51,-1
 0 208 l 1,48,-1
0 7 m 1,52,-1
 201 7 l 1,53,-1
 201 -8 l 1,54,-1
 0 -8 l 1,55,-1
 0 7 l 1,52,-1
EndSplineSet
Validated: 5
EndChar

StartChar: circumflex
Encoding: 710 710 103
Width: 143
Flags: W
LayerCount: 2
Fore
SplineSet
0 808 m 1,0,-1
 201 808 l 1,1,-1
 201 793 l 1,2,-1
 0 793 l 1,3,-1
 0 808 l 1,0,-1
0 608 m 1,4,-1
 201 608 l 1,5,-1
 201 593 l 1,6,-1
 0 593 l 1,7,-1
 0 608 l 1,4,-1
0 407 m 1,8,-1
 7 407 l 1,9,10
 19 432 19 432 45 449 c 128,-1,11
 71 466 71 466 98 466 c 0,12,13
 123 466 123 466 141 449 c 0,14,15
 156 435 156 435 156 417 c 0,16,17
 156 413 156 413 155 407 c 1,18,-1
 201 407 l 1,19,-1
 201 392 l 1,20,-1
 150 392 l 1,21,22
 138 366 138 366 111 348 c 128,-1,23
 84 330 84 330 56 330 c 0,24,25
 29 330 29 330 12 348 c 0,26,27
 0 361 0 361 0 381 c 0,28,29
 0 386 0 386 2 392 c 1,30,-1
 0 392 l 1,31,-1
 0 407 l 1,8,-1
0 208 m 1,32,-1
 201 208 l 1,33,-1
 201 193 l 1,34,-1
 0 193 l 1,35,-1
 0 208 l 1,32,-1
0 7 m 1,36,-1
 201 7 l 1,37,-1
 201 -8 l 1,38,-1
 0 -8 l 1,39,-1
 0 7 l 1,36,-1
EndSplineSet
Validated: 1
EndChar

StartChar: perthousand
Encoding: 8240 8240 104
Width: 143
Flags: W
LayerCount: 2
Fore
SplineSet
0 808 m 1,0,-1
 201 808 l 1,1,-1
 201 793 l 1,2,-1
 0 793 l 1,3,-1
 0 808 l 1,0,-1
0 608 m 1,4,-1
 201 608 l 1,5,-1
 201 593 l 1,6,-1
 0 593 l 1,7,-1
 0 608 l 1,4,-1
0 407 m 1,8,-1
 201 407 l 1,9,-1
 201 392 l 1,10,-1
 0 392 l 1,11,-1
 0 407 l 1,8,-1
0 208 m 1,12,-1
 201 208 l 1,13,-1
 201 193 l 1,14,-1
 0 193 l 1,15,-1
 0 208 l 1,12,-1
0 7 m 1,16,-1
 201 7 l 1,17,-1
 201 -8 l 1,18,-1
 0 -8 l 1,19,-1
 0 7 l 1,16,-1
12 448 m 0,20,21
 0 461 0 461 0 481 c 0,22,23
 1 524 1 524 48 551 c 0,24,25
 74 566 74 566 98 566 c 0,26,27
 123 566 123 566 141 549 c 0,28,29
 156 535 156 535 156 517 c 0,30,31
 155 473 155 473 105 444 c 0,32,33
 80 430 80 430 56 430 c 0,34,35
 29 430 29 430 12 448 c 0,20,21
0 808 m 1,36,-1
 201 808 l 1,37,-1
 201 793 l 1,38,-1
 0 793 l 1,39,-1
 0 808 l 1,36,-1
0 608 m 1,40,-1
 201 608 l 1,41,-1
 201 593 l 1,42,-1
 0 593 l 1,43,-1
 0 608 l 1,40,-1
0 407 m 1,44,-1
 201 407 l 1,45,-1
 201 392 l 1,46,-1
 0 392 l 1,47,-1
 0 407 l 1,44,-1
0 208 m 1,48,-1
 201 208 l 1,49,-1
 201 193 l 1,50,-1
 0 193 l 1,51,-1
 0 208 l 1,48,-1
0 7 m 1,52,-1
 201 7 l 1,53,-1
 201 -8 l 1,54,-1
 0 -8 l 1,55,-1
 0 7 l 1,52,-1
EndSplineSet
Validated: 5
EndChar

StartChar: Scaron
Encoding: 352 352 105
Width: 143
Flags: W
LayerCount: 2
Fore
SplineSet
0 808 m 1,0,-1
 201 808 l 1,1,-1
 201 793 l 1,2,-1
 0 793 l 1,3,-1
 0 808 l 1,0,-1
0 608 m 1,4,-1
 7 608 l 1,5,6
 19 633 19 633 45 649.5 c 128,-1,7
 71 666 71 666 98 666 c 0,8,9
 123 666 123 666 141 649 c 0,10,11
 156 635 156 635 156 617 c 0,12,13
 156 613 156 613 155 608 c 1,14,-1
 201 608 l 1,15,-1
 201 593 l 1,16,-1
 150 593 l 1,17,18
 138 567 138 567 111 548.5 c 128,-1,19
 84 530 84 530 56 530 c 0,20,21
 29 530 29 530 12 548 c 0,22,23
 0 561 0 561 0 581 c 0,24,25
 0 587 0 587 2 593 c 1,26,-1
 0 593 l 1,27,-1
 0 608 l 1,4,-1
0 407 m 1,28,-1
 201 407 l 1,29,-1
 201 392 l 1,30,-1
 0 392 l 1,31,-1
 0 407 l 1,28,-1
0 208 m 1,32,-1
 201 208 l 1,33,-1
 201 193 l 1,34,-1
 0 193 l 1,35,-1
 0 208 l 1,32,-1
0 7 m 1,36,-1
 201 7 l 1,37,-1
 201 -8 l 1,38,-1
 0 -8 l 1,39,-1
 0 7 l 1,36,-1
EndSplineSet
Validated: 1
EndChar

StartChar: guilsinglleft
Encoding: 8249 8249 106
Width: 143
Flags: W
LayerCount: 2
Fore
SplineSet
0 808 m 1,0,-1
 201 808 l 1,1,-1
 201 793 l 1,2,-1
 0 793 l 1,3,-1
 0 808 l 1,0,-1
0 608 m 1,4,-1
 201 608 l 1,5,-1
 201 593 l 1,6,-1
 0 593 l 1,7,-1
 0 608 l 1,4,-1
0 407 m 1,8,-1
 201 407 l 1,9,-1
 201 392 l 1,10,-1
 0 392 l 1,11,-1
 0 407 l 1,8,-1
0 208 m 1,12,-1
 201 208 l 1,13,-1
 201 193 l 1,14,-1
 0 193 l 1,15,-1
 0 208 l 1,12,-1
0 7 m 1,16,-1
 201 7 l 1,17,-1
 201 -8 l 1,18,-1
 0 -8 l 1,19,-1
 0 7 l 1,16,-1
12 648 m 0,20,21
 0 661 0 661 0 681 c 0,22,23
 1 724 1 724 48 751 c 0,24,25
 74 766 74 766 98 766 c 0,26,27
 123 766 123 766 141 749 c 0,28,29
 156 735 156 735 156 717 c 0,30,31
 155 673 155 673 105 644 c 0,32,33
 80 630 80 630 56 630 c 0,34,35
 29 630 29 630 12 648 c 0,20,21
0 808 m 1,36,-1
 201 808 l 1,37,-1
 201 793 l 1,38,-1
 0 793 l 1,39,-1
 0 808 l 1,36,-1
0 608 m 1,40,-1
 201 608 l 1,41,-1
 201 593 l 1,42,-1
 0 593 l 1,43,-1
 0 608 l 1,40,-1
0 407 m 1,44,-1
 201 407 l 1,45,-1
 201 392 l 1,46,-1
 0 392 l 1,47,-1
 0 407 l 1,44,-1
0 208 m 1,48,-1
 201 208 l 1,49,-1
 201 193 l 1,50,-1
 0 193 l 1,51,-1
 0 208 l 1,48,-1
0 7 m 1,52,-1
 201 7 l 1,53,-1
 201 -8 l 1,54,-1
 0 -8 l 1,55,-1
 0 7 l 1,52,-1
EndSplineSet
Validated: 5
EndChar

StartChar: OE
Encoding: 338 338 107
Width: 143
Flags: W
LayerCount: 2
Fore
SplineSet
0 808 m 1,0,-1
 201 808 l 1,1,-1
 201 793 l 1,2,-1
 0 793 l 1,3,-1
 0 808 l 1,0,-1
0 608 m 1,4,-1
 201 608 l 1,5,-1
 201 593 l 1,6,-1
 0 593 l 1,7,-1
 0 608 l 1,4,-1
0 407 m 1,8,-1
 201 407 l 1,9,-1
 201 392 l 1,10,-1
 0 392 l 1,11,-1
 0 407 l 1,8,-1
0 208 m 1,12,-1
 201 208 l 1,13,-1
 201 193 l 1,14,-1
 0 193 l 1,15,-1
 0 208 l 1,12,-1
0 7 m 1,16,-1
 201 7 l 1,17,-1
 201 -8 l 1,18,-1
 0 -8 l 1,19,-1
 0 7 l 1,16,-1
12 748 m 0,20,21
 0 761 0 761 0 781 c 0,22,23
 1 824 1 824 48 851 c 0,24,25
 74 866 74 866 98 866 c 0,26,27
 123 866 123 866 141 849 c 0,28,29
 156 835 156 835 156 817 c 0,30,31
 155 773 155 773 105 744 c 0,32,33
 80 730 80 730 56 730 c 0,34,35
 29 730 29 730 12 748 c 0,20,21
0 808 m 1,36,-1
 201 808 l 1,37,-1
 201 793 l 1,38,-1
 0 793 l 1,39,-1
 0 808 l 1,36,-1
0 608 m 1,40,-1
 201 608 l 1,41,-1
 201 593 l 1,42,-1
 0 593 l 1,43,-1
 0 608 l 1,40,-1
0 407 m 1,44,-1
 201 407 l 1,45,-1
 201 392 l 1,46,-1
 0 392 l 1,47,-1
 0 407 l 1,44,-1
0 208 m 1,48,-1
 201 208 l 1,49,-1
 201 193 l 1,50,-1
 0 193 l 1,51,-1
 0 208 l 1,48,-1
0 7 m 1,52,-1
 201 7 l 1,53,-1
 201 -8 l 1,54,-1
 0 -8 l 1,55,-1
 0 7 l 1,52,-1
EndSplineSet
Validated: 5
EndChar

StartChar: quoteleft
Encoding: 8216 8216 108
Width: 143
Flags: W
LayerCount: 2
Fore
SplineSet
0 808 m 1,0,-1
 201 808 l 1,1,-1
 201 793 l 1,2,-1
 0 793 l 1,3,-1
 0 808 l 1,0,-1
0 608 m 1,4,-1
 201 608 l 1,5,-1
 201 593 l 1,6,-1
 0 593 l 1,7,-1
 0 608 l 1,4,-1
0 407 m 1,8,-1
 201 407 l 1,9,-1
 201 392 l 1,10,-1
 0 392 l 1,11,-1
 0 407 l 1,8,-1
0 208 m 1,12,-1
 201 208 l 1,13,-1
 201 193 l 1,14,-1
 0 193 l 1,15,-1
 0 208 l 1,12,-1
0 7 m 1,16,-1
 201 7 l 1,17,-1
 201 -8 l 1,18,-1
 0 -8 l 1,19,-1
 0 7 l 1,16,-1
12 848 m 0,20,21
 0 861 0 861 0 881 c 0,22,23
 1 924 1 924 48 951 c 0,24,25
 74 966 74 966 98 966 c 0,26,27
 123 966 123 966 141 949 c 0,28,29
 156 935 156 935 156 917 c 0,30,31
 155 873 155 873 105 844 c 0,32,33
 80 830 80 830 56 830 c 0,34,35
 29 830 29 830 12 848 c 0,20,21
0 808 m 1,36,-1
 201 808 l 1,37,-1
 201 793 l 1,38,-1
 0 793 l 1,39,-1
 0 808 l 1,36,-1
0 608 m 1,40,-1
 201 608 l 1,41,-1
 201 593 l 1,42,-1
 0 593 l 1,43,-1
 0 608 l 1,40,-1
0 407 m 1,44,-1
 201 407 l 1,45,-1
 201 392 l 1,46,-1
 0 392 l 1,47,-1
 0 407 l 1,44,-1
0 208 m 1,48,-1
 201 208 l 1,49,-1
 201 193 l 1,50,-1
 0 193 l 1,51,-1
 0 208 l 1,48,-1
0 7 m 1,52,-1
 201 7 l 1,53,-1
 201 -8 l 1,54,-1
 0 -8 l 1,55,-1
 0 7 l 1,52,-1
EndSplineSet
Validated: 5
EndChar

StartChar: quoteright
Encoding: 8217 8217 109
Width: 143
Flags: W
LayerCount: 2
Fore
SplineSet
0 808 m 1,0,-1
 201 808 l 1,1,-1
 201 793 l 1,2,-1
 0 793 l 1,3,-1
 0 808 l 1,0,-1
-50 1007 m 1,4,-1
 7 1007 l 1,5,6
 18 1032 18 1032 44.5 1049 c 128,-1,7
 71 1066 71 1066 98 1066 c 0,8,9
 123 1066 123 1066 141 1049 c 0,10,11
 156 1035 156 1035 156 1017 c 0,12,13
 156 1012 156 1012 155 1007 c 1,14,-1
 211 1007 l 1,15,-1
 211 992 l 1,16,-1
 150 992 l 1,17,18
 137 966 137 966 110.5 948 c 128,-1,19
 84 930 84 930 56 930 c 0,20,21
 29 930 29 930 12 948 c 0,22,23
 0 961 0 961 0 981 c 0,24,25
 0 986 0 986 1 992 c 1,26,-1
 -50 992 l 1,27,-1
 -50 1007 l 1,4,-1
0 608 m 1,28,-1
 201 608 l 1,29,-1
 201 593 l 1,30,-1
 0 593 l 1,31,-1
 0 608 l 1,28,-1
0 407 m 1,32,-1
 201 407 l 1,33,-1
 201 392 l 1,34,-1
 0 392 l 1,35,-1
 0 407 l 1,32,-1
0 208 m 1,36,-1
 201 208 l 1,37,-1
 201 193 l 1,38,-1
 0 193 l 1,39,-1
 0 208 l 1,36,-1
0 7 m 1,40,-1
 201 7 l 1,41,-1
 201 -8 l 1,42,-1
 0 -8 l 1,43,-1
 0 7 l 1,40,-1
0 608 m 1,44,-1
 201 608 l 1,45,-1
 201 593 l 1,46,-1
 0 593 l 1,47,-1
 0 608 l 1,44,-1
0 407 m 1,48,-1
 201 407 l 1,49,-1
 201 392 l 1,50,-1
 0 392 l 1,51,-1
 0 407 l 1,48,-1
0 208 m 1,52,-1
 201 208 l 1,53,-1
 201 193 l 1,54,-1
 0 193 l 1,55,-1
 0 208 l 1,52,-1
0 7 m 1,56,-1
 201 7 l 1,57,-1
 201 -8 l 1,58,-1
 0 -8 l 1,59,-1
 0 7 l 1,56,-1
EndSplineSet
Validated: 5
EndChar

StartChar: quotedblleft
Encoding: 8220 8220 110
Width: 252
Flags: W
LayerCount: 2
Fore
SplineSet
0 808 m 1,0,-1
 301 808 l 1,1,-1
 301 793 l 1,2,-1
 0 793 l 1,3,-1
 0 808 l 1,0,-1
0 608 m 1,4,-1
 301 608 l 1,5,-1
 301 593 l 1,6,-1
 0 593 l 1,7,-1
 0 608 l 1,4,-1
0 407 m 1,8,-1
 301 407 l 1,9,-1
 301 392 l 1,10,-1
 0 392 l 1,11,-1
 0 407 l 1,8,-1
0 208 m 1,12,-1
 301 208 l 1,13,-1
 301 193 l 1,14,-1
 0 193 l 1,15,-1
 0 208 l 1,12,-1
71 72 m 1,16,-1
 93 72 l 1,17,-1
 93 7 l 1,18,-1
 301 7 l 1,19,-1
 301 -8 l 1,20,-1
 93 -8 l 1,21,-1
 93 -108 l 1,22,-1
 203 -78 l 1,23,-1
 203 -472 l 1,24,-1
 181 -472 l 1,25,-1
 181 -296 l 1,26,-1
 71 -326 l 1,27,-1
 71 -8 l 1,28,-1
 0 -8 l 1,29,-1
 0 7 l 1,30,-1
 71 7 l 1,31,-1
 71 72 l 1,16,-1
181 -236 m 1,32,-1
 181 -138 l 1,33,-1
 93 -163 l 1,34,-1
 93 -260 l 1,35,-1
 181 -236 l 1,32,-1
EndSplineSet
Validated: 1
EndChar

StartChar: quotedblright
Encoding: 8221 8221 111
Width: 252
Flags: W
LayerCount: 2
Fore
SplineSet
0 808 m 1,0,-1
 301 808 l 1,1,-1
 301 793 l 1,2,-1
 0 793 l 1,3,-1
 0 808 l 1,0,-1
0 608 m 1,4,-1
 301 608 l 1,5,-1
 301 593 l 1,6,-1
 0 593 l 1,7,-1
 0 608 l 1,4,-1
0 407 m 1,8,-1
 301 407 l 1,9,-1
 301 392 l 1,10,-1
 0 392 l 1,11,-1
 0 407 l 1,8,-1
0 208 m 1,12,-1
 301 208 l 1,13,-1
 301 193 l 1,14,-1
 0 193 l 1,15,-1
 0 208 l 1,12,-1
71 172 m 1,16,-1
 93 172 l 1,17,-1
 93 7 l 1,18,-1
 149 7 l 1,19,-1
 203 22 l 1,20,-1
 203 7 l 1,21,-1
 301 7 l 1,22,-1
 301 -8 l 1,23,-1
 203 -8 l 1,24,-1
 203 -372 l 1,25,-1
 181 -372 l 1,26,-1
 181 -196 l 1,27,-1
 71 -226 l 1,28,-1
 71 -8 l 1,29,-1
 0 -8 l 1,30,-1
 0 7 l 1,31,-1
 71 7 l 1,32,-1
 71 172 l 1,16,-1
181 -136 m 1,33,-1
 181 -38 l 1,34,-1
 93 -63 l 1,35,-1
 93 -160 l 1,36,-1
 181 -136 l 1,33,-1
EndSplineSet
Validated: 1
EndChar

StartChar: bullet
Encoding: 8226 8226 112
Width: 252
Flags: W
LayerCount: 2
Fore
SplineSet
0 808 m 1,0,-1
 301 808 l 1,1,-1
 301 793 l 1,2,-1
 0 793 l 1,3,-1
 0 808 l 1,0,-1
0 608 m 1,4,-1
 301 608 l 1,5,-1
 301 593 l 1,6,-1
 0 593 l 1,7,-1
 0 608 l 1,4,-1
0 407 m 1,8,-1
 301 407 l 1,9,-1
 301 392 l 1,10,-1
 0 392 l 1,11,-1
 0 407 l 1,8,-1
71 272 m 1,12,-1
 93 272 l 1,13,-1
 93 208 l 1,14,-1
 301 208 l 1,15,-1
 301 193 l 1,16,-1
 93 193 l 1,17,-1
 93 92 l 1,18,-1
 203 122 l 1,19,-1
 203 7 l 1,20,-1
 301 7 l 1,21,-1
 301 -8 l 1,22,-1
 203 -8 l 1,23,-1
 203 -272 l 1,24,-1
 181 -272 l 1,25,-1
 181 -96 l 1,26,-1
 71 -126 l 1,27,-1
 71 -8 l 1,28,-1
 0 -8 l 1,29,-1
 0 7 l 1,30,-1
 71 7 l 1,31,-1
 71 193 l 1,32,-1
 0 193 l 1,33,-1
 0 208 l 1,34,-1
 71 208 l 1,35,-1
 71 272 l 1,12,-1
181 7 m 1,36,-1
 181 62 l 1,37,-1
 93 37 l 1,38,-1
 93 7 l 1,39,-1
 181 7 l 1,36,-1
181 -36 m 1,40,-1
 181 -8 l 1,41,-1
 93 -8 l 1,42,-1
 93 -60 l 1,43,-1
 181 -36 l 1,40,-1
EndSplineSet
Validated: 1
EndChar

StartChar: endash
Encoding: 8211 8211 113
Width: 252
Flags: W
LayerCount: 2
Fore
SplineSet
0 808 m 1,0,-1
 301 808 l 1,1,-1
 301 793 l 1,2,-1
 0 793 l 1,3,-1
 0 808 l 1,0,-1
0 608 m 1,4,-1
 301 608 l 1,5,-1
 301 593 l 1,6,-1
 0 593 l 1,7,-1
 0 608 l 1,4,-1
0 407 m 1,8,-1
 301 407 l 1,9,-1
 301 392 l 1,10,-1
 0 392 l 1,11,-1
 0 407 l 1,8,-1
93 193 m 1,12,-1
 93 192 l 1,13,-1
 96 193 l 1,14,-1
 93 193 l 1,12,-1
71 372 m 1,15,-1
 93 372 l 1,16,-1
 93 208 l 1,17,-1
 151 208 l 1,18,-1
 203 222 l 1,19,-1
 203 208 l 1,20,-1
 301 208 l 1,21,-1
 301 193 l 1,22,-1
 203 193 l 1,23,-1
 203 7 l 1,24,-1
 301 7 l 1,25,-1
 301 -8 l 1,26,-1
 203 -8 l 1,27,-1
 203 -172 l 1,28,-1
 181 -172 l 1,29,-1
 181 -8 l 1,30,-1
 136 -8 l 1,31,-1
 71 -26 l 1,32,-1
 71 -8 l 1,33,-1
 0 -8 l 1,34,-1
 0 7 l 1,35,-1
 71 7 l 1,36,-1
 71 193 l 1,37,-1
 0 193 l 1,38,-1
 0 208 l 1,39,-1
 71 208 l 1,40,-1
 71 372 l 1,15,-1
181 64 m 1,41,-1
 181 162 l 1,42,-1
 93 137 l 1,43,-1
 93 40 l 1,44,-1
 181 64 l 1,41,-1
EndSplineSet
Validated: 1
EndChar

StartChar: emdash
Encoding: 8212 8212 114
Width: 252
Flags: W
LayerCount: 2
Fore
SplineSet
0 808 m 1,0,-1
 301 808 l 1,1,-1
 301 793 l 1,2,-1
 0 793 l 1,3,-1
 0 808 l 1,0,-1
0 608 m 1,4,-1
 301 608 l 1,5,-1
 301 593 l 1,6,-1
 0 593 l 1,7,-1
 0 608 l 1,4,-1
71 472 m 1,8,-1
 93 472 l 1,9,-1
 93 407 l 1,10,-1
 301 407 l 1,11,-1
 301 392 l 1,12,-1
 93 392 l 1,13,-1
 93 292 l 1,14,-1
 203 322 l 1,15,-1
 203 208 l 1,16,-1
 301 208 l 1,17,-1
 301 193 l 1,18,-1
 203 193 l 1,19,-1
 203 7 l 1,20,-1
 301 7 l 1,21,-1
 301 -8 l 1,22,-1
 203 -8 l 1,23,-1
 203 -72 l 1,24,-1
 181 -72 l 1,25,-1
 181 -8 l 1,26,-1
 0 -8 l 1,27,-1
 0 7 l 1,28,-1
 181 7 l 1,29,-1
 181 104 l 1,30,-1
 71 74 l 1,31,-1
 71 193 l 1,32,-1
 0 193 l 1,33,-1
 0 208 l 1,34,-1
 71 208 l 1,35,-1
 71 392 l 1,36,-1
 0 392 l 1,37,-1
 0 407 l 1,38,-1
 71 407 l 1,39,-1
 71 472 l 1,8,-1
181 208 m 1,40,-1
 181 262 l 1,41,-1
 93 237 l 1,42,-1
 93 208 l 1,43,-1
 181 208 l 1,40,-1
181 164 m 1,44,-1
 181 193 l 1,45,-1
 93 193 l 1,46,-1
 93 140 l 1,47,-1
 181 164 l 1,44,-1
EndSplineSet
Validated: 1
EndChar

StartChar: tilde
Encoding: 732 732 115
Width: 252
Flags: W
LayerCount: 2
Fore
SplineSet
0 808 m 1,0,-1
 301 808 l 1,1,-1
 301 793 l 1,2,-1
 0 793 l 1,3,-1
 0 808 l 1,0,-1
0 608 m 1,4,-1
 301 608 l 1,5,-1
 301 593 l 1,6,-1
 0 593 l 1,7,-1
 0 608 l 1,4,-1
0 7 m 1,8,-1
 301 7 l 1,9,-1
 301 -8 l 1,10,-1
 0 -8 l 1,11,-1
 0 7 l 1,8,-1
93 392 m 1,12,-1
 93 392 l 1,13,-1
 95 392 l 1,14,-1
 93 392 l 1,12,-1
71 572 m 1,15,-1
 93 572 l 1,16,-1
 93 407 l 1,17,-1
 150 407 l 1,18,-1
 203 422 l 1,19,-1
 203 407 l 1,20,-1
 301 407 l 1,21,-1
 301 392 l 1,22,-1
 203 392 l 1,23,-1
 203 208 l 1,24,-1
 301 208 l 1,25,-1
 301 193 l 1,26,-1
 203 193 l 1,27,-1
 203 28 l 1,28,-1
 181 28 l 1,29,-1
 181 193 l 1,30,-1
 138 193 l 1,31,-1
 71 174 l 1,32,-1
 71 193 l 1,33,-1
 0 193 l 1,34,-1
 0 208 l 1,35,-1
 71 208 l 1,36,-1
 71 392 l 1,37,-1
 0 392 l 1,38,-1
 0 407 l 1,39,-1
 71 407 l 1,40,-1
 71 572 l 1,15,-1
181 264 m 1,41,-1
 181 362 l 1,42,-1
 93 337 l 1,43,-1
 93 240 l 1,44,-1
 181 264 l 1,41,-1
EndSplineSet
Validated: 1
EndChar

StartChar: trademark
Encoding: 8482 8482 116
Width: 252
Flags: W
LayerCount: 2
Fore
SplineSet
0 808 m 1,0,-1
 301 808 l 1,1,-1
 301 793 l 1,2,-1
 0 793 l 1,3,-1
 0 808 l 1,0,-1
0 7 m 1,4,-1
 301 7 l 1,5,-1
 301 -8 l 1,6,-1
 0 -8 l 1,7,-1
 0 7 l 1,4,-1
71 672 m 1,8,-1
 93 672 l 1,9,-1
 93 608 l 1,10,-1
 301 608 l 1,11,-1
 301 593 l 1,12,-1
 93 593 l 1,13,-1
 93 492 l 1,14,-1
 203 522 l 1,15,-1
 203 407 l 1,16,-1
 301 407 l 1,17,-1
 301 392 l 1,18,-1
 203 392 l 1,19,-1
 203 208 l 1,20,-1
 301 208 l 1,21,-1
 301 193 l 1,22,-1
 203 193 l 1,23,-1
 203 128 l 1,24,-1
 181 128 l 1,25,-1
 181 193 l 1,26,-1
 0 193 l 1,27,-1
 0 208 l 1,28,-1
 181 208 l 1,29,-1
 181 304 l 1,30,-1
 71 274 l 1,31,-1
 71 392 l 1,32,-1
 0 392 l 1,33,-1
 0 407 l 1,34,-1
 71 407 l 1,35,-1
 71 593 l 1,36,-1
 0 593 l 1,37,-1
 0 608 l 1,38,-1
 71 608 l 1,39,-1
 71 672 l 1,8,-1
181 407 m 1,40,-1
 181 462 l 1,41,-1
 93 437 l 1,42,-1
 93 407 l 1,43,-1
 181 407 l 1,40,-1
181 364 m 1,44,-1
 181 392 l 1,45,-1
 93 392 l 1,46,-1
 93 340 l 1,47,-1
 181 364 l 1,44,-1
EndSplineSet
Validated: 1
EndChar

StartChar: scaron
Encoding: 353 353 117
Width: 252
Flags: W
LayerCount: 2
Fore
SplineSet
0 808 m 1,0,-1
 301 808 l 1,1,-1
 301 793 l 1,2,-1
 0 793 l 1,3,-1
 0 808 l 1,0,-1
0 208 m 1,4,-1
 301 208 l 1,5,-1
 301 193 l 1,6,-1
 0 193 l 1,7,-1
 0 208 l 1,4,-1
0 7 m 1,8,-1
 301 7 l 1,9,-1
 301 -8 l 1,10,-1
 0 -8 l 1,11,-1
 0 7 l 1,8,-1
93 593 m 1,12,-1
 93 592 l 1,13,-1
 97 593 l 1,14,-1
 93 593 l 1,12,-1
71 772 m 1,15,-1
 93 772 l 1,16,-1
 93 608 l 1,17,-1
 152 608 l 1,18,-1
 203 622 l 1,19,-1
 203 608 l 1,20,-1
 301 608 l 1,21,-1
 301 593 l 1,22,-1
 203 593 l 1,23,-1
 203 407 l 1,24,-1
 301 407 l 1,25,-1
 301 392 l 1,26,-1
 203 392 l 1,27,-1
 203 228 l 1,28,-1
 181 228 l 1,29,-1
 181 392 l 1,30,-1
 138 392 l 1,31,-1
 71 374 l 1,32,-1
 71 392 l 1,33,-1
 0 392 l 1,34,-1
 0 407 l 1,35,-1
 71 407 l 1,36,-1
 71 593 l 1,37,-1
 0 593 l 1,38,-1
 0 608 l 1,39,-1
 71 608 l 1,40,-1
 71 772 l 1,15,-1
181 464 m 1,41,-1
 181 562 l 1,42,-1
 93 537 l 1,43,-1
 93 440 l 1,44,-1
 181 464 l 1,41,-1
EndSplineSet
Validated: 1
EndChar

StartChar: guilsinglright
Encoding: 8250 8250 118
Width: 252
Flags: W
LayerCount: 2
Fore
SplineSet
0 208 m 1,0,-1
 301 208 l 1,1,-1
 301 193 l 1,2,-1
 0 193 l 1,3,-1
 0 208 l 1,0,-1
0 7 m 1,4,-1
 301 7 l 1,5,-1
 301 -8 l 1,6,-1
 0 -8 l 1,7,-1
 0 7 l 1,4,-1
71 872 m 1,8,-1
 93 872 l 1,9,-1
 93 808 l 1,10,-1
 301 808 l 1,11,-1
 301 793 l 1,12,-1
 93 793 l 1,13,-1
 93 692 l 1,14,-1
 203 722 l 1,15,-1
 203 608 l 1,16,-1
 301 608 l 1,17,-1
 301 593 l 1,18,-1
 203 593 l 1,19,-1
 203 407 l 1,20,-1
 301 407 l 1,21,-1
 301 392 l 1,22,-1
 203 392 l 1,23,-1
 203 328 l 1,24,-1
 181 328 l 1,25,-1
 181 392 l 1,26,-1
 0 392 l 1,27,-1
 0 407 l 1,28,-1
 181 407 l 1,29,-1
 181 504 l 1,30,-1
 71 474 l 1,31,-1
 71 593 l 1,32,-1
 0 593 l 1,33,-1
 0 608 l 1,34,-1
 71 608 l 1,35,-1
 71 793 l 1,36,-1
 0 793 l 1,37,-1
 0 808 l 1,38,-1
 71 808 l 1,39,-1
 71 872 l 1,8,-1
181 608 m 1,40,-1
 181 662 l 1,41,-1
 93 637 l 1,42,-1
 93 608 l 1,43,-1
 181 608 l 1,40,-1
181 564 m 1,44,-1
 181 593 l 1,45,-1
 93 593 l 1,46,-1
 93 540 l 1,47,-1
 181 564 l 1,44,-1
EndSplineSet
Validated: 1
EndChar

StartChar: oe
Encoding: 339 339 119
Width: 252
Flags: W
LayerCount: 2
Fore
SplineSet
0 407 m 1,0,-1
 301 407 l 1,1,-1
 301 392 l 1,2,-1
 0 392 l 1,3,-1
 0 407 l 1,0,-1
0 208 m 1,4,-1
 301 208 l 1,5,-1
 301 193 l 1,6,-1
 0 193 l 1,7,-1
 0 208 l 1,4,-1
0 7 m 1,8,-1
 301 7 l 1,9,-1
 301 -8 l 1,10,-1
 0 -8 l 1,11,-1
 0 7 l 1,8,-1
93 793 m 1,12,-1
 93 792 l 1,13,-1
 96 793 l 1,14,-1
 93 793 l 1,12,-1
71 972 m 1,15,-1
 93 972 l 1,16,-1
 93 808 l 1,17,-1
 151 808 l 1,18,-1
 203 822 l 1,19,-1
 203 808 l 1,20,-1
 301 808 l 1,21,-1
 301 793 l 1,22,-1
 203 793 l 1,23,-1
 203 608 l 1,24,-1
 301 608 l 1,25,-1
 301 593 l 1,26,-1
 203 593 l 1,27,-1
 203 428 l 1,28,-1
 181 428 l 1,29,-1
 181 593 l 1,30,-1
 140 593 l 1,31,-1
 71 574 l 1,32,-1
 71 593 l 1,33,-1
 0 593 l 1,34,-1
 0 608 l 1,35,-1
 71 608 l 1,36,-1
 71 793 l 1,37,-1
 0 793 l 1,38,-1
 0 808 l 1,39,-1
 71 808 l 1,40,-1
 71 972 l 1,15,-1
181 664 m 1,41,-1
 181 762 l 1,42,-1
 93 737 l 1,43,-1
 93 640 l 1,44,-1
 181 664 l 1,41,-1
EndSplineSet
Validated: 1
EndChar

StartChar: Ydieresis
Encoding: 376 376 120
Width: 491
Flags: W
LayerCount: 2
Fore
SplineSet
0 808 m 1,0,-1
 571 808 l 1,1,-1
 571 793 l 1,2,-1
 0 793 l 1,3,-1
 0 808 l 1,0,-1
0 608 m 1,4,-1
 571 608 l 1,5,-1
 571 593 l 1,6,-1
 0 593 l 1,7,-1
 0 608 l 1,4,-1
0 407 m 1,8,-1
 571 407 l 1,9,-1
 571 392 l 1,10,-1
 0 392 l 1,11,-1
 0 407 l 1,8,-1
0 208 m 1,12,-1
 571 208 l 1,13,-1
 571 193 l 1,14,-1
 0 193 l 1,15,-1
 0 208 l 1,12,-1
256 -193 m 0,16,17
 290 -193 290 -193 311 -167 c 128,-1,18
 332 -141 332 -141 332 -106 c 0,19,20
 332 -70 332 -70 306.5 -40 c 128,-1,21
 281 -10 281 -10 246 -10 c 0,22,23
 212 -10 212 -10 189.5 -35.5 c 128,-1,24
 167 -61 167 -61 167 -95 c 0,25,26
 167 -133 167 -133 192.5 -163 c 128,-1,27
 218 -193 218 -193 256 -193 c 0,16,17
335 -8 m 1,28,29
 408 -31 408 -31 416 -86 c 1,30,-1
 416 -8 l 1,31,-1
 335 -8 l 1,28,29
81 -8 m 1,32,-1
 82 -83 l 1,33,34
 89 -30 89 -30 161 -8 c 1,35,-1
 81 -8 l 1,32,-1
82 -212 m 1,36,-1
 59 -212 l 1,37,-1
 59 -8 l 1,38,-1
 0 -8 l 1,39,-1
 0 7 l 1,40,-1
 59 7 l 1,41,-1
 59 11 l 1,42,-1
 81 11 l 1,43,-1
 81 7 l 1,44,-1
 416 7 l 1,45,-1
 416 11 l 1,46,-1
 439 11 l 1,47,-1
 439 7 l 1,48,-1
 571 7 l 1,49,-1
 571 -8 l 1,50,-1
 439 -8 l 1,51,-1
 439 -212 l 1,52,-1
 416 -212 l 1,53,-1
 416 -109 l 1,54,55
 410 -157 410 -157 359 -183 c 0,56,57
 314 -206 314 -206 252 -206 c 256,58,59
 190 -206 190 -206 142 -182 c 0,60,61
 89 -155 89 -155 82 -109 c 1,62,-1
 82 -212 l 1,36,-1
EndSplineSet
Validated: 1
EndChar

StartChar: exclamdown
Encoding: 161 161 121
Width: 491
Flags: W
LayerCount: 2
Fore
SplineSet
0 808 m 1,0,-1
 571 808 l 1,1,-1
 571 793 l 1,2,-1
 0 793 l 1,3,-1
 0 808 l 1,0,-1
0 608 m 1,4,-1
 571 608 l 1,5,-1
 571 593 l 1,6,-1
 0 593 l 1,7,-1
 0 608 l 1,4,-1
0 407 m 1,8,-1
 571 407 l 1,9,-1
 571 392 l 1,10,-1
 0 392 l 1,11,-1
 0 407 l 1,8,-1
0 208 m 1,12,-1
 571 208 l 1,13,-1
 571 193 l 1,14,-1
 0 193 l 1,15,-1
 0 208 l 1,12,-1
331 7 m 1,16,17
 326 40 326 40 302 65 c 128,-1,18
 278 90 278 90 246 90 c 0,19,20
 213 90 213 90 190.5 65.5 c 128,-1,21
 168 41 168 41 167 7 c 1,22,-1
 331 7 l 1,16,17
169 -11 m 1,23,24
 175 -47 175 -47 198.5 -70 c 128,-1,25
 222 -93 222 -93 256 -93 c 0,26,27
 289 -93 289 -93 310 -67.5 c 128,-1,28
 331 -42 331 -42 332 -8 c 1,29,-1
 168 -8 l 1,30,-1
 169 -11 l 1,23,24
82 -112 m 1,31,-1
 59 -112 l 1,32,-1
 59 -8 l 1,33,-1
 0 -8 l 1,34,-1
 0 7 l 1,35,-1
 59 7 l 1,36,-1
 59 111 l 1,37,-1
 81 111 l 1,38,-1
 82 17 l 1,39,40
 88 62 88 62 143 86 c 0,41,42
 189 105 189 105 252 105 c 0,43,44
 314 104 314 104 358 83 c 0,45,46
 410 58 410 58 416 14 c 1,47,-1
 416 111 l 1,48,-1
 439 111 l 1,49,-1
 439 7 l 1,50,-1
 571 7 l 1,51,-1
 571 -8 l 1,52,-1
 439 -8 l 1,53,-1
 439 -112 l 1,54,-1
 416 -112 l 1,55,-1
 416 -9 l 1,56,57
 410 -57 410 -57 359 -83 c 0,58,59
 314 -106 314 -106 252 -106 c 256,60,61
 190 -106 190 -106 142 -82 c 0,62,63
 89 -55 89 -55 82 -9 c 1,64,-1
 82 -112 l 1,31,-1
EndSplineSet
Validated: 1
EndChar

StartChar: cent
Encoding: 162 162 122
Width: 491
Flags: W
LayerCount: 2
Fore
SplineSet
0 808 m 1,0,-1
 571 808 l 1,1,-1
 571 793 l 1,2,-1
 0 793 l 1,3,-1
 0 808 l 1,0,-1
0 608 m 1,4,-1
 571 608 l 1,5,-1
 571 593 l 1,6,-1
 0 593 l 1,7,-1
 0 608 l 1,4,-1
0 407 m 1,8,-1
 571 407 l 1,9,-1
 571 392 l 1,10,-1
 0 392 l 1,11,-1
 0 407 l 1,8,-1
256 7 m 0,12,13
 290 7 290 7 311 33 c 128,-1,14
 332 59 332 59 332 94 c 0,15,16
 332 130 332 130 306.5 160 c 128,-1,17
 281 190 281 190 246 190 c 0,18,19
 212 190 212 190 189.5 164.5 c 128,-1,20
 167 139 167 139 167 105 c 0,21,22
 167 67 167 67 192.5 37 c 128,-1,23
 218 7 218 7 256 7 c 0,12,13
416 7 m 1,24,-1
 416 91 l 1,25,26
 408 32 408 32 335 7 c 1,27,-1
 170 7 l 1,28,29
 91 33 91 33 82 91 c 1,30,-1
 82 7 l 1,31,-1
 416 7 l 1,24,-1
333 193 m 1,32,33
 408 169 408 169 416 114 c 1,34,-1
 416 193 l 1,35,-1
 333 193 l 1,32,33
81 193 m 1,36,-1
 82 117 l 1,37,38
 89 170 89 170 162 193 c 1,39,-1
 81 193 l 1,36,-1
82 -12 m 1,40,-1
 59 -12 l 1,41,-1
 59 -8 l 1,42,-1
 0 -8 l 1,43,-1
 0 7 l 1,44,-1
 59 7 l 1,45,-1
 59 193 l 1,46,-1
 0 193 l 1,47,-1
 0 208 l 1,48,-1
 59 208 l 1,49,-1
 59 211 l 1,50,-1
 81 211 l 1,51,-1
 81 208 l 1,52,-1
 416 208 l 1,53,-1
 416 211 l 1,54,-1
 439 211 l 1,55,-1
 439 208 l 1,56,-1
 571 208 l 1,57,-1
 571 193 l 1,58,-1
 439 193 l 1,59,-1
 439 7 l 1,60,-1
 571 7 l 1,61,-1
 571 -8 l 1,62,-1
 439 -8 l 1,63,-1
 439 -12 l 1,64,-1
 416 -12 l 1,65,-1
 416 -8 l 1,66,-1
 82 -8 l 1,67,-1
 82 -12 l 1,40,-1
EndSplineSet
Validated: 5
EndChar

StartChar: sterling
Encoding: 163 163 123
Width: 491
Flags: W
LayerCount: 2
Fore
SplineSet
0 808 m 1,0,-1
 571 808 l 1,1,-1
 571 793 l 1,2,-1
 0 793 l 1,3,-1
 0 808 l 1,0,-1
0 608 m 1,4,-1
 571 608 l 1,5,-1
 571 593 l 1,6,-1
 0 593 l 1,7,-1
 0 608 l 1,4,-1
0 407 m 1,8,-1
 571 407 l 1,9,-1
 571 392 l 1,10,-1
 0 392 l 1,11,-1
 0 407 l 1,8,-1
0 7 m 1,12,-1
 571 7 l 1,13,-1
 571 -8 l 1,14,-1
 0 -8 l 1,15,-1
 0 7 l 1,12,-1
331 208 m 1,16,17
 326 240 326 240 302 265 c 128,-1,18
 278 290 278 290 246 290 c 0,19,20
 213 290 213 290 190.5 265.5 c 128,-1,21
 168 241 168 241 168 208 c 1,22,-1
 331 208 l 1,16,17
169 189 m 2,23,24
 175 153 175 153 198.5 130 c 128,-1,25
 222 107 222 107 256 107 c 0,26,27
 289 107 289 107 310 132.5 c 128,-1,28
 331 158 331 158 332 193 c 1,29,-1
 168 193 l 1,30,-1
 169 189 l 2,23,24
82 88 m 1,31,-1
 59 88 l 1,32,-1
 59 193 l 1,33,-1
 0 193 l 1,34,-1
 0 208 l 1,35,-1
 59 208 l 1,36,-1
 59 311 l 1,37,-1
 81 311 l 1,38,-1
 82 217 l 1,39,40
 88 262 88 262 143 286 c 0,41,42
 189 305 189 305 252 305 c 0,43,44
 314 304 314 304 358 283 c 0,45,46
 410 258 410 258 416 214 c 1,47,-1
 416 311 l 1,48,-1
 439 311 l 1,49,-1
 439 208 l 1,50,-1
 571 208 l 1,51,-1
 571 193 l 1,52,-1
 439 193 l 1,53,-1
 439 88 l 1,54,-1
 416 88 l 1,55,-1
 416 191 l 1,56,57
 410 143 410 143 359 117 c 0,58,59
 314 94 314 94 252 94 c 256,60,61
 190 94 190 94 142 118 c 0,62,63
 89 145 89 145 82 191 c 1,64,-1
 82 88 l 1,31,-1
EndSplineSet
Validated: 1
EndChar

StartChar: yen
Encoding: 165 165 124
Width: 491
Flags: W
LayerCount: 2
Fore
SplineSet
0 808 m 1,0,-1
 571 808 l 1,1,-1
 571 793 l 1,2,-1
 0 793 l 1,3,-1
 0 808 l 1,0,-1
0 608 m 1,4,-1
 571 608 l 1,5,-1
 571 593 l 1,6,-1
 0 593 l 1,7,-1
 0 608 l 1,4,-1
0 208 m 1,8,-1
 571 208 l 1,9,-1
 571 193 l 1,10,-1
 0 193 l 1,11,-1
 0 208 l 1,8,-1
0 7 m 1,12,-1
 571 7 l 1,13,-1
 571 -8 l 1,14,-1
 0 -8 l 1,15,-1
 0 7 l 1,12,-1
331 407 m 1,16,17
 326 440 326 440 302 465 c 128,-1,18
 278 490 278 490 246 490 c 0,19,20
 213 490 213 490 190.5 465.5 c 128,-1,21
 168 441 168 441 168 407 c 1,22,-1
 331 407 l 1,16,17
169 389 m 1,23,24
 175 353 175 353 198.5 330 c 128,-1,25
 222 307 222 307 256 307 c 0,26,27
 289 307 289 307 310 332.5 c 128,-1,28
 331 358 331 358 332 392 c 1,29,-1
 168 392 l 1,30,-1
 169 389 l 1,23,24
82 288 m 1,31,-1
 59 288 l 1,32,-1
 59 392 l 1,33,-1
 0 392 l 1,34,-1
 0 407 l 1,35,-1
 59 407 l 1,36,-1
 59 511 l 1,37,-1
 81 511 l 1,38,-1
 82 417 l 1,39,40
 88 462 88 462 143 486 c 0,41,42
 189 505 189 505 252 505 c 0,43,44
 314 504 314 504 358 483 c 0,45,46
 410 458 410 458 416 414 c 1,47,-1
 416 511 l 1,48,-1
 439 511 l 1,49,-1
 439 407 l 1,50,-1
 571 407 l 1,51,-1
 571 392 l 1,52,-1
 439 392 l 1,53,-1
 439 288 l 1,54,-1
 416 288 l 1,55,-1
 416 391 l 1,56,57
 410 343 410 343 359 317 c 0,58,59
 314 294 314 294 252 294 c 256,60,61
 190 294 190 294 142 318 c 0,62,63
 89 345 89 345 82 391 c 1,64,-1
 82 288 l 1,31,-1
EndSplineSet
Validated: 1
EndChar

StartChar: brokenbar
Encoding: 166 166 125
Width: 491
Flags: W
LayerCount: 2
Fore
SplineSet
0 208 m 1,0,-1
 571 208 l 1,1,-1
 571 193 l 1,2,-1
 0 193 l 1,3,-1
 0 208 l 1,0,-1
249 407 m 0,4,5
 256 407 256 407 262 407 c 0,6,7
 294 410 294 410 313 436 c 128,-1,8
 332 462 332 462 332 494 c 0,9,10
 332 530 332 530 306.5 560 c 128,-1,11
 281 590 281 590 246 590 c 0,12,13
 212 590 212 590 189.5 564.5 c 128,-1,14
 167 539 167 539 167 505 c 0,15,16
 167 469 167 469 190.5 439.5 c 128,-1,17
 214 410 214 410 249 407 c 0,4,5
169 407 m 1,18,19
 90 434 90 434 82 491 c 1,20,-1
 82 407 l 1,21,-1
 169 407 l 1,18,19
416 407 m 1,22,-1
 416 491 l 1,23,24
 408 432 408 432 336 407 c 1,25,-1
 416 407 l 1,22,-1
332 593 m 1,26,27
 408 570 408 570 416 514 c 1,28,-1
 416 593 l 1,29,-1
 332 593 l 1,26,27
81 593 m 1,30,-1
 82 517 l 1,31,32
 89 571 89 571 164 593 c 1,33,-1
 81 593 l 1,30,-1
82 388 m 1,34,-1
 59 388 l 1,35,-1
 59 392 l 1,36,-1
 0 392 l 1,37,-1
 0 407 l 1,38,-1
 59 407 l 1,39,-1
 59 593 l 1,40,-1
 0 593 l 1,41,-1
 0 608 l 1,42,-1
 59 608 l 1,43,-1
 59 611 l 1,44,-1
 81 611 l 1,45,-1
 81 608 l 1,46,-1
 416 608 l 1,47,-1
 416 611 l 1,48,-1
 439 611 l 1,49,-1
 439 608 l 1,50,-1
 571 608 l 1,51,-1
 571 593 l 1,52,-1
 439 593 l 1,53,-1
 439 407 l 1,54,-1
 571 407 l 1,55,-1
 571 392 l 1,56,-1
 439 392 l 1,57,-1
 439 388 l 1,58,-1
 416 388 l 1,59,-1
 416 392 l 1,60,-1
 82 392 l 1,61,-1
 82 388 l 1,34,-1
249 407 m 1,62,-1
 262 407 l 1,63,64
 256 407 256 407 249 407 c 1,62,-1
0 808 m 1,65,-1
 571 808 l 1,66,-1
 571 793 l 1,67,-1
 0 793 l 1,68,-1
 0 808 l 1,65,-1
0 7 m 1,69,-1
 571 7 l 1,70,-1
 571 -8 l 1,71,-1
 0 -8 l 1,72,-1
 0 7 l 1,69,-1
0 808 m 1,73,-1
 571 808 l 1,74,-1
 571 793 l 1,75,-1
 0 793 l 1,76,-1
 0 808 l 1,73,-1
0 7 m 1,77,-1
 571 7 l 1,78,-1
 571 -8 l 1,79,-1
 0 -8 l 1,80,-1
 0 7 l 1,77,-1
EndSplineSet
Validated: 5
EndChar

StartChar: section
Encoding: 167 167 126
Width: 74
Flags: W
LayerCount: 2
Fore
SplineSet
0 808 m 1,0,-1
 131 808 l 1,1,-1
 131 793 l 1,2,-1
 0 793 l 1,3,-1
 0 808 l 1,0,-1
0 608 m 1,4,-1
 131 608 l 1,5,-1
 131 593 l 1,6,-1
 0 593 l 1,7,-1
 0 608 l 1,4,-1
0 407 m 1,8,-1
 131 407 l 1,9,-1
 131 392 l 1,10,-1
 0 392 l 1,11,-1
 0 407 l 1,8,-1
0 208 m 1,12,-1
 131 208 l 1,13,-1
 131 193 l 1,14,-1
 0 193 l 1,15,-1
 0 208 l 1,12,-1
0 7 m 1,16,-1
 131 7 l 1,17,-1
 131 -8 l 1,18,-1
 0 -8 l 1,19,-1
 0 7 l 1,16,-1
0 808 m 1,20,-1
 131 808 l 1,21,-1
 131 793 l 1,22,-1
 0 793 l 1,23,-1
 0 808 l 1,20,-1
0 608 m 1,24,-1
 131 608 l 1,25,-1
 131 593 l 1,26,-1
 0 593 l 1,27,-1
 0 608 l 1,24,-1
0 407 m 1,28,-1
 131 407 l 1,29,-1
 131 392 l 1,30,-1
 0 392 l 1,31,-1
 0 407 l 1,28,-1
0 208 m 1,32,-1
 131 208 l 1,33,-1
 131 193 l 1,34,-1
 0 193 l 1,35,-1
 0 208 l 1,32,-1
0 7 m 1,36,-1
 131 7 l 1,37,-1
 131 -8 l 1,38,-1
 0 -8 l 1,39,-1
 0 7 l 1,36,-1
0 -246 m 0,40,41
 -3 -229 -3 -229 -17 -221 c 128,-1,42
 -31 -213 -31 -213 -33.5 -202.5 c 128,-1,43
 -36 -192 -36 -192 -36 -183 c 0,44,45
 -36 -147 -36 -147 -6 -147 c 0,46,47
 2 -147 2 -147 4 -151 c 0,48,49
 18 -180 18 -180 21 -187 c 0,50,51
 28 -205 28 -205 32 -228 c 0,52,53
 37 -256 37 -256 34 -278 c 0,54,55
 31 -293 31 -293 28 -309 c 0,56,57
 23 -339 23 -339 12 -361 c 128,-1,58
 1 -383 1 -383 -11 -383 c 0,59,60
 -22 -383 -22 -383 -36.5 -364 c 128,-1,61
 -51 -345 -51 -345 -51 -334 c 0,62,63
 -51 -330 -51 -330 -49 -328 c 0,64,65
 -45 -322 -45 -322 -30 -325 c 0,66,67
 -8 -329 -8 -329 -8 -329 c 2,68,69
 -1 -329 -1 -329 0 -324 c 0,70,71
 8 -292 8 -292 0 -246 c 0,40,41
EndSplineSet
Validated: 37
EndChar

StartChar: dieresis
Encoding: 168 168 127
Width: 69
Flags: W
LayerCount: 2
Fore
SplineSet
0 808 m 1,0,-1
 111 808 l 1,1,-1
 111 793 l 1,2,-1
 0 793 l 1,3,-1
 0 808 l 1,0,-1
0 608 m 1,4,-1
 111 608 l 1,5,-1
 111 593 l 1,6,-1
 0 593 l 1,7,-1
 0 608 l 1,4,-1
0 407 m 1,8,-1
 111 407 l 1,9,-1
 111 392 l 1,10,-1
 0 392 l 1,11,-1
 0 407 l 1,8,-1
0 208 m 1,12,-1
 111 208 l 1,13,-1
 111 193 l 1,14,-1
 0 193 l 1,15,-1
 0 208 l 1,12,-1
0 7 m 1,16,-1
 111 7 l 1,17,-1
 111 -8 l 1,18,-1
 0 -8 l 1,19,-1
 0 7 l 1,16,-1
0 808 m 1,20,-1
 111 808 l 1,21,-1
 111 793 l 1,22,-1
 0 793 l 1,23,-1
 0 808 l 1,20,-1
0 608 m 1,24,-1
 111 608 l 1,25,-1
 111 593 l 1,26,-1
 0 593 l 1,27,-1
 0 608 l 1,24,-1
0 407 m 1,28,-1
 111 407 l 1,29,-1
 111 392 l 1,30,-1
 0 392 l 1,31,-1
 0 407 l 1,28,-1
0 208 m 1,32,-1
 111 208 l 1,33,-1
 111 193 l 1,34,-1
 0 193 l 1,35,-1
 0 208 l 1,32,-1
0 7 m 1,36,-1
 111 7 l 1,37,-1
 111 -8 l 1,38,-1
 0 -8 l 1,39,-1
 0 7 l 1,36,-1
EndSplineSet
Validated: 5
EndChar

StartChar: copyright
Encoding: 169 169 128
Width: 491
Flags: W
LayerCount: 2
Fore
SplineSet
0 808 m 1,0,-1
 571 808 l 1,1,-1
 571 793 l 1,2,-1
 0 793 l 1,3,-1
 0 808 l 1,0,-1
0 407 m 1,4,-1
 571 407 l 1,5,-1
 571 392 l 1,6,-1
 0 392 l 1,7,-1
 0 407 l 1,4,-1
0 208 m 1,8,-1
 571 208 l 1,9,-1
 571 193 l 1,10,-1
 0 193 l 1,11,-1
 0 208 l 1,8,-1
0 7 m 1,12,-1
 571 7 l 1,13,-1
 571 -8 l 1,14,-1
 0 -8 l 1,15,-1
 0 7 l 1,12,-1
331 608 m 1,16,17
 325 641 325 641 301.5 665.5 c 128,-1,18
 278 690 278 690 246 690 c 0,19,20
 213 690 213 690 191 665.5 c 128,-1,21
 169 641 169 641 168 608 c 1,22,-1
 331 608 l 1,16,17
169 589 m 2,23,24
 175 553 175 553 198.5 530 c 128,-1,25
 222 507 222 507 256 507 c 0,26,27
 289 507 289 507 311 534 c 0,28,29
 332 558 332 558 332 593 c 1,30,-1
 168 593 l 1,31,-1
 169 589 l 2,23,24
82 488 m 1,32,-1
 59 488 l 1,33,-1
 59 593 l 1,34,-1
 0 593 l 1,35,-1
 0 608 l 1,36,-1
 59 608 l 1,37,-1
 59 711 l 1,38,-1
 81 711 l 1,39,-1
 82 617 l 1,40,41
 88 662 88 662 143 686 c 0,42,43
 189 705 189 705 252 705 c 0,44,45
 314 704 314 704 358 683 c 0,46,47
 410 658 410 658 416 614 c 1,48,-1
 416 711 l 1,49,-1
 439 711 l 1,50,-1
 439 608 l 1,51,-1
 571 608 l 1,52,-1
 571 593 l 1,53,-1
 439 593 l 1,54,-1
 439 488 l 1,55,-1
 416 488 l 1,56,-1
 416 591 l 1,57,58
 410 543 410 543 359 517 c 0,59,60
 314 494 314 494 252 494 c 256,61,62
 190 494 190 494 142 518 c 0,63,64
 89 545 89 545 82 591 c 1,65,-1
 82 488 l 1,32,-1
EndSplineSet
Validated: 1
EndChar

StartChar: ordfeminine
Encoding: 170 170 129
Width: 491
Flags: W
LayerCount: 2
Fore
SplineSet
244 608 m 1,0,-1
 268 608 l 1,1,-1
 270 608 l 1,2,3
 297 612 297 612 314.5 638 c 128,-1,4
 332 664 332 664 332 694 c 0,5,6
 332 730 332 730 306.5 760 c 128,-1,7
 281 790 281 790 246 790 c 0,8,9
 212 790 212 790 189.5 764.5 c 128,-1,10
 167 739 167 739 167 705 c 256,11,12
 167 671 167 671 189 642 c 128,-1,13
 211 613 211 613 244 608 c 1,0,-1
167 608 m 1,14,15
 90 634 90 634 82 691 c 1,16,-1
 82 608 l 1,17,-1
 167 608 l 1,14,15
416 608 m 1,18,-1
 416 691 l 1,19,20
 408 633 408 633 338 608 c 1,21,-1
 416 608 l 1,18,-1
333 793 m 1,22,23
 408 769 408 769 416 714 c 1,24,-1
 416 793 l 1,25,-1
 333 793 l 1,22,23
81 793 m 1,26,-1
 82 717 l 1,27,28
 89 771 89 771 163 793 c 1,29,-1
 81 793 l 1,26,-1
82 588 m 1,30,-1
 59 588 l 1,31,-1
 59 593 l 1,32,-1
 0 593 l 1,33,-1
 0 608 l 1,34,-1
 59 608 l 1,35,-1
 59 793 l 1,36,-1
 0 793 l 1,37,-1
 0 808 l 1,38,-1
 59 808 l 1,39,-1
 59 811 l 1,40,-1
 81 811 l 1,41,-1
 81 808 l 1,42,-1
 416 808 l 1,43,-1
 416 811 l 1,44,-1
 439 811 l 1,45,-1
 439 808 l 1,46,-1
 571 808 l 1,47,-1
 571 793 l 1,48,-1
 439 793 l 1,49,-1
 439 608 l 1,50,-1
 571 608 l 1,51,-1
 571 593 l 1,52,-1
 439 593 l 1,53,-1
 439 588 l 1,54,-1
 416 588 l 1,55,-1
 416 593 l 1,56,-1
 82 593 l 1,57,-1
 82 588 l 1,30,-1
0 407 m 1,58,-1
 571 407 l 1,59,-1
 571 392 l 1,60,-1
 0 392 l 1,61,-1
 0 407 l 1,58,-1
0 208 m 1,62,-1
 571 208 l 1,63,-1
 571 193 l 1,64,-1
 0 193 l 1,65,-1
 0 208 l 1,62,-1
0 7 m 1,66,-1
 571 7 l 1,67,-1
 571 -8 l 1,68,-1
 0 -8 l 1,69,-1
 0 7 l 1,66,-1
0 407 m 1,70,-1
 571 407 l 1,71,-1
 571 392 l 1,72,-1
 0 392 l 1,73,-1
 0 407 l 1,70,-1
0 208 m 1,74,-1
 571 208 l 1,75,-1
 571 193 l 1,76,-1
 0 193 l 1,77,-1
 0 208 l 1,74,-1
0 7 m 1,78,-1
 571 7 l 1,79,-1
 571 -8 l 1,80,-1
 0 -8 l 1,81,-1
 0 7 l 1,78,-1
EndSplineSet
Validated: 5
EndChar

StartChar: guillemotleft
Encoding: 171 171 130
Width: 491
Flags: W
LayerCount: 2
Fore
SplineSet
0 608 m 1,0,-1
 571 608 l 1,1,-1
 571 593 l 1,2,-1
 0 593 l 1,3,-1
 0 608 l 1,0,-1
0 407 m 1,4,-1
 571 407 l 1,5,-1
 571 392 l 1,6,-1
 0 392 l 1,7,-1
 0 407 l 1,4,-1
0 208 m 1,8,-1
 571 208 l 1,9,-1
 571 193 l 1,10,-1
 0 193 l 1,11,-1
 0 208 l 1,8,-1
0 7 m 1,12,-1
 571 7 l 1,13,-1
 571 -8 l 1,14,-1
 0 -8 l 1,15,-1
 0 7 l 1,12,-1
331 808 m 1,16,17
 326 840 326 840 302 865 c 128,-1,18
 278 890 278 890 246 890 c 0,19,20
 213 890 213 890 191 865.5 c 128,-1,21
 169 841 169 841 168 808 c 1,22,-1
 331 808 l 1,16,17
169 789 m 2,23,24
 175 753 175 753 198.5 730 c 128,-1,25
 222 707 222 707 256 707 c 0,26,27
 289 707 289 707 310 732.5 c 128,-1,28
 331 758 331 758 332 793 c 1,29,-1
 168 793 l 1,30,-1
 169 789 l 2,23,24
82 688 m 1,31,-1
 59 688 l 1,32,-1
 59 793 l 1,33,-1
 0 793 l 1,34,-1
 0 808 l 1,35,-1
 59 808 l 1,36,-1
 59 911 l 1,37,-1
 81 911 l 1,38,-1
 82 817 l 1,39,40
 88 862 88 862 143 886 c 0,41,42
 189 905 189 905 252 905 c 0,43,44
 314 904 314 904 358 883 c 0,45,46
 410 858 410 858 416 814 c 1,47,-1
 416 911 l 1,48,-1
 439 911 l 1,49,-1
 439 808 l 1,50,-1
 571 808 l 1,51,-1
 571 793 l 1,52,-1
 439 793 l 1,53,-1
 439 688 l 1,54,-1
 416 688 l 1,55,-1
 416 791 l 1,56,57
 410 743 410 743 359 717 c 0,58,59
 314 694 314 694 252 694 c 256,60,61
 190 694 190 694 142 718 c 0,62,63
 89 745 89 745 82 791 c 1,64,-1
 82 688 l 1,31,-1
EndSplineSet
Validated: 1
EndChar

StartChar: logicalnot
Encoding: 172 172 131
Width: 491
Flags: W
LayerCount: 2
Fore
SplineSet
0 608 m 1,0,-1
 571 608 l 1,1,-1
 571 593 l 1,2,-1
 0 593 l 1,3,-1
 0 608 l 1,0,-1
0 407 m 1,4,-1
 571 407 l 1,5,-1
 571 392 l 1,6,-1
 0 392 l 1,7,-1
 0 407 l 1,4,-1
0 208 m 1,8,-1
 571 208 l 1,9,-1
 571 193 l 1,10,-1
 0 193 l 1,11,-1
 0 208 l 1,8,-1
0 7 m 1,12,-1
 571 7 l 1,13,-1
 571 -8 l 1,14,-1
 0 -8 l 1,15,-1
 0 7 l 1,12,-1
246 808 m 1,16,-1
 266 808 l 1,17,-1
 270 808 l 1,18,19
 297 812 297 812 314.5 838 c 128,-1,20
 332 864 332 864 332 894 c 0,21,22
 332 930 332 930 306.5 960 c 128,-1,23
 281 990 281 990 246 990 c 0,24,25
 212 990 212 990 189.5 964.5 c 128,-1,26
 167 939 167 939 167 905 c 0,27,28
 167 870 167 870 189.5 841 c 128,-1,29
 212 812 212 812 246 808 c 1,16,-1
168 808 m 1,30,31
 90 834 90 834 82 891 c 1,32,-1
 82 808 l 1,33,-1
 168 808 l 1,30,31
416 808 m 1,34,-1
 416 891 l 1,35,36
 408 833 408 833 337 808 c 1,37,-1
 416 808 l 1,34,-1
82 788 m 1,38,-1
 59 788 l 1,39,-1
 59 793 l 1,40,-1
 0 793 l 1,41,-1
 0 808 l 1,42,-1
 59 808 l 1,43,-1
 59 1011 l 1,44,-1
 81 1011 l 1,45,-1
 82 917 l 1,46,47
 88 962 88 962 143 986 c 0,48,49
 189 1005 189 1005 252 1005 c 0,50,51
 314 1004 314 1004 358 983 c 0,52,53
 410 958 410 958 416 914 c 1,54,-1
 416 1011 l 1,55,-1
 439 1011 l 1,56,-1
 439 808 l 1,57,-1
 571 808 l 1,58,-1
 571 793 l 1,59,-1
 439 793 l 1,60,-1
 439 788 l 1,61,-1
 416 788 l 1,62,-1
 416 793 l 1,63,-1
 82 793 l 1,64,-1
 82 788 l 1,38,-1
EndSplineSet
Validated: 1
EndChar

StartChar: minus
Encoding: 173 173 132
AltUni2: 002212.ffffffff.0
Width: 74
Flags: W
LayerCount: 2
Fore
SplineSet
0 808 m 1,0,-1
 131 808 l 1,1,-1
 131 793 l 1,2,-1
 0 793 l 1,3,-1
 0 808 l 1,0,-1
0 608 m 1,4,-1
 131 608 l 1,5,-1
 131 593 l 1,6,-1
 0 593 l 1,7,-1
 0 608 l 1,4,-1
0 407 m 1,8,-1
 131 407 l 1,9,-1
 131 392 l 1,10,-1
 0 392 l 1,11,-1
 0 407 l 1,8,-1
0 208 m 1,12,-1
 131 208 l 1,13,-1
 131 193 l 1,14,-1
 0 193 l 1,15,-1
 0 208 l 1,12,-1
0 7 m 1,16,-1
 131 7 l 1,17,-1
 131 -8 l 1,18,-1
 0 -8 l 1,19,-1
 0 7 l 1,16,-1
0 808 m 1,20,-1
 131 808 l 1,21,-1
 131 793 l 1,22,-1
 0 793 l 1,23,-1
 0 808 l 1,20,-1
0 608 m 1,24,-1
 131 608 l 1,25,-1
 131 593 l 1,26,-1
 0 593 l 1,27,-1
 0 608 l 1,24,-1
0 407 m 1,28,-1
 131 407 l 1,29,-1
 131 392 l 1,30,-1
 0 392 l 1,31,-1
 0 407 l 1,28,-1
0 208 m 1,32,-1
 131 208 l 1,33,-1
 131 193 l 1,34,-1
 0 193 l 1,35,-1
 0 208 l 1,32,-1
0 7 m 1,36,-1
 131 7 l 1,37,-1
 131 -8 l 1,38,-1
 0 -8 l 1,39,-1
 0 7 l 1,36,-1
0 -346 m 0,40,41
 -3 -329 -3 -329 -17 -321 c 128,-1,42
 -31 -313 -31 -313 -33.5 -302.5 c 128,-1,43
 -36 -292 -36 -292 -36 -283 c 0,44,45
 -36 -247 -36 -247 -6 -247 c 0,46,47
 2 -247 2 -247 4 -251 c 0,48,49
 18 -280 18 -280 21 -287 c 0,50,51
 28 -305 28 -305 32 -328 c 0,52,53
 37 -356 37 -356 34 -378 c 0,54,55
 31 -393 31 -393 28 -409 c 0,56,57
 23 -439 23 -439 12 -461 c 128,-1,58
 1 -483 1 -483 -11 -483 c 0,59,60
 -22 -483 -22 -483 -36.5 -464 c 128,-1,61
 -51 -445 -51 -445 -51 -434 c 0,62,63
 -51 -430 -51 -430 -49 -428 c 0,64,65
 -45 -422 -45 -422 -30 -425 c 0,66,67
 -8 -429 -8 -429 -8 -429 c 2,68,69
 -1 -429 -1 -429 0 -424 c 0,70,71
 8 -392 8 -392 0 -346 c 0,40,41
EndSplineSet
Validated: 37
EndChar

StartChar: registered
Encoding: 174 174 133
Width: 74
Flags: W
LayerCount: 2
Fore
SplineSet
0 808 m 1,0,-1
 131 808 l 1,1,-1
 131 793 l 1,2,-1
 0 793 l 1,3,-1
 0 808 l 1,0,-1
0 608 m 1,4,-1
 131 608 l 1,5,-1
 131 593 l 1,6,-1
 0 593 l 1,7,-1
 0 608 l 1,4,-1
0 407 m 1,8,-1
 131 407 l 1,9,-1
 131 392 l 1,10,-1
 0 392 l 1,11,-1
 0 407 l 1,8,-1
0 208 m 1,12,-1
 131 208 l 1,13,-1
 131 193 l 1,14,-1
 0 193 l 1,15,-1
 0 208 l 1,12,-1
0 7 m 1,16,-1
 131 7 l 1,17,-1
 131 -8 l 1,18,-1
 0 -8 l 1,19,-1
 0 7 l 1,16,-1
0 808 m 1,20,-1
 131 808 l 1,21,-1
 131 793 l 1,22,-1
 0 793 l 1,23,-1
 0 808 l 1,20,-1
0 608 m 1,24,-1
 131 608 l 1,25,-1
 131 593 l 1,26,-1
 0 593 l 1,27,-1
 0 608 l 1,24,-1
0 407 m 1,28,-1
 131 407 l 1,29,-1
 131 392 l 1,30,-1
 0 392 l 1,31,-1
 0 407 l 1,28,-1
0 208 m 1,32,-1
 131 208 l 1,33,-1
 131 193 l 1,34,-1
 0 193 l 1,35,-1
 0 208 l 1,32,-1
0 7 m 1,36,-1
 131 7 l 1,37,-1
 131 -8 l 1,38,-1
 0 -8 l 1,39,-1
 0 7 l 1,36,-1
0 -446 m 0,40,41
 -3 -429 -3 -429 -17 -421 c 128,-1,42
 -31 -413 -31 -413 -33.5 -402.5 c 128,-1,43
 -36 -392 -36 -392 -36 -383 c 0,44,45
 -36 -347 -36 -347 -6 -347 c 0,46,47
 2 -347 2 -347 4 -351 c 0,48,49
 18 -380 18 -380 21 -387 c 0,50,51
 28 -405 28 -405 32 -428 c 0,52,53
 37 -456 37 -456 34 -478 c 0,54,55
 31 -493 31 -493 28 -509 c 0,56,57
 23 -539 23 -539 12 -561 c 128,-1,58
 1 -583 1 -583 -11 -583 c 0,59,60
 -22 -583 -22 -583 -36.5 -564 c 128,-1,61
 -51 -545 -51 -545 -51 -534 c 0,62,63
 -51 -530 -51 -530 -49 -528 c 0,64,65
 -45 -522 -45 -522 -30 -525 c 0,66,67
 -8 -529 -8 -529 -8 -529 c 2,68,69
 -1 -529 -1 -529 0 -524 c 0,70,71
 8 -492 8 -492 0 -446 c 0,40,41
EndSplineSet
Validated: 37
EndChar

StartChar: macron
Encoding: 175 175 134
AltUni2: 0002c9.ffffffff.0
Width: 143
Flags: W
LayerCount: 2
Fore
SplineSet
12 -352 m 0,0,1
 0 -339 0 -339 0 -319 c 0,2,3
 1 -276 1 -276 48 -249 c 0,4,5
 74 -234 74 -234 98 -234 c 0,6,7
 123 -234 123 -234 141 -251 c 0,8,9
 156 -265 156 -265 156 -283 c 0,10,11
 155 -327 155 -327 105 -356 c 0,12,13
 80 -370 80 -370 56 -370 c 0,14,15
 29 -370 29 -370 12 -352 c 0,0,1
0 808 m 1,16,-1
 201 808 l 1,17,-1
 201 793 l 1,18,-1
 0 793 l 1,19,-1
 0 808 l 1,16,-1
0 608 m 1,20,-1
 201 608 l 1,21,-1
 201 593 l 1,22,-1
 0 593 l 1,23,-1
 0 608 l 1,20,-1
0 407 m 1,24,-1
 201 407 l 1,25,-1
 201 392 l 1,26,-1
 0 392 l 1,27,-1
 0 407 l 1,24,-1
0 208 m 1,28,-1
 201 208 l 1,29,-1
 201 193 l 1,30,-1
 0 193 l 1,31,-1
 0 208 l 1,28,-1
0 7 m 1,32,-1
 201 7 l 1,33,-1
 201 -8 l 1,34,-1
 0 -8 l 1,35,-1
 0 7 l 1,32,-1
-50 -193 m 1,36,-1
 211 -193 l 1,37,-1
 211 -208 l 1,38,-1
 -50 -208 l 1,39,-1
 -50 -193 l 1,36,-1
EndSplineSet
Validated: 1
EndChar

StartChar: degree
Encoding: 176 176 135
Width: 15
Flags: W
LayerCount: 2
Fore
SplineSet
0 808 m 1,0,-1
 81 808 l 1,1,-1
 81 793 l 1,2,-1
 0 793 l 1,3,-1
 0 808 l 1,0,-1
0 608 m 1,4,-1
 81 608 l 1,5,-1
 81 593 l 1,6,-1
 0 593 l 1,7,-1
 0 608 l 1,4,-1
0 407 m 1,8,-1
 81 407 l 1,9,-1
 81 392 l 1,10,-1
 0 392 l 1,11,-1
 0 407 l 1,8,-1
0 208 m 1,12,-1
 81 208 l 1,13,-1
 81 193 l 1,14,-1
 0 193 l 1,15,-1
 0 208 l 1,12,-1
9 7 m 1,16,-1
 81 7 l 1,17,-1
 81 -8 l 1,18,-1
 10 -8 l 1,19,-1
 10 -14 l 1,20,-1
 29 -319 l 2,21,22
 29 -341 29 -341 21 -341 c 0,23,24
 17 -341 17 -341 16 -331 c 0,25,26
 11 -259 11 -259 -3 -86 c 0,27,28
 -15 61 -15 61 -6 131 c 0,29,30
 -3 151 -3 151 2 151 c 0,31,32
 6 151 6 151 8 125 c 0,33,34
 7 95 7 95 9 7 c 1,16,-1
EndSplineSet
Validated: 33
EndChar

StartChar: plusminus
Encoding: 177 177 136
Width: 15
Flags: W
LayerCount: 2
Fore
SplineSet
0 808 m 1,0,-1
 81 808 l 1,1,-1
 81 793 l 1,2,-1
 0 793 l 1,3,-1
 0 808 l 1,0,-1
0 608 m 1,4,-1
 81 608 l 1,5,-1
 81 593 l 1,6,-1
 0 593 l 1,7,-1
 0 608 l 1,4,-1
0 407 m 1,8,-1
 81 407 l 1,9,-1
 81 392 l 1,10,-1
 0 392 l 1,11,-1
 0 407 l 1,8,-1
15 7 m 1,12,-1
 81 7 l 1,13,-1
 81 -8 l 1,14,-1
 16 -8 l 1,15,16
 29 -205 29 -205 29 -219 c 0,17,18
 29 -241 29 -241 21 -241 c 0,19,20
 17 -241 17 -241 16 -231 c 0,21,22
 11 -159 11 -159 -3 14 c 0,23,24
 -15 161 -15 161 -6 231 c 0,25,26
 -3 251 -3 251 2 251 c 0,27,28
 4 251 4 251 5 245 c 0,29,30
 8 231 8 231 8 208 c 1,31,-1
 81 208 l 1,32,-1
 81 193 l 1,33,-1
 8 193 l 1,34,35
 7 128 7 128 10 86 c 2,36,-1
 15 7 l 1,12,-1
EndSplineSet
Validated: 33
EndChar

StartChar: twosuperior
Encoding: 178 178 137
Width: 15
Flags: W
LayerCount: 2
Fore
SplineSet
0 808 m 1,0,-1
 81 808 l 1,1,-1
 81 793 l 1,2,-1
 0 793 l 1,3,-1
 0 808 l 1,0,-1
0 608 m 1,4,-1
 81 608 l 1,5,-1
 81 593 l 1,6,-1
 0 593 l 1,7,-1
 0 608 l 1,4,-1
0 407 m 1,8,-1
 81 407 l 1,9,-1
 81 392 l 1,10,-1
 0 392 l 1,11,-1
 0 407 l 1,8,-1
0 7 m 1,12,-1
 5 7 l 1,13,14
 0 71 0 71 -3 113 c 0,15,16
 -15 260 -15 260 -6 330 c 0,17,18
 -3 350 -3 350 2 350 c 0,19,20
 6 350 6 350 8 324 c 0,21,22
 7 295 7 295 9 208 c 1,23,-1
 81 208 l 1,24,-1
 81 193 l 1,25,-1
 10 193 l 1,26,-1
 10 185 l 2,27,28
 10 182 10 182 22 7 c 1,29,-1
 81 7 l 1,30,-1
 81 -8 l 1,31,-1
 23 -8 l 1,32,33
 29 -107 29 -107 29 -120 c 0,34,35
 29 -142 29 -142 21 -142 c 0,36,37
 17 -142 17 -142 16 -132 c 0,38,39
 14 -118 14 -118 6 -8 c 1,40,-1
 0 -8 l 1,41,-1
 0 7 l 1,12,-1
EndSplineSet
Validated: 33
EndChar

StartChar: threesuperior
Encoding: 179 179 138
Width: 15
Flags: W
LayerCount: 2
Fore
SplineSet
0 808 m 1,0,-1
 81 808 l 1,1,-1
 81 793 l 1,2,-1
 0 793 l 1,3,-1
 0 808 l 1,0,-1
0 608 m 1,4,-1
 81 608 l 1,5,-1
 81 593 l 1,6,-1
 0 593 l 1,7,-1
 0 608 l 1,4,-1
0 7 m 1,8,-1
 12 7 l 1,9,10
 8 73 8 73 -3 214 c 0,11,12
 -15 361 -15 361 -6 431 c 0,13,14
 -3 451 -3 451 2 451 c 0,15,16
 4 451 4 451 5 445 c 0,17,18
 8 431 8 431 8 407 c 1,19,-1
 81 407 l 1,20,-1
 81 392 l 1,21,-1
 8 392 l 1,22,23
 7 328 7 328 10 286 c 2,24,-1
 15 208 l 1,25,-1
 81 208 l 1,26,-1
 81 193 l 1,27,-1
 16 193 l 1,28,-1
 28 7 l 1,29,-1
 81 7 l 1,30,-1
 81 -8 l 1,31,-1
 29 -8 l 1,32,33
 29 -16 29 -16 29 -19 c 0,34,35
 29 -41 29 -41 21 -41 c 0,36,37
 16 -41 16 -41 14 -8 c 1,38,-1
 0 -8 l 1,39,-1
 0 7 l 1,8,-1
EndSplineSet
Validated: 33
EndChar

StartChar: acute
Encoding: 180 180 139
Width: 15
Flags: W
LayerCount: 2
Fore
SplineSet
0 808 m 1,0,-1
 81 808 l 1,1,-1
 81 793 l 1,2,-1
 0 793 l 1,3,-1
 0 808 l 1,0,-1
0 608 m 1,4,-1
 81 608 l 1,5,-1
 81 593 l 1,6,-1
 0 593 l 1,7,-1
 0 608 l 1,4,-1
0 208 m 1,8,-1
 5 208 l 1,9,10
 0 272 0 272 -3 313 c 0,11,12
 -15 460 -15 460 -6 530 c 0,13,14
 -3 550 -3 550 2 550 c 0,15,16
 6 550 6 550 8 524 c 0,17,18
 7 495 7 495 9 407 c 1,19,-1
 81 407 l 1,20,-1
 81 392 l 1,21,-1
 10 392 l 1,22,-1
 10 385 l 2,23,24
 10 382 10 382 22 208 c 1,25,-1
 81 208 l 1,26,-1
 81 193 l 1,27,-1
 23 193 l 1,28,29
 29 93 29 93 29 80 c 0,30,31
 29 58 29 58 21 58 c 0,32,33
 17 58 17 58 16 68 c 0,34,35
 14 82 14 82 6 193 c 1,36,-1
 0 193 l 1,37,-1
 0 208 l 1,8,-1
0 7 m 1,38,-1
 81 7 l 1,39,-1
 81 -8 l 1,40,-1
 0 -8 l 1,41,-1
 0 7 l 1,38,-1
EndSplineSet
Validated: 33
EndChar

StartChar: mu1
Encoding: 181 181 140
AltUni2: 0003bc.ffffffff.0
Width: 15
Flags: W
LayerCount: 2
Fore
SplineSet
0 808 m 1,0,-1
 81 808 l 1,1,-1
 81 793 l 1,2,-1
 0 793 l 1,3,-1
 0 808 l 1,0,-1
0 208 m 1,4,-1
 12 208 l 1,5,6
 8 274 8 274 -3 414 c 0,7,8
 -15 561 -15 561 -6 631 c 0,9,10
 -3 651 -3 651 2 651 c 0,11,12
 4 651 4 651 5 645 c 0,13,14
 8 631 8 631 8 608 c 1,15,-1
 81 608 l 1,16,-1
 81 593 l 1,17,-1
 8 593 l 1,18,19
 7 528 7 528 10 486 c 2,20,-1
 15 407 l 1,21,-1
 81 407 l 1,22,-1
 81 392 l 1,23,-1
 16 392 l 1,24,-1
 28 208 l 1,25,-1
 81 208 l 1,26,-1
 81 193 l 1,27,-1
 29 193 l 1,28,29
 29 184 29 184 29 181 c 0,30,31
 29 159 29 159 21 159 c 0,32,33
 16 159 16 159 14 193 c 1,34,-1
 0 193 l 1,35,-1
 0 208 l 1,4,-1
0 7 m 1,36,-1
 81 7 l 1,37,-1
 81 -8 l 1,38,-1
 0 -8 l 1,39,-1
 0 7 l 1,36,-1
EndSplineSet
Validated: 33
EndChar

StartChar: periodcentered
Encoding: 183 183 141
AltUni2: 002219.ffffffff.0
Width: 15
Flags: W
LayerCount: 2
Fore
SplineSet
0 808 m 1,0,-1
 81 808 l 1,1,-1
 81 793 l 1,2,-1
 0 793 l 1,3,-1
 0 808 l 1,0,-1
0 407 m 1,4,-1
 5 407 l 1,5,6
 0 472 0 472 -3 514 c 0,7,8
 -15 661 -15 661 -6 731 c 0,9,10
 -3 751 -3 751 2 751 c 0,11,12
 6 751 6 751 8 725 c 0,13,14
 7 696 7 696 9 608 c 1,15,-1
 81 608 l 1,16,-1
 81 593 l 1,17,-1
 10 593 l 1,18,-1
 10 586 l 2,19,20
 10 584 10 584 22 407 c 1,21,-1
 81 407 l 1,22,-1
 81 392 l 1,23,-1
 23 392 l 1,24,25
 29 294 29 294 29 281 c 0,26,27
 29 259 29 259 21 259 c 0,28,29
 17 259 17 259 16 269 c 0,30,31
 14 283 14 283 6 392 c 1,32,-1
 0 392 l 1,33,-1
 0 407 l 1,4,-1
0 208 m 1,34,-1
 81 208 l 1,35,-1
 81 193 l 1,36,-1
 0 193 l 1,37,-1
 0 208 l 1,34,-1
0 7 m 1,38,-1
 81 7 l 1,39,-1
 81 -8 l 1,40,-1
 0 -8 l 1,41,-1
 0 7 l 1,38,-1
EndSplineSet
Validated: 33
EndChar

StartChar: cedilla
Encoding: 184 184 142
Width: 15
Flags: W
LayerCount: 2
Fore
SplineSet
0 608 m 1,0,-1
 5 608 l 1,1,2
 0 672 0 672 -3 714 c 0,3,4
 -15 861 -15 861 -6 931 c 0,5,6
 -3 951 -3 951 2 951 c 0,7,8
 6 951 6 951 8 925 c 0,9,10
 7 895 7 895 9 808 c 1,11,-1
 81 808 l 1,12,-1
 81 793 l 1,13,-1
 10 793 l 1,14,-1
 10 786 l 2,15,16
 10 783 10 783 22 608 c 1,17,-1
 81 608 l 1,18,-1
 81 593 l 1,19,-1
 23 593 l 1,20,21
 29 494 29 494 29 481 c 0,22,23
 29 459 29 459 21 459 c 0,24,25
 17 459 17 459 16 469 c 0,26,27
 14 483 14 483 6 593 c 1,28,-1
 0 593 l 1,29,-1
 0 608 l 1,0,-1
0 407 m 1,30,-1
 81 407 l 1,31,-1
 81 392 l 1,32,-1
 0 392 l 1,33,-1
 0 407 l 1,30,-1
0 208 m 1,34,-1
 81 208 l 1,35,-1
 81 193 l 1,36,-1
 0 193 l 1,37,-1
 0 208 l 1,34,-1
0 7 m 1,38,-1
 81 7 l 1,39,-1
 81 -8 l 1,40,-1
 0 -8 l 1,41,-1
 0 7 l 1,38,-1
EndSplineSet
Validated: 33
EndChar

StartChar: onesuperior
Encoding: 185 185 143
Width: 15
Flags: W
LayerCount: 2
Fore
SplineSet
0 608 m 1,0,-1
 12 608 l 1,1,2
 8 674 8 674 -3 814 c 0,3,4
 -15 961 -15 961 -6 1031 c 0,5,6
 -3 1051 -3 1051 2 1051 c 0,7,8
 6 1051 6 1051 8 1025 c 0,9,10
 7 979 7 979 10 886 c 2,11,-1
 15 808 l 1,12,-1
 81 808 l 1,13,-1
 81 793 l 1,14,-1
 16 793 l 1,15,-1
 28 608 l 1,16,-1
 81 608 l 1,17,-1
 81 593 l 1,18,-1
 29 593 l 1,19,20
 29 584 29 584 29 581 c 0,21,22
 29 559 29 559 21 559 c 0,23,24
 16 559 16 559 14 593 c 1,25,-1
 0 593 l 1,26,-1
 0 608 l 1,0,-1
0 407 m 1,27,-1
 81 407 l 1,28,-1
 81 392 l 1,29,-1
 0 392 l 1,30,-1
 0 407 l 1,27,-1
0 208 m 1,31,-1
 81 208 l 1,32,-1
 81 193 l 1,33,-1
 0 193 l 1,34,-1
 0 208 l 1,31,-1
0 7 m 1,35,-1
 81 7 l 1,36,-1
 81 -8 l 1,37,-1
 0 -8 l 1,38,-1
 0 7 l 1,35,-1
EndSplineSet
Validated: 33
EndChar

StartChar: ordmasculine
Encoding: 186 186 144
Width: 252
Flags: W
LayerCount: 2
Fore
SplineSet
0 407 m 1,0,-1
 301 407 l 1,1,-1
 301 392 l 1,2,-1
 0 392 l 1,3,-1
 0 407 l 1,0,-1
0 208 m 1,4,-1
 301 208 l 1,5,-1
 301 193 l 1,6,-1
 0 193 l 1,7,-1
 0 208 l 1,4,-1
0 7 m 1,8,-1
 301 7 l 1,9,-1
 301 -8 l 1,10,-1
 0 -8 l 1,11,-1
 0 7 l 1,8,-1
71 1072 m 1,12,-1
 93 1072 l 1,13,-1
 93 892 l 1,14,-1
 203 922 l 1,15,-1
 203 808 l 1,16,-1
 301 808 l 1,17,-1
 301 793 l 1,18,-1
 203 793 l 1,19,-1
 203 608 l 1,20,-1
 301 608 l 1,21,-1
 301 593 l 1,22,-1
 203 593 l 1,23,-1
 203 528 l 1,24,-1
 181 528 l 1,25,-1
 181 593 l 1,26,-1
 0 593 l 1,27,-1
 0 608 l 1,28,-1
 181 608 l 1,29,-1
 181 704 l 1,30,-1
 71 674 l 1,31,-1
 71 793 l 1,32,-1
 0 793 l 1,33,-1
 0 808 l 1,34,-1
 71 808 l 1,35,-1
 71 1072 l 1,12,-1
181 808 m 1,36,-1
 181 862 l 1,37,-1
 93 837 l 1,38,-1
 93 808 l 1,39,-1
 181 808 l 1,36,-1
181 764 m 1,40,-1
 181 793 l 1,41,-1
 93 793 l 1,42,-1
 93 740 l 1,43,-1
 181 764 l 1,40,-1
EndSplineSet
Validated: 1
EndChar

StartChar: guillemotright
Encoding: 187 187 145
Width: 252
Flags: W
LayerCount: 2
Fore
SplineSet
0 608 m 1,0,-1
 301 608 l 1,1,-1
 301 593 l 1,2,-1
 0 593 l 1,3,-1
 0 608 l 1,0,-1
0 407 m 1,4,-1
 301 407 l 1,5,-1
 301 392 l 1,6,-1
 0 392 l 1,7,-1
 0 407 l 1,4,-1
0 208 m 1,8,-1
 301 208 l 1,9,-1
 301 193 l 1,10,-1
 0 193 l 1,11,-1
 0 208 l 1,8,-1
0 7 m 1,12,-1
 301 7 l 1,13,-1
 301 -8 l 1,14,-1
 0 -8 l 1,15,-1
 0 7 l 1,12,-1
71 1172 m 1,16,-1
 93 1172 l 1,17,-1
 93 992 l 1,18,-1
 203 1022 l 1,19,-1
 203 808 l 1,20,-1
 301 808 l 1,21,-1
 301 793 l 1,22,-1
 203 793 l 1,23,-1
 203 628 l 1,24,-1
 181 628 l 1,25,-1
 181 793 l 1,26,-1
 139 793 l 1,27,-1
 71 774 l 1,28,-1
 71 793 l 1,29,-1
 0 793 l 1,30,-1
 0 808 l 1,31,-1
 71 808 l 1,32,-1
 71 1172 l 1,16,-1
181 864 m 1,33,-1
 181 962 l 1,34,-1
 93 937 l 1,35,-1
 93 840 l 1,36,-1
 181 864 l 1,33,-1
EndSplineSet
Validated: 1
EndChar

StartChar: onequarter
Encoding: 188 188 146
Width: 74
Flags: W
LayerCount: 2
Fore
SplineSet
0 808 m 1,0,-1
 131 808 l 1,1,-1
 131 793 l 1,2,-1
 0 793 l 1,3,-1
 0 808 l 1,0,-1
0 608 m 1,4,-1
 131 608 l 1,5,-1
 131 593 l 1,6,-1
 0 593 l 1,7,-1
 0 608 l 1,4,-1
0 407 m 1,8,-1
 131 407 l 1,9,-1
 131 392 l 1,10,-1
 0 392 l 1,11,-1
 0 407 l 1,8,-1
0 208 m 1,12,-1
 131 208 l 1,13,-1
 131 193 l 1,14,-1
 0 193 l 1,15,-1
 0 208 l 1,12,-1
0 -46 m 0,16,17
 -3 -29 -3 -29 -17 -21 c 128,-1,18
 -31 -13 -31 -13 -33.5 -2.5 c 128,-1,19
 -36 8 -36 8 -36 17 c 0,20,21
 -36 53 -36 53 -6 53 c 0,22,23
 2 53 2 53 4 49 c 0,24,25
 11 35 11 35 23 7 c 1,26,-1
 131 7 l 1,27,-1
 131 -8 l 1,28,-1
 28 -8 l 1,29,30
 30 -17 30 -17 32 -28 c 0,31,32
 37 -56 37 -56 34 -78 c 0,33,34
 31 -93 31 -93 28 -109 c 0,35,36
 23 -139 23 -139 12 -161 c 128,-1,37
 1 -183 1 -183 -11 -183 c 0,38,39
 -22 -183 -22 -183 -36.5 -164 c 128,-1,40
 -51 -145 -51 -145 -51 -134 c 0,41,42
 -51 -130 -51 -130 -49 -128 c 0,43,44
 -45 -122 -45 -122 -30 -125 c 0,45,46
 -8 -129 -8 -129 -8 -129 c 2,47,48
 -1 -129 -1 -129 0 -124 c 0,49,50
 8 -92 8 -92 0 -46 c 0,16,17
EndSplineSet
Validated: 33
EndChar

StartChar: onehalf
Encoding: 189 189 147
Width: 15
Flags: W
LayerCount: 2
Fore
SplineSet
0 808 m 1,0,-1
 81 808 l 1,1,-1
 81 793 l 1,2,-1
 0 793 l 1,3,-1
 0 808 l 1,0,-1
0 608 m 1,4,-1
 81 608 l 1,5,-1
 81 593 l 1,6,-1
 0 593 l 1,7,-1
 0 608 l 1,4,-1
0 407 m 1,8,-1
 81 407 l 1,9,-1
 81 392 l 1,10,-1
 0 392 l 1,11,-1
 0 407 l 1,8,-1
0 208 m 1,12,-1
 81 208 l 1,13,-1
 81 193 l 1,14,-1
 0 193 l 1,15,-1
 0 208 l 1,12,-1
8 7 m 1,16,-1
 81 7 l 1,17,-1
 81 -8 l 1,18,-1
 8 -8 l 1,19,20
 7 -72 7 -72 10 -114 c 2,21,-1
 29 -419 l 2,22,23
 29 -441 29 -441 21 -441 c 0,24,25
 17 -441 17 -441 16 -431 c 0,26,27
 11 -359 11 -359 -3 -186 c 0,28,29
 -15 -39 -15 -39 -6 31 c 0,30,31
 -3 51 -3 51 2 51 c 0,32,33
 4 51 4 51 5 45 c 0,34,35
 8 31 8 31 8 7 c 1,16,-1
EndSplineSet
Validated: 33
EndChar

StartChar: threequarters
Encoding: 190 190 148
Width: 15
Flags: W
LayerCount: 2
Fore
SplineSet
0 407 m 1,0,-1
 12 407 l 1,1,2
 8 474 8 474 -3 614 c 0,3,4
 -15 761 -15 761 -6 831 c 0,5,6
 -3 851 -3 851 2 851 c 0,7,8
 4 851 4 851 5 845 c 0,9,10
 8 831 8 831 8 808 c 1,11,-1
 81 808 l 1,12,-1
 81 793 l 1,13,-1
 8 793 l 1,14,15
 7 728 7 728 10 686 c 2,16,-1
 15 608 l 1,17,-1
 81 608 l 1,18,-1
 81 593 l 1,19,-1
 16 593 l 1,20,-1
 28 407 l 1,21,-1
 81 407 l 1,22,-1
 81 392 l 1,23,-1
 29 392 l 1,24,25
 29 384 29 384 29 381 c 0,26,27
 29 359 29 359 21 359 c 0,28,29
 16 359 16 359 14 392 c 1,30,-1
 0 392 l 1,31,-1
 0 407 l 1,0,-1
0 208 m 1,32,-1
 81 208 l 1,33,-1
 81 193 l 1,34,-1
 0 193 l 1,35,-1
 0 208 l 1,32,-1
0 7 m 1,36,-1
 81 7 l 1,37,-1
 81 -8 l 1,38,-1
 0 -8 l 1,39,-1
 0 7 l 1,36,-1
EndSplineSet
Validated: 33
EndChar

StartChar: questiondown
Encoding: 191 191 149
Width: 222
Flags: W
LayerCount: 2
Fore
SplineSet
0 7 m 1,0,-1
 68 7 l 1,1,-1
 68 193 l 1,2,-1
 0 193 l 1,3,-1
 0 208 l 1,4,-1
 68 208 l 1,5,-1
 68 392 l 1,6,-1
 0 392 l 1,7,-1
 0 407 l 1,8,-1
 68 407 l 1,9,-1
 68 593 l 1,10,-1
 0 593 l 1,11,-1
 0 608 l 1,12,-1
 68 608 l 1,13,-1
 68 793 l 1,14,-1
 0 793 l 1,15,-1
 0 808 l 1,16,-1
 68 808 l 1,17,-1
 68 905 l 1,18,-1
 68 905 l 1,19,-1
 68 906 l 1,20,-1
 189 906 l 1,21,-1
 189 891 l 1,22,-1
 83 891 l 1,23,-1
 83 808 l 1,24,-1
 291 808 l 1,25,-1
 291 793 l 1,26,-1
 83 793 l 1,27,-1
 83 608 l 1,28,-1
 291 608 l 1,29,-1
 291 593 l 1,30,-1
 83 593 l 1,31,-1
 83 407 l 1,32,-1
 291 407 l 1,33,-1
 291 392 l 1,34,-1
 83 392 l 1,35,-1
 83 208 l 1,36,-1
 291 208 l 1,37,-1
 291 193 l 1,38,-1
 83 193 l 1,39,-1
 83 7 l 1,40,-1
 291 7 l 1,41,-1
 291 -8 l 1,42,-1
 83 -8 l 1,43,-1
 83 -90 l 1,44,-1
 189 -90 l 1,45,-1
 189 -105 l 1,46,-1
 68 -105 l 1,47,-1
 68 -105 l 1,48,-1
 68 -105 l 1,49,-1
 68 -8 l 1,50,-1
 0 -8 l 1,51,-1
 0 7 l 1,0,-1
EndSplineSet
Validated: 5
EndChar

StartChar: Agrave
Encoding: 192 192 150
Width: 222
Flags: W
LayerCount: 2
Fore
SplineSet
68 906 m 1,0,-1
 189 906 l 1,1,2
 189 891 189 891 188 858 c 0,3,4
 188 824 188 824 188 808 c 1,5,-1
 291 808 l 1,6,-1
 291 793 l 1,7,-1
 188 793 l 1,8,-1
 188 608 l 1,9,-1
 291 608 l 1,10,-1
 291 593 l 1,11,-1
 188 593 l 1,12,-1
 188 407 l 1,13,-1
 291 407 l 1,14,-1
 291 392 l 1,15,-1
 188 392 l 1,16,-1
 188 208 l 1,17,-1
 291 208 l 1,18,-1
 291 193 l 1,19,-1
 188 193 l 1,20,-1
 188 7 l 1,21,-1
 291 7 l 1,22,-1
 291 -8 l 1,23,-1
 188 -8 l 1,24,25
 188 -25 188 -25 188 -58 c 0,26,27
 189 -91 189 -91 189 -105 c 1,28,-1
 68 -105 l 1,29,-1
 68 -90 l 1,30,-1
 173 -90 l 1,31,-1
 173 -8 l 1,32,-1
 0 -8 l 1,33,-1
 0 7 l 1,34,-1
 173 7 l 1,35,-1
 173 193 l 1,36,-1
 0 193 l 1,37,-1
 0 208 l 1,38,-1
 173 208 l 1,39,-1
 173 392 l 1,40,-1
 0 392 l 1,41,-1
 0 407 l 1,42,-1
 173 407 l 1,43,-1
 173 593 l 1,44,-1
 0 593 l 1,45,-1
 0 608 l 1,46,-1
 173 608 l 1,47,-1
 173 793 l 1,48,-1
 0 793 l 1,49,-1
 0 808 l 1,50,-1
 173 808 l 1,51,-1
 173 891 l 1,52,-1
 68 891 l 1,53,-1
 68 906 l 1,0,-1
EndSplineSet
Validated: 1
EndChar

StartChar: Aacute
Encoding: 193 193 151
Width: 15
Flags: W
LayerCount: 2
Fore
SplineSet
0 608 m 1,0,-1
 6 608 l 1,1,2
 4 653 4 653 -3 754 c 0,3,4
 -14 873 -14 873 -5 934 c 0,5,6
 -3 947 -3 947 2 947 c 0,7,8
 6 947 6 947 7 934 c 0,9,10
 7 895 7 895 10 818 c 1,11,-1
 11 808 l 1,12,-1
 81 808 l 1,13,-1
 81 793 l 1,14,-1
 12 793 l 1,15,16
 18 694 18 694 22 608 c 1,17,-1
 81 608 l 1,18,-1
 81 593 l 1,19,-1
 23 593 l 1,20,21
 23 579 23 579 23 574 c 0,22,23
 23 552 23 552 15 552 c 0,24,25
 9 552 9 552 6 593 c 1,26,-1
 0 593 l 1,27,-1
 0 608 l 1,0,-1
0 407 m 1,28,-1
 81 407 l 1,29,-1
 81 392 l 1,30,-1
 0 392 l 1,31,-1
 0 407 l 1,28,-1
0 208 m 1,32,-1
 81 208 l 1,33,-1
 81 193 l 1,34,-1
 0 193 l 1,35,-1
 0 208 l 1,32,-1
0 7 m 1,36,-1
 81 7 l 1,37,-1
 81 -8 l 1,38,-1
 0 -8 l 1,39,-1
 0 7 l 1,36,-1
0 407 m 1,40,-1
 81 407 l 1,41,-1
 81 392 l 1,42,-1
 0 392 l 1,43,-1
 0 407 l 1,40,-1
0 208 m 1,44,-1
 81 208 l 1,45,-1
 81 193 l 1,46,-1
 0 193 l 1,47,-1
 0 208 l 1,44,-1
0 7 m 1,48,-1
 81 7 l 1,49,-1
 81 -8 l 1,50,-1
 0 -8 l 1,51,-1
 0 7 l 1,48,-1
EndSplineSet
Validated: 37
EndChar

StartChar: Acircumflex
Encoding: 194 194 152
Width: 222
Flags: W
LayerCount: 2
Fore
SplineSet
0 808 m 1,0,-1
 291 808 l 1,1,-1
 291 793 l 1,2,-1
 0 793 l 1,3,-1
 0 808 l 1,0,-1
0 208 m 1,4,-1
 69 208 l 1,5,6
 37 295 37 295 37 392 c 1,7,-1
 0 392 l 1,8,-1
 0 407 l 1,9,-1
 37 407 l 1,10,11
 39 508 39 508 74 593 c 1,12,-1
 0 593 l 1,13,-1
 0 608 l 1,14,-1
 81 608 l 1,15,16
 123 705 123 705 195 747 c 1,17,-1
 195 731 l 1,18,19
 141 692 141 692 117 608 c 1,20,-1
 291 608 l 1,21,-1
 291 593 l 1,22,-1
 113 593 l 1,23,24
 93 513 93 513 92 407 c 1,25,-1
 291 407 l 1,26,-1
 291 392 l 1,27,-1
 92 392 l 1,28,29
 93 286 93 286 110 208 c 1,30,-1
 291 208 l 1,31,-1
 291 193 l 1,32,-1
 113 193 l 1,33,34
 134 109 134 109 195 53 c 1,35,-1
 195 39 l 1,36,37
 116 92 116 92 75 193 c 1,38,-1
 0 193 l 1,39,-1
 0 208 l 1,4,-1
0 7 m 1,40,-1
 291 7 l 1,41,-1
 291 -8 l 1,42,-1
 0 -8 l 1,43,-1
 0 7 l 1,40,-1
EndSplineSet
Validated: 1
EndChar

StartChar: Atilde
Encoding: 195 195 153
Width: 222
Flags: W
LayerCount: 2
Fore
SplineSet
0 808 m 1,0,-1
 291 808 l 1,1,-1
 291 793 l 1,2,-1
 0 793 l 1,3,-1
 0 808 l 1,0,-1
0 208 m 1,4,-1
 122 208 l 1,5,6
 139 286 139 286 139 392 c 1,7,-1
 0 392 l 1,8,-1
 0 407 l 1,9,-1
 139 407 l 1,10,11
 139 513 139 513 119 593 c 1,12,-1
 0 593 l 1,13,-1
 0 608 l 1,14,-1
 115 608 l 1,15,16
 90 692 90 692 37 731 c 1,17,-1
 37 747 l 1,18,19
 109 705 109 705 151 608 c 1,20,-1
 291 608 l 1,21,-1
 291 593 l 1,22,-1
 157 593 l 1,23,24
 192 508 192 508 194 407 c 1,25,-1
 291 407 l 1,26,-1
 291 392 l 1,27,-1
 195 392 l 1,28,29
 195 295 195 295 163 208 c 1,30,-1
 291 208 l 1,31,-1
 291 193 l 1,32,-1
 157 193 l 1,33,34
 116 92 116 92 37 39 c 1,35,-1
 37 53 l 1,36,37
 98 109 98 109 118 193 c 1,38,-1
 0 193 l 1,39,-1
 0 208 l 1,4,-1
0 7 m 1,40,-1
 291 7 l 1,41,-1
 291 -8 l 1,42,-1
 0 -8 l 1,43,-1
 0 7 l 1,40,-1
EndSplineSet
Validated: 1
EndChar

StartChar: Adieresis
Encoding: 196 196 154
Width: 222
Flags: W
LayerCount: 2
Fore
SplineSet
0 608 m 1,0,-1
 69 608 l 1,1,2
 37 695 37 695 37 793 c 1,3,-1
 0 793 l 1,4,-1
 0 808 l 1,5,-1
 37 808 l 1,6,7
 40 909 40 909 76 998 c 0,8,9
 119 1102 119 1102 195 1147 c 1,10,-1
 195 1131 l 1,11,12
 93 1057 93 1057 92 808 c 1,13,-1
 291 808 l 1,14,-1
 291 793 l 1,15,-1
 92 793 l 1,16,17
 93 687 93 687 110 608 c 1,18,-1
 291 608 l 1,19,-1
 291 593 l 1,20,-1
 113 593 l 1,21,22
 134 509 134 509 195 453 c 1,23,-1
 195 439 l 1,24,25
 116 492 116 492 75 593 c 1,26,-1
 0 593 l 1,27,-1
 0 608 l 1,0,-1
0 407 m 1,28,-1
 291 407 l 1,29,-1
 291 392 l 1,30,-1
 0 392 l 1,31,-1
 0 407 l 1,28,-1
0 208 m 1,32,-1
 291 208 l 1,33,-1
 291 193 l 1,34,-1
 0 193 l 1,35,-1
 0 208 l 1,32,-1
0 7 m 1,36,-1
 291 7 l 1,37,-1
 291 -8 l 1,38,-1
 0 -8 l 1,39,-1
 0 7 l 1,36,-1
EndSplineSet
Validated: 1
EndChar

StartChar: Aring
Encoding: 197 197 155
Width: 222
Flags: W
LayerCount: 2
Fore
SplineSet
0 608 m 1,0,-1
 122 608 l 1,1,2
 139 687 139 687 139 793 c 1,3,-1
 0 793 l 1,4,-1
 0 808 l 1,5,-1
 139 808 l 1,6,7
 138 1057 138 1057 37 1131 c 1,8,-1
 37 1147 l 1,9,10
 113 1102 113 1102 155 998 c 0,11,12
 192 909 192 909 194 808 c 1,13,-1
 291 808 l 1,14,-1
 291 793 l 1,15,-1
 195 793 l 1,16,17
 195 695 195 695 163 608 c 1,18,-1
 291 608 l 1,19,-1
 291 593 l 1,20,-1
 157 593 l 1,21,22
 116 492 116 492 37 439 c 1,23,-1
 37 453 l 1,24,25
 98 509 98 509 119 593 c 1,26,-1
 0 593 l 1,27,-1
 0 608 l 1,0,-1
0 407 m 1,28,-1
 291 407 l 1,29,-1
 291 392 l 1,30,-1
 0 392 l 1,31,-1
 0 407 l 1,28,-1
0 208 m 1,32,-1
 291 208 l 1,33,-1
 291 193 l 1,34,-1
 0 193 l 1,35,-1
 0 208 l 1,32,-1
0 7 m 1,36,-1
 291 7 l 1,37,-1
 291 -8 l 1,38,-1
 0 -8 l 1,39,-1
 0 7 l 1,36,-1
EndSplineSet
Validated: 1
EndChar

StartChar: AE
Encoding: 198 198 156
Width: 222
Flags: W
LayerCount: 2
Fore
SplineSet
0 808 m 1,0,-1
 291 808 l 1,1,-1
 291 793 l 1,2,-1
 0 793 l 1,3,-1
 0 808 l 1,0,-1
0 608 m 1,4,-1
 291 608 l 1,5,-1
 291 593 l 1,6,-1
 0 593 l 1,7,-1
 0 608 l 1,4,-1
0 407 m 1,8,-1
 291 407 l 1,9,-1
 291 392 l 1,10,-1
 0 392 l 1,11,-1
 0 407 l 1,8,-1
0 7 m 1,12,-1
 37 7 l 1,13,14
 39 108 39 108 74 193 c 1,15,-1
 0 193 l 1,16,-1
 0 208 l 1,17,-1
 80 208 l 1,18,19
 123 305 123 305 195 347 c 1,20,-1
 195 331 l 1,21,22
 141 292 141 292 117 208 c 1,23,-1
 291 208 l 1,24,-1
 291 193 l 1,25,-1
 113 193 l 1,26,27
 93 113 93 113 92 7 c 1,28,-1
 291 7 l 1,29,-1
 291 -8 l 1,30,-1
 92 -8 l 1,31,32
 93 -122 93 -122 109 -190 c 0,33,34
 132 -289 132 -289 195 -347 c 1,35,-1
 195 -361 l 1,36,37
 115 -308 115 -308 74 -205 c 0,38,39
 37 -114 37 -114 37 -8 c 1,40,-1
 0 -8 l 1,41,-1
 0 7 l 1,12,-1
EndSplineSet
Validated: 1
EndChar

StartChar: Ccedilla
Encoding: 199 199 157
Width: 222
Flags: W
LayerCount: 2
Fore
SplineSet
0 808 m 1,0,-1
 291 808 l 1,1,-1
 291 793 l 1,2,-1
 0 793 l 1,3,-1
 0 808 l 1,0,-1
0 608 m 1,4,-1
 291 608 l 1,5,-1
 291 593 l 1,6,-1
 0 593 l 1,7,-1
 0 608 l 1,4,-1
0 407 m 1,8,-1
 291 407 l 1,9,-1
 291 392 l 1,10,-1
 0 392 l 1,11,-1
 0 407 l 1,8,-1
0 7 m 1,12,-1
 139 7 l 1,13,14
 139 113 139 113 119 193 c 1,15,-1
 0 193 l 1,16,-1
 0 208 l 1,17,-1
 115 208 l 1,18,19
 90 292 90 292 37 331 c 1,20,-1
 37 347 l 1,21,22
 109 305 109 305 151 208 c 1,23,-1
 291 208 l 1,24,-1
 291 193 l 1,25,-1
 158 193 l 1,26,27
 192 108 192 108 194 7 c 1,28,-1
 291 7 l 1,29,-1
 291 -8 l 1,30,-1
 195 -8 l 1,31,32
 195 -114 195 -114 158 -205 c 0,33,34
 116 -308 116 -308 37 -361 c 1,35,-1
 37 -347 l 1,36,37
 99 -289 99 -289 123 -190 c 0,38,39
 139 -122 139 -122 139 -8 c 1,40,-1
 0 -8 l 1,41,-1
 0 7 l 1,12,-1
EndSplineSet
Validated: 1
EndChar

StartChar: Egrave
Encoding: 200 200 158
Width: 252
Flags: W
LayerCount: 2
Fore
SplineSet
0 808 m 1,0,-1
 301 808 l 1,1,-1
 301 793 l 1,2,-1
 0 793 l 1,3,-1
 0 808 l 1,0,-1
0 608 m 1,4,-1
 301 608 l 1,5,-1
 301 593 l 1,6,-1
 0 593 l 1,7,-1
 0 608 l 1,4,-1
0 407 m 1,8,-1
 301 407 l 1,9,-1
 301 392 l 1,10,-1
 0 392 l 1,11,-1
 0 407 l 1,8,-1
0 208 m 1,12,-1
 301 208 l 1,13,-1
 301 193 l 1,14,-1
 0 193 l 1,15,-1
 0 208 l 1,12,-1
160 -95 m 1,16,-1
 179 -95 l 1,17,-1
 179 -239 l 1,18,-1
 207 -226 l 1,19,-1
 207 -305 l 1,20,-1
 179 -318 l 1,21,-1
 179 -445 l 1,22,-1
 207 -432 l 1,23,-1
 207 -510 l 1,24,-1
 179 -524 l 1,25,-1
 178 -617 l 1,26,-1
 159 -617 l 1,27,-1
 160 -533 l 1,28,-1
 113 -553 l 1,29,-1
 113 -648 l 1,30,-1
 94 -648 l 1,31,-1
 94 -562 l 1,32,-1
 65 -574 l 1,33,-1
 65 -495 l 1,34,-1
 94 -483 l 1,35,-1
 94 -356 l 1,36,-1
 65 -369 l 1,37,-1
 65 -289 l 1,38,-1
 94 -278 l 1,39,-1
 94 -127 l 1,40,-1
 113 -127 l 1,41,-1
 113 -268 l 1,42,-1
 160 -248 l 1,43,-1
 160 -95 l 1,16,-1
113 -474 m 1,44,-1
 160 -453 l 1,45,-1
 160 -327 l 1,46,-1
 113 -348 l 1,47,-1
 113 -474 l 1,44,-1
0 8 m 1,48,-1
 301 8 l 1,49,-1
 301 -7 l 1,50,-1
 0 -7 l 1,51,-1
 0 8 l 1,48,-1
EndSplineSet
Validated: 1
EndChar

StartChar: Eacute
Encoding: 201 201 159
Width: 15
Flags: W
LayerCount: 2
Fore
SplineSet
0 608 m 1,0,-1
 1 608 l 1,1,2
 -1 632 -1 632 -3 654 c 0,3,4
 -14 773 -14 773 -5 834 c 0,5,6
 -3 847 -3 847 2 847 c 0,7,8
 9 847 9 847 8 808 c 1,9,-1
 81 808 l 1,10,-1
 81 793 l 1,11,-1
 7 793 l 1,12,13
 7 762 7 762 10 718 c 0,14,15
 13 669 13 669 17 608 c 1,16,-1
 81 608 l 1,17,-1
 81 593 l 1,18,-1
 18 593 l 1,19,20
 23 494 23 494 23 474 c 0,21,22
 23 452 23 452 15 452 c 0,23,24
 12 452 12 452 10 460 c 0,25,26
 9 462 9 462 2 593 c 1,27,-1
 0 593 l 1,28,-1
 0 608 l 1,0,-1
0 407 m 1,29,-1
 81 407 l 1,30,-1
 81 392 l 1,31,-1
 0 392 l 1,32,-1
 0 407 l 1,29,-1
0 208 m 1,33,-1
 81 208 l 1,34,-1
 81 193 l 1,35,-1
 0 193 l 1,36,-1
 0 208 l 1,33,-1
0 7 m 1,37,-1
 81 7 l 1,38,-1
 81 -8 l 1,39,-1
 0 -8 l 1,40,-1
 0 7 l 1,37,-1
0 208 m 1,41,-1
 81 208 l 1,42,-1
 81 193 l 1,43,-1
 0 193 l 1,44,-1
 0 208 l 1,41,-1
0 7 m 1,45,-1
 81 7 l 1,46,-1
 81 -8 l 1,47,-1
 0 -8 l 1,48,-1
 0 7 l 1,45,-1
EndSplineSet
Validated: 37
EndChar

StartChar: Ecircumflex
Encoding: 202 202 160
Width: 252
Flags: W
LayerCount: 2
Fore
SplineSet
113 -374 m 1,0,-1
 160 -353 l 1,1,-1
 160 -227 l 1,2,-1
 113 -248 l 1,3,-1
 113 -374 l 1,0,-1
0 8 m 1,4,-1
 301 8 l 1,5,-1
 301 -7 l 1,6,-1
 179 -7 l 1,7,-1
 179 -139 l 1,8,-1
 207 -126 l 1,9,-1
 207 -205 l 1,10,-1
 179 -218 l 1,11,-1
 179 -345 l 1,12,-1
 207 -332 l 1,13,-1
 207 -410 l 1,14,-1
 179 -424 l 1,15,-1
 179 -574 l 1,16,-1
 160 -574 l 1,17,-1
 160 -433 l 1,18,-1
 113 -453 l 1,19,-1
 113 -605 l 1,20,-1
 94 -605 l 1,21,-1
 94 -462 l 1,22,-1
 65 -474 l 1,23,-1
 65 -395 l 1,24,-1
 94 -383 l 1,25,-1
 94 -256 l 1,26,-1
 65 -269 l 1,27,-1
 65 -189 l 1,28,-1
 94 -178 l 1,29,-1
 94 -27 l 1,30,-1
 113 -27 l 1,31,-1
 113 -168 l 1,32,-1
 160 -148 l 1,33,-1
 160 -7 l 1,34,-1
 0 -7 l 1,35,-1
 0 8 l 1,4,-1
0 808 m 1,36,-1
 301 808 l 1,37,-1
 301 793 l 1,38,-1
 0 793 l 1,39,-1
 0 808 l 1,36,-1
0 608 m 1,40,-1
 301 608 l 1,41,-1
 301 593 l 1,42,-1
 0 593 l 1,43,-1
 0 608 l 1,40,-1
0 407 m 1,44,-1
 301 407 l 1,45,-1
 301 392 l 1,46,-1
 0 392 l 1,47,-1
 0 407 l 1,44,-1
0 208 m 1,48,-1
 301 208 l 1,49,-1
 301 193 l 1,50,-1
 0 193 l 1,51,-1
 0 208 l 1,48,-1
EndSplineSet
Validated: 1
EndChar

StartChar: Edieresis
Encoding: 203 203 161
Width: 252
Flags: W
LayerCount: 2
Fore
SplineSet
113 -274 m 1,0,-1
 160 -253 l 1,1,-1
 160 -127 l 1,2,-1
 113 -148 l 1,3,-1
 113 -274 l 1,0,-1
160 -7 m 1,4,-1
 113 -7 l 1,5,-1
 113 -68 l 1,6,-1
 160 -48 l 1,7,-1
 160 -7 l 1,4,-1
0 8 m 1,8,-1
 94 8 l 1,9,-1
 94 74 l 1,10,-1
 113 74 l 1,11,-1
 113 8 l 1,12,-1
 160 8 l 1,13,-1
 160 105 l 1,14,-1
 179 105 l 1,15,-1
 179 8 l 1,16,-1
 301 8 l 1,17,-1
 301 -7 l 1,18,-1
 179 -7 l 1,19,-1
 179 -39 l 1,20,-1
 207 -26 l 1,21,-1
 207 -105 l 1,22,-1
 179 -118 l 1,23,-1
 179 -245 l 1,24,-1
 207 -232 l 1,25,-1
 207 -310 l 1,26,-1
 179 -324 l 1,27,-1
 179 -474 l 1,28,-1
 160 -474 l 1,29,-1
 160 -333 l 1,30,-1
 113 -353 l 1,31,-1
 113 -505 l 1,32,-1
 94 -505 l 1,33,-1
 94 -362 l 1,34,-1
 65 -374 l 1,35,-1
 65 -295 l 1,36,-1
 94 -283 l 1,37,-1
 94 -156 l 1,38,-1
 65 -169 l 1,39,-1
 65 -89 l 1,40,-1
 94 -78 l 1,41,-1
 94 -7 l 1,42,-1
 0 -7 l 1,43,-1
 0 8 l 1,8,-1
0 808 m 1,44,-1
 301 808 l 1,45,-1
 301 793 l 1,46,-1
 0 793 l 1,47,-1
 0 808 l 1,44,-1
0 608 m 1,48,-1
 301 608 l 1,49,-1
 301 593 l 1,50,-1
 0 593 l 1,51,-1
 0 608 l 1,48,-1
0 407 m 1,52,-1
 301 407 l 1,53,-1
 301 392 l 1,54,-1
 0 392 l 1,55,-1
 0 407 l 1,52,-1
0 208 m 1,56,-1
 301 208 l 1,57,-1
 301 193 l 1,58,-1
 0 193 l 1,59,-1
 0 208 l 1,56,-1
EndSplineSet
Validated: 1
EndChar

StartChar: Igrave
Encoding: 204 204 162
Width: 252
Flags: W
LayerCount: 2
Fore
SplineSet
113 -174 m 1,0,-1
 160 -153 l 1,1,-1
 160 -27 l 1,2,-1
 113 -48 l 1,3,-1
 113 -174 l 1,0,-1
0 8 m 1,4,-1
 65 8 l 1,5,-1
 65 11 l 1,6,-1
 94 22 l 1,7,-1
 94 174 l 1,8,-1
 113 174 l 1,9,-1
 113 32 l 1,10,-1
 160 52 l 1,11,-1
 160 193 l 1,12,-1
 0 193 l 1,13,-1
 0 208 l 1,14,-1
 301 208 l 1,15,-1
 301 193 l 1,16,-1
 179 193 l 1,17,-1
 179 61 l 1,18,-1
 207 74 l 1,19,-1
 207 8 l 1,20,-1
 301 8 l 1,21,-1
 301 -7 l 1,22,-1
 201 -7 l 1,23,-1
 179 -18 l 1,24,-1
 179 -145 l 1,25,-1
 207 -132 l 1,26,-1
 207 -210 l 1,27,-1
 179 -224 l 1,28,-1
 179 -374 l 1,29,-1
 160 -374 l 1,30,-1
 160 -233 l 1,31,-1
 113 -253 l 1,32,-1
 113 -405 l 1,33,-1
 94 -405 l 1,34,-1
 94 -262 l 1,35,-1
 65 -274 l 1,36,-1
 65 -195 l 1,37,-1
 94 -183 l 1,38,-1
 94 -56 l 1,39,-1
 65 -69 l 1,40,-1
 65 -7 l 1,41,-1
 0 -7 l 1,42,-1
 0 8 l 1,4,-1
0 808 m 1,43,-1
 301 808 l 1,44,-1
 301 793 l 1,45,-1
 0 793 l 1,46,-1
 0 808 l 1,43,-1
0 608 m 1,47,-1
 301 608 l 1,48,-1
 301 593 l 1,49,-1
 0 593 l 1,50,-1
 0 608 l 1,47,-1
0 407 m 1,51,-1
 301 407 l 1,52,-1
 301 392 l 1,53,-1
 0 392 l 1,54,-1
 0 407 l 1,51,-1
EndSplineSet
Validated: 1
EndChar

StartChar: Iacute
Encoding: 205 205 163
Width: 252
Flags: W
LayerCount: 2
Fore
SplineSet
0 808 m 1,0,-1
 301 808 l 1,1,-1
 301 793 l 1,2,-1
 0 793 l 1,3,-1
 0 808 l 1,0,-1
0 7 m 1,4,-1
 301 7 l 1,5,-1
 301 -8 l 1,6,-1
 0 -8 l 1,7,-1
 0 7 l 1,4,-1
58 764 m 1,8,-1
 58 608 l 1,9,-1
 301 608 l 1,10,-1
 301 593 l 1,11,-1
 58 593 l 1,12,-1
 58 407 l 1,13,-1
 301 407 l 1,14,-1
 301 392 l 1,15,-1
 58 392 l 1,16,-1
 58 283 l 1,17,18
 111 320 111 320 144 320 c 0,19,20
 186 320 186 320 200 270 c 0,21,22
 208 241 208 241 196 208 c 1,23,-1
 301 208 l 1,24,-1
 301 193 l 1,25,-1
 189 193 l 1,26,27
 164 142 164 142 107 100 c 0,28,29
 80 76 80 76 44 43 c 1,30,-1
 44 193 l 1,31,-1
 0 193 l 1,32,-1
 0 208 l 1,33,-1
 44 208 l 1,34,-1
 44 392 l 1,35,-1
 0 392 l 1,36,-1
 0 407 l 1,37,-1
 44 407 l 1,38,-1
 44 593 l 1,39,-1
 0 593 l 1,40,-1
 0 608 l 1,41,-1
 44 608 l 1,42,-1
 44 764 l 1,43,-1
 58 764 l 1,8,-1
58 193 m 1,44,-1
 58 81 l 2,45,46
 61 79 61 79 90 115 c 0,47,48
 122 157 122 157 138 193 c 1,49,-1
 58 193 l 1,44,-1
58 261 m 1,50,-1
 58 208 l 1,51,-1
 143 208 l 1,52,53
 149 225 149 225 149 239 c 0,54,55
 149 267 149 267 127 280 c 0,56,57
 117 287 117 287 108 287 c 0,58,59
 87 287 87 287 58 261 c 1,50,-1
EndSplineSet
Validated: 33
EndChar

StartChar: Icircumflex
Encoding: 206 206 164
Width: 252
Flags: W
LayerCount: 2
Fore
SplineSet
0 407 m 1,0,-1
 301 407 l 1,1,-1
 301 392 l 1,2,-1
 0 392 l 1,3,-1
 0 407 l 1,0,-1
113 193 m 1,4,-1
 113 132 l 1,5,-1
 160 152 l 1,6,-1
 160 193 l 1,7,-1
 113 193 l 1,4,-1
160 -7 m 1,8,-1
 113 -7 l 1,9,-1
 113 -74 l 1,10,-1
 160 -53 l 1,11,-1
 160 -7 l 1,8,-1
113 8 m 1,12,-1
 160 8 l 1,13,-1
 160 73 l 1,14,-1
 113 53 l 1,15,-1
 113 8 l 1,12,-1
0 8 m 1,16,-1
 94 8 l 1,17,-1
 94 44 l 1,18,-1
 65 32 l 1,19,-1
 65 111 l 1,20,-1
 94 122 l 1,21,-1
 94 193 l 1,22,-1
 0 193 l 1,23,-1
 0 208 l 1,24,-1
 94 208 l 1,25,-1
 94 274 l 1,26,-1
 113 274 l 1,27,-1
 113 208 l 1,28,-1
 160 208 l 1,29,-1
 160 305 l 1,30,-1
 179 305 l 1,31,-1
 179 208 l 1,32,-1
 301 208 l 1,33,-1
 301 193 l 1,34,-1
 179 193 l 1,35,-1
 179 161 l 1,36,-1
 207 174 l 1,37,-1
 207 95 l 1,38,-1
 179 82 l 1,39,-1
 179 8 l 1,40,-1
 301 8 l 1,41,-1
 301 -7 l 1,42,-1
 179 -7 l 1,43,-1
 179 -45 l 1,44,-1
 207 -32 l 1,45,-1
 207 -110 l 1,46,-1
 179 -124 l 1,47,-1
 179 -274 l 1,48,-1
 160 -274 l 1,49,-1
 160 -133 l 1,50,-1
 113 -153 l 1,51,-1
 113 -305 l 1,52,-1
 94 -305 l 1,53,-1
 94 -162 l 1,54,-1
 65 -174 l 1,55,-1
 65 -95 l 1,56,-1
 94 -83 l 1,57,-1
 94 -7 l 1,58,-1
 0 -7 l 1,59,-1
 0 8 l 1,16,-1
0 808 m 1,60,-1
 301 808 l 1,61,-1
 301 793 l 1,62,-1
 0 793 l 1,63,-1
 0 808 l 1,60,-1
0 608 m 1,64,-1
 301 608 l 1,65,-1
 301 593 l 1,66,-1
 0 593 l 1,67,-1
 0 608 l 1,64,-1
EndSplineSet
Validated: 1
EndChar

StartChar: Idieresis
Encoding: 207 207 165
Width: 252
Flags: W
LayerCount: 2
Fore
SplineSet
113 26 m 1,0,-1
 160 47 l 1,1,-1
 160 173 l 1,2,-1
 113 153 l 1,3,-1
 113 26 l 1,0,-1
0 8 m 1,4,-1
 72 8 l 1,5,-1
 94 18 l 1,6,-1
 94 144 l 1,7,-1
 65 132 l 1,8,-1
 65 193 l 1,9,-1
 0 193 l 1,10,-1
 0 208 l 1,11,-1
 65 208 l 1,12,-1
 65 211 l 1,13,-1
 94 222 l 1,14,-1
 94 374 l 1,15,-1
 113 374 l 1,16,-1
 113 232 l 1,17,-1
 160 252 l 1,18,-1
 160 392 l 1,19,-1
 0 392 l 1,20,-1
 0 407 l 1,21,-1
 301 407 l 1,22,-1
 301 392 l 1,23,-1
 179 392 l 1,24,-1
 179 261 l 1,25,-1
 207 274 l 1,26,-1
 207 208 l 1,27,-1
 301 208 l 1,28,-1
 301 193 l 1,29,-1
 201 193 l 1,30,-1
 179 182 l 1,31,-1
 179 55 l 1,32,-1
 207 69 l 1,33,-1
 207 8 l 1,34,-1
 301 8 l 1,35,-1
 301 -7 l 1,36,-1
 207 -7 l 1,37,-1
 207 -10 l 1,38,-1
 179 -24 l 1,39,-1
 179 -174 l 1,40,-1
 160 -174 l 1,41,-1
 160 -33 l 1,42,-1
 113 -53 l 1,43,-1
 113 -205 l 1,44,-1
 94 -205 l 1,45,-1
 94 -62 l 1,46,-1
 65 -74 l 1,47,-1
 65 -7 l 1,48,-1
 0 -7 l 1,49,-1
 0 8 l 1,4,-1
0 808 m 1,50,-1
 301 808 l 1,51,-1
 301 793 l 1,52,-1
 0 793 l 1,53,-1
 0 808 l 1,50,-1
0 608 m 1,54,-1
 301 608 l 1,55,-1
 301 593 l 1,56,-1
 0 593 l 1,57,-1
 0 608 l 1,54,-1
EndSplineSet
Validated: 1
EndChar

StartChar: Eth
Encoding: 208 208 166
Width: 252
Flags: W
LayerCount: 2
Fore
SplineSet
0 608 m 1,0,-1
 301 608 l 1,1,-1
 301 593 l 1,2,-1
 0 593 l 1,3,-1
 0 608 l 1,0,-1
113 392 m 1,4,-1
 113 332 l 1,5,-1
 160 352 l 1,6,-1
 160 392 l 1,7,-1
 113 392 l 1,4,-1
160 208 m 1,8,-1
 160 273 l 1,9,-1
 113 253 l 1,10,-1
 113 208 l 1,11,-1
 160 208 l 1,8,-1
113 126 m 1,12,-1
 160 147 l 1,13,-1
 160 193 l 1,14,-1
 113 193 l 1,15,-1
 113 126 l 1,12,-1
113 8 m 1,16,-1
 160 8 l 1,17,-1
 160 67 l 1,18,-1
 113 47 l 1,19,-1
 113 8 l 1,16,-1
0 8 m 1,20,-1
 94 8 l 1,21,-1
 94 38 l 1,22,-1
 65 26 l 1,23,-1
 65 105 l 1,24,-1
 94 118 l 1,25,-1
 94 193 l 1,26,-1
 0 193 l 1,27,-1
 0 208 l 1,28,-1
 94 208 l 1,29,-1
 94 244 l 1,30,-1
 65 232 l 1,31,-1
 65 311 l 1,32,-1
 94 322 l 1,33,-1
 94 392 l 1,34,-1
 0 392 l 1,35,-1
 0 407 l 1,36,-1
 94 407 l 1,37,-1
 94 474 l 1,38,-1
 113 474 l 1,39,-1
 113 407 l 1,40,-1
 160 407 l 1,41,-1
 160 505 l 1,42,-1
 179 505 l 1,43,-1
 179 407 l 1,44,-1
 301 407 l 1,45,-1
 301 392 l 1,46,-1
 179 392 l 1,47,-1
 179 361 l 1,48,-1
 207 374 l 1,49,-1
 207 295 l 1,50,-1
 179 282 l 1,51,-1
 179 208 l 1,52,-1
 301 208 l 1,53,-1
 301 193 l 1,54,-1
 179 193 l 1,55,-1
 179 155 l 1,56,-1
 207 169 l 1,57,-1
 207 90 l 1,58,-1
 179 76 l 1,59,-1
 179 8 l 1,60,-1
 301 8 l 1,61,-1
 301 -7 l 1,62,-1
 179 -7 l 1,63,-1
 179 -74 l 1,64,-1
 160 -74 l 1,65,-1
 160 -7 l 1,66,-1
 113 -7 l 1,67,-1
 113 -105 l 1,68,-1
 94 -105 l 1,69,-1
 94 -7 l 1,70,-1
 0 -7 l 1,71,-1
 0 8 l 1,20,-1
0 808 m 1,72,-1
 301 808 l 1,73,-1
 301 793 l 1,74,-1
 0 793 l 1,75,-1
 0 808 l 1,72,-1
EndSplineSet
Validated: 1
EndChar

StartChar: Ntilde
Encoding: 209 209 167
Width: 252
Flags: W
LayerCount: 2
Fore
SplineSet
113 226 m 1,0,-1
 160 247 l 1,1,-1
 160 373 l 1,2,-1
 113 353 l 1,3,-1
 113 226 l 1,0,-1
0 8 m 1,4,-1
 94 8 l 1,5,-1
 94 138 l 1,6,-1
 65 126 l 1,7,-1
 65 193 l 1,8,-1
 0 193 l 1,9,-1
 0 208 l 1,10,-1
 72 208 l 1,11,-1
 94 218 l 1,12,-1
 94 344 l 1,13,-1
 65 332 l 1,14,-1
 65 392 l 1,15,-1
 0 392 l 1,16,-1
 0 407 l 1,17,-1
 65 407 l 1,18,-1
 65 411 l 1,19,-1
 94 422 l 1,20,-1
 94 574 l 1,21,-1
 113 574 l 1,22,-1
 113 432 l 1,23,-1
 160 452 l 1,24,-1
 160 593 l 1,25,-1
 0 593 l 1,26,-1
 0 608 l 1,27,-1
 301 608 l 1,28,-1
 301 593 l 1,29,-1
 179 593 l 1,30,-1
 179 461 l 1,31,-1
 207 474 l 1,32,-1
 207 407 l 1,33,-1
 301 407 l 1,34,-1
 301 392 l 1,35,-1
 201 392 l 1,36,-1
 179 382 l 1,37,-1
 179 255 l 1,38,-1
 207 269 l 1,39,-1
 207 208 l 1,40,-1
 301 208 l 1,41,-1
 301 193 l 1,42,-1
 207 193 l 1,43,-1
 207 190 l 1,44,-1
 179 176 l 1,45,-1
 179 27 l 1,46,-1
 160 27 l 1,47,-1
 160 167 l 1,48,-1
 113 147 l 1,49,-1
 113 8 l 1,50,-1
 301 8 l 1,51,-1
 301 -7 l 1,52,-1
 0 -7 l 1,53,-1
 0 8 l 1,4,-1
0 808 m 1,54,-1
 301 808 l 1,55,-1
 301 793 l 1,56,-1
 0 793 l 1,57,-1
 0 808 l 1,54,-1
EndSplineSet
Validated: 1
EndChar

StartChar: Ograve
Encoding: 210 210 168
Width: 252
Flags: W
LayerCount: 2
Fore
SplineSet
113 593 m 1,0,-1
 113 532 l 1,1,-1
 160 552 l 1,2,-1
 160 593 l 1,3,-1
 113 593 l 1,0,-1
160 208 m 1,4,-1
 160 267 l 1,5,-1
 113 247 l 1,6,-1
 113 208 l 1,7,-1
 160 208 l 1,4,-1
160 705 m 1,8,-1
 179 705 l 1,9,-1
 179 608 l 1,10,-1
 301 608 l 1,11,-1
 301 593 l 1,12,-1
 179 593 l 1,13,-1
 179 561 l 1,14,-1
 207 574 l 1,15,-1
 207 495 l 1,16,-1
 179 482 l 1,17,-1
 179 407 l 1,18,-1
 301 407 l 1,19,-1
 301 392 l 1,20,-1
 179 392 l 1,21,-1
 179 355 l 1,22,-1
 207 369 l 1,23,-1
 207 290 l 1,24,-1
 179 276 l 1,25,-1
 179 208 l 1,26,-1
 301 208 l 1,27,-1
 301 193 l 1,28,-1
 179 193 l 1,29,-1
 179 127 l 1,30,-1
 160 127 l 1,31,-1
 160 193 l 1,32,-1
 113 193 l 1,33,-1
 113 95 l 1,34,-1
 94 95 l 1,35,-1
 94 193 l 1,36,-1
 0 193 l 1,37,-1
 0 208 l 1,38,-1
 94 208 l 1,39,-1
 94 238 l 1,40,-1
 65 226 l 1,41,-1
 65 305 l 1,42,-1
 94 318 l 1,43,-1
 94 392 l 1,44,-1
 0 392 l 1,45,-1
 0 407 l 1,46,-1
 94 407 l 1,47,-1
 94 444 l 1,48,-1
 65 432 l 1,49,-1
 65 511 l 1,50,-1
 94 522 l 1,51,-1
 94 593 l 1,52,-1
 0 593 l 1,53,-1
 0 608 l 1,54,-1
 94 608 l 1,55,-1
 94 674 l 1,56,-1
 113 674 l 1,57,-1
 113 608 l 1,58,-1
 160 608 l 1,59,-1
 160 705 l 1,8,-1
160 407 m 1,60,-1
 160 473 l 1,61,-1
 113 453 l 1,62,-1
 113 407 l 1,63,-1
 160 407 l 1,60,-1
113 326 m 1,64,-1
 160 347 l 1,65,-1
 160 392 l 1,66,-1
 113 392 l 1,67,-1
 113 326 l 1,64,-1
0 808 m 1,68,-1
 301 808 l 1,69,-1
 301 793 l 1,70,-1
 0 793 l 1,71,-1
 0 808 l 1,68,-1
0 8 m 1,72,-1
 301 8 l 1,73,-1
 301 -7 l 1,74,-1
 0 -7 l 1,75,-1
 0 8 l 1,72,-1
EndSplineSet
Validated: 1
EndChar

StartChar: Oacute
Encoding: 211 211 169
Width: 74
Flags: W
LayerCount: 2
Fore
SplineSet
0 808 m 1,0,-1
 131 808 l 1,1,-1
 131 793 l 1,2,-1
 0 793 l 1,3,-1
 0 808 l 1,0,-1
0 608 m 1,4,-1
 131 608 l 1,5,-1
 131 593 l 1,6,-1
 0 593 l 1,7,-1
 0 608 l 1,4,-1
0 407 m 1,8,-1
 131 407 l 1,9,-1
 131 392 l 1,10,-1
 0 392 l 1,11,-1
 0 407 l 1,8,-1
0 208 m 1,12,-1
 131 208 l 1,13,-1
 131 193 l 1,14,-1
 0 193 l 1,15,-1
 0 208 l 1,12,-1
0 7 m 1,16,-1
 131 7 l 1,17,-1
 131 -8 l 1,18,-1
 0 -8 l 1,19,-1
 0 7 l 1,16,-1
0 808 m 1,20,-1
 131 808 l 1,21,-1
 131 793 l 1,22,-1
 0 793 l 1,23,-1
 0 808 l 1,20,-1
0 608 m 1,24,-1
 131 608 l 1,25,-1
 131 593 l 1,26,-1
 0 593 l 1,27,-1
 0 608 l 1,24,-1
0 407 m 1,28,-1
 131 407 l 1,29,-1
 131 392 l 1,30,-1
 0 392 l 1,31,-1
 0 407 l 1,28,-1
0 208 m 1,32,-1
 131 208 l 1,33,-1
 131 193 l 1,34,-1
 0 193 l 1,35,-1
 0 208 l 1,32,-1
0 7 m 1,36,-1
 131 7 l 1,37,-1
 131 -8 l 1,38,-1
 0 -8 l 1,39,-1
 0 7 l 1,36,-1
0 954 m 0,40,41
 -3 971 -3 971 -17 979 c 128,-1,42
 -31 987 -31 987 -33.5 997.5 c 128,-1,43
 -36 1008 -36 1008 -36 1017 c 0,44,45
 -36 1053 -36 1053 -6 1053 c 0,46,47
 2 1053 2 1053 4 1049 c 0,48,49
 18 1020 18 1020 21 1013 c 0,50,51
 28 995 28 995 32 972 c 0,52,53
 37 944 37 944 34 922 c 0,54,55
 31 907 31 907 28 891 c 0,56,57
 23 861 23 861 12 839 c 128,-1,58
 1 817 1 817 -11 817 c 0,59,60
 -22 817 -22 817 -36.5 836 c 128,-1,61
 -51 855 -51 855 -51 866 c 0,62,63
 -51 870 -51 870 -49 872 c 0,64,65
 -45 878 -45 878 -30 875 c 0,66,67
 -8 871 -8 871 -8 871 c 2,68,69
 -1 871 -1 871 0 876 c 0,70,71
 8 908 8 908 0 954 c 0,40,41
EndSplineSet
Validated: 37
EndChar

StartChar: Ocircumflex
Encoding: 212 212 170
Width: 15
Flags: W
LayerCount: 2
Fore
SplineSet
16 -437 m 0,0,1
 11 -386 11 -386 -3 -284 c 0,2,3
 -17 -201 -17 -201 -5 -157 c 0,4,5
 -3 -150 -3 -150 2 -150 c 0,6,7
 6 -150 6 -150 7 -157 c 0,8,9
 7 -188 7 -188 10 -248 c 1,10,11
 31 -416 31 -416 31 -434 c 0,12,13
 31 -441 31 -441 25 -443 c 0,14,15
 18 -445 18 -445 16 -437 c 0,0,1
0 808 m 1,16,-1
 81 808 l 1,17,-1
 81 793 l 1,18,-1
 0 793 l 1,19,-1
 0 808 l 1,16,-1
0 608 m 1,20,-1
 81 608 l 1,21,-1
 81 593 l 1,22,-1
 0 593 l 1,23,-1
 0 608 l 1,20,-1
0 407 m 1,24,-1
 81 407 l 1,25,-1
 81 392 l 1,26,-1
 0 392 l 1,27,-1
 0 407 l 1,24,-1
0 208 m 1,28,-1
 81 208 l 1,29,-1
 81 193 l 1,30,-1
 0 193 l 1,31,-1
 0 208 l 1,28,-1
0 7 m 1,32,-1
 81 7 l 1,33,-1
 81 -8 l 1,34,-1
 0 -8 l 1,35,-1
 0 7 l 1,32,-1
0 808 m 1,36,-1
 81 808 l 1,37,-1
 81 793 l 1,38,-1
 0 793 l 1,39,-1
 0 808 l 1,36,-1
0 608 m 1,40,-1
 81 608 l 1,41,-1
 81 593 l 1,42,-1
 0 593 l 1,43,-1
 0 608 l 1,40,-1
0 407 m 1,44,-1
 81 407 l 1,45,-1
 81 392 l 1,46,-1
 0 392 l 1,47,-1
 0 407 l 1,44,-1
0 208 m 1,48,-1
 81 208 l 1,49,-1
 81 193 l 1,50,-1
 0 193 l 1,51,-1
 0 208 l 1,48,-1
0 7 m 1,52,-1
 81 7 l 1,53,-1
 81 -8 l 1,54,-1
 0 -8 l 1,55,-1
 0 7 l 1,52,-1
EndSplineSet
Validated: 37
EndChar

StartChar: Otilde
Encoding: 213 213 171
Width: 15
Flags: W
LayerCount: 2
Fore
SplineSet
0 808 m 1,0,-1
 3 808 l 1,1,2
 0 829 0 829 -3 847 c 0,3,4
 -14 907 -14 907 -5 937 c 0,5,6
 -4 942 -4 942 1 943 c 0,7,8
 5 945 5 945 7 937 c 0,9,10
 7 918 7 918 11.5 878 c 128,-1,11
 16 838 16 838 19 808 c 1,12,-1
 81 808 l 1,13,-1
 81 793 l 1,14,-1
 21 793 l 1,15,16
 23 777 23 777 23 772 c 0,17,18
 23 761 23 761 15 761 c 0,19,20
 8 761 8 761 5 793 c 1,21,-1
 0 793 l 1,22,-1
 0 808 l 1,0,-1
0 608 m 1,23,-1
 81 608 l 1,24,-1
 81 593 l 1,25,-1
 0 593 l 1,26,-1
 0 608 l 1,23,-1
0 407 m 1,27,-1
 81 407 l 1,28,-1
 81 392 l 1,29,-1
 0 392 l 1,30,-1
 0 407 l 1,27,-1
0 208 m 1,31,-1
 81 208 l 1,32,-1
 81 193 l 1,33,-1
 0 193 l 1,34,-1
 0 208 l 1,31,-1
0 7 m 1,35,-1
 81 7 l 1,36,-1
 81 -8 l 1,37,-1
 0 -8 l 1,38,-1
 0 7 l 1,35,-1
0 608 m 1,39,-1
 81 608 l 1,40,-1
 81 593 l 1,41,-1
 0 593 l 1,42,-1
 0 608 l 1,39,-1
0 407 m 1,43,-1
 81 407 l 1,44,-1
 81 392 l 1,45,-1
 0 392 l 1,46,-1
 0 407 l 1,43,-1
0 208 m 1,47,-1
 81 208 l 1,48,-1
 81 193 l 1,49,-1
 0 193 l 1,50,-1
 0 208 l 1,47,-1
0 7 m 1,51,-1
 81 7 l 1,52,-1
 81 -8 l 1,53,-1
 0 -8 l 1,54,-1
 0 7 l 1,51,-1
EndSplineSet
Validated: 37
EndChar

StartChar: Odieresis
Encoding: 214 214 172
Width: 74
Flags: W
LayerCount: 2
Fore
SplineSet
0 608 m 1,0,-1
 131 608 l 1,1,-1
 131 593 l 1,2,-1
 0 593 l 1,3,-1
 0 608 l 1,0,-1
0 407 m 1,4,-1
 131 407 l 1,5,-1
 131 392 l 1,6,-1
 0 392 l 1,7,-1
 0 407 l 1,4,-1
0 208 m 1,8,-1
 131 208 l 1,9,-1
 131 193 l 1,10,-1
 0 193 l 1,11,-1
 0 208 l 1,8,-1
0 7 m 1,12,-1
 131 7 l 1,13,-1
 131 -8 l 1,14,-1
 0 -8 l 1,15,-1
 0 7 l 1,12,-1
0 754 m 0,16,17
 -3 771 -3 771 -17 779 c 128,-1,18
 -31 787 -31 787 -33.5 797.5 c 128,-1,19
 -36 808 -36 808 -36 817 c 0,20,21
 -36 853 -36 853 -6 853 c 0,22,23
 2 853 2 853 4 849 c 0,24,25
 11 835 11 835 23 808 c 1,26,-1
 131 808 l 1,27,-1
 131 793 l 1,28,-1
 27 793 l 1,29,30
 30 783 30 783 32 772 c 0,31,32
 37 744 37 744 34 722 c 0,33,34
 31 707 31 707 28 691 c 0,35,36
 23 661 23 661 12 639 c 128,-1,37
 1 617 1 617 -11 617 c 0,38,39
 -22 617 -22 617 -36.5 636 c 128,-1,40
 -51 655 -51 655 -51 666 c 0,41,42
 -51 670 -51 670 -49 672 c 0,43,44
 -45 678 -45 678 -30 675 c 0,45,46
 -8 671 -8 671 -8 671 c 2,47,48
 -1 671 -1 671 0 676 c 0,49,50
 8 708 8 708 0 754 c 0,16,17
EndSplineSet
Validated: 33
EndChar

StartChar: multiply
Encoding: 215 215 173
Width: 15
Flags: W
LayerCount: 2
Fore
SplineSet
16 -338 m 0,0,1
 11 -287 11 -287 -3 -185 c 0,2,3
 -17 -102 -17 -102 -5 -58 c 0,4,5
 -3 -51 -3 -51 2 -51 c 0,6,7
 6 -51 6 -51 7 -58 c 0,8,9
 7 -89 7 -89 10 -149 c 1,10,11
 31 -317 31 -317 31 -335 c 0,12,13
 31 -342 31 -342 25 -344 c 0,14,15
 18 -346 18 -346 16 -338 c 0,0,1
0 808 m 1,16,-1
 81 808 l 1,17,-1
 81 793 l 1,18,-1
 0 793 l 1,19,-1
 0 808 l 1,16,-1
0 608 m 1,20,-1
 81 608 l 1,21,-1
 81 593 l 1,22,-1
 0 593 l 1,23,-1
 0 608 l 1,20,-1
0 407 m 1,24,-1
 81 407 l 1,25,-1
 81 392 l 1,26,-1
 0 392 l 1,27,-1
 0 407 l 1,24,-1
0 208 m 1,28,-1
 81 208 l 1,29,-1
 81 193 l 1,30,-1
 0 193 l 1,31,-1
 0 208 l 1,28,-1
0 7 m 1,32,-1
 81 7 l 1,33,-1
 81 -8 l 1,34,-1
 0 -8 l 1,35,-1
 0 7 l 1,32,-1
0 808 m 1,36,-1
 81 808 l 1,37,-1
 81 793 l 1,38,-1
 0 793 l 1,39,-1
 0 808 l 1,36,-1
0 608 m 1,40,-1
 81 608 l 1,41,-1
 81 593 l 1,42,-1
 0 593 l 1,43,-1
 0 608 l 1,40,-1
0 407 m 1,44,-1
 81 407 l 1,45,-1
 81 392 l 1,46,-1
 0 392 l 1,47,-1
 0 407 l 1,44,-1
0 208 m 1,48,-1
 81 208 l 1,49,-1
 81 193 l 1,50,-1
 0 193 l 1,51,-1
 0 208 l 1,48,-1
0 7 m 1,52,-1
 81 7 l 1,53,-1
 81 -8 l 1,54,-1
 0 -8 l 1,55,-1
 0 7 l 1,52,-1
EndSplineSet
Validated: 37
EndChar

StartChar: Oslash
Encoding: 216 216 174
Width: 15
Flags: W
LayerCount: 2
Fore
SplineSet
10 -440 m 0,0,1
 8 -389 8 -389 -3 -246 c 0,2,3
 -14 -127 -14 -127 -5 -66 c 0,4,5
 -3 -53 -3 -53 2 -53 c 0,6,7
 6 -53 6 -53 7 -66 c 0,8,9
 7 -105 7 -105 10 -182 c 0,10,11
 23 -369 23 -369 23 -426 c 0,12,13
 23 -448 23 -448 15 -448 c 0,14,15
 12 -448 12 -448 10 -440 c 0,0,1
0 808 m 1,16,-1
 81 808 l 1,17,-1
 81 793 l 1,18,-1
 0 793 l 1,19,-1
 0 808 l 1,16,-1
0 608 m 1,20,-1
 81 608 l 1,21,-1
 81 593 l 1,22,-1
 0 593 l 1,23,-1
 0 608 l 1,20,-1
0 407 m 1,24,-1
 81 407 l 1,25,-1
 81 392 l 1,26,-1
 0 392 l 1,27,-1
 0 407 l 1,24,-1
0 208 m 1,28,-1
 81 208 l 1,29,-1
 81 193 l 1,30,-1
 0 193 l 1,31,-1
 0 208 l 1,28,-1
0 7 m 1,32,-1
 81 7 l 1,33,-1
 81 -8 l 1,34,-1
 0 -8 l 1,35,-1
 0 7 l 1,32,-1
0 808 m 1,36,-1
 81 808 l 1,37,-1
 81 793 l 1,38,-1
 0 793 l 1,39,-1
 0 808 l 1,36,-1
0 608 m 1,40,-1
 81 608 l 1,41,-1
 81 593 l 1,42,-1
 0 593 l 1,43,-1
 0 608 l 1,40,-1
0 407 m 1,44,-1
 81 407 l 1,45,-1
 81 392 l 1,46,-1
 0 392 l 1,47,-1
 0 407 l 1,44,-1
0 208 m 1,48,-1
 81 208 l 1,49,-1
 81 193 l 1,50,-1
 0 193 l 1,51,-1
 0 208 l 1,48,-1
0 7 m 1,52,-1
 81 7 l 1,53,-1
 81 -8 l 1,54,-1
 0 -8 l 1,55,-1
 0 7 l 1,52,-1
EndSplineSet
Validated: 37
EndChar

StartChar: Ugrave
Encoding: 217 217 175
Width: 15
Flags: W
LayerCount: 2
Fore
SplineSet
0 808 m 1,0,-1
 81 808 l 1,1,-1
 81 793 l 1,2,-1
 0 793 l 1,3,-1
 0 808 l 1,0,-1
0 608 m 1,4,-1
 81 608 l 1,5,-1
 81 593 l 1,6,-1
 0 593 l 1,7,-1
 0 608 l 1,4,-1
0 407 m 1,8,-1
 81 407 l 1,9,-1
 81 392 l 1,10,-1
 0 392 l 1,11,-1
 0 407 l 1,8,-1
0 208 m 1,12,-1
 81 208 l 1,13,-1
 81 193 l 1,14,-1
 0 193 l 1,15,-1
 0 208 l 1,12,-1
8 7 m 1,16,-1
 81 7 l 1,17,-1
 81 -8 l 1,18,-1
 7 -8 l 1,19,20
 7 -38 7 -38 10 -82 c 0,21,22
 23 -269 23 -269 23 -326 c 0,23,24
 23 -348 23 -348 15 -348 c 0,25,26
 12 -348 12 -348 10 -340 c 0,27,28
 8 -289 8 -289 -3 -146 c 0,29,30
 -14 -27 -14 -27 -5 34 c 0,31,32
 -3 47 -3 47 2 47 c 0,33,34
 9 47 9 47 8 7 c 1,16,-1
EndSplineSet
Validated: 33
EndChar

StartChar: Uacute
Encoding: 218 218 176
Width: 15
Flags: W
LayerCount: 2
Fore
SplineSet
10 865 m 0,0,1
 8 883 8 883 -3 947 c 0,2,3
 -14 1007 -14 1007 -5 1037 c 0,4,5
 -4 1042 -4 1042 1 1043 c 0,6,7
 5 1045 5 1045 7 1037 c 0,8,9
 7 1018 7 1018 10 979 c 0,10,11
 23 886 23 886 23 872 c 0,12,13
 23 861 23 861 15 861 c 0,14,15
 12 861 12 861 10 865 c 0,0,1
0 808 m 1,16,-1
 81 808 l 1,17,-1
 81 793 l 1,18,-1
 0 793 l 1,19,-1
 0 808 l 1,16,-1
0 608 m 1,20,-1
 81 608 l 1,21,-1
 81 593 l 1,22,-1
 0 593 l 1,23,-1
 0 608 l 1,20,-1
0 407 m 1,24,-1
 81 407 l 1,25,-1
 81 392 l 1,26,-1
 0 392 l 1,27,-1
 0 407 l 1,24,-1
0 208 m 1,28,-1
 81 208 l 1,29,-1
 81 193 l 1,30,-1
 0 193 l 1,31,-1
 0 208 l 1,28,-1
0 7 m 1,32,-1
 81 7 l 1,33,-1
 81 -8 l 1,34,-1
 0 -8 l 1,35,-1
 0 7 l 1,32,-1
0 808 m 1,36,-1
 81 808 l 1,37,-1
 81 793 l 1,38,-1
 0 793 l 1,39,-1
 0 808 l 1,36,-1
0 608 m 1,40,-1
 81 608 l 1,41,-1
 81 593 l 1,42,-1
 0 593 l 1,43,-1
 0 608 l 1,40,-1
0 407 m 1,44,-1
 81 407 l 1,45,-1
 81 392 l 1,46,-1
 0 392 l 1,47,-1
 0 407 l 1,44,-1
0 208 m 1,48,-1
 81 208 l 1,49,-1
 81 193 l 1,50,-1
 0 193 l 1,51,-1
 0 208 l 1,48,-1
0 7 m 1,52,-1
 81 7 l 1,53,-1
 81 -8 l 1,54,-1
 0 -8 l 1,55,-1
 0 7 l 1,52,-1
EndSplineSet
Validated: 37
EndChar

